<?xml version="1.0" encoding="utf-8"?>
<!-- Generator: Adobe Illustrator 16.0.4, SVG Export Plug-In . SVG Version: 6.00 Build 0)  -->
<!DOCTYPE svg PUBLIC "-//W3C//DTD SVG 1.1//EN" "http://www.w3.org/Graphics/SVG/1.1/DTD/svg11.dtd">
<svg version="1.1" id="Layer_1" xmlns="http://www.w3.org/2000/svg" xmlns:xlink="http://www.w3.org/1999/xlink" x="0px" y="0px"
	 width="150px" height="150px" viewBox="0 0 150 150" enable-background="new 0 0 150 150" xml:space="preserve">
<g opacity="0.15">
	<g>
		<defs>
			<rect id="SVGID_1_" y="0.004" width="149.993" height="149.992"/>
		</defs>
		<clipPath id="SVGID_2_">
			<use xlink:href="#SVGID_1_"  overflow="visible"/>
		</clipPath>
		<path clip-path="url(#SVGID_2_)" d="M0,75C0,33.581,33.577,0.004,74.996,0.004c41.42,0,74.997,33.577,74.997,74.996
			s-33.577,74.996-74.997,74.996C33.577,149.996,0,116.419,0,75"/>
	</g>
</g>
<path fill="#FFFFFF" d="M97.736,37.858c2.496-0.717,6.419-3.227,6.419-3.227s-7.488-0.357-11.055-1.434
	c3.209-3.224,3.209-9.318,3.209-9.318s-7.845,3.223-18.899,3.223c-7.847-0.356-10.699-1.433-16.405,4.305
	c-6.776,6.808-6.776,8.602-11.055,8.602c3.566,5.017,1.783,10.038,1.783,10.038l-0.356,7.528l0.356,1.434c0,0,0,0.357,0.357,1.073
	c0,0.361,0,1.077,0.356,1.434l1.07,5.738c0,0-0.356,0.357-0.713,0c-1.07-1.434-2.496-2.15-4.279-2.15
	c-1.07,0-2.853,2.867-1.427,6.808c1.07,2.87,2.14,4.661,3.21,8.605c1.07,3.943,3.209,6.811,4.279,6.094
	c0.357-0.36,0.713-1.434,1.07-3.228c0-0.356,0.357,0,0.713,0.36c0.357,3.584,1.07,6.808,1.783,8.603
	c0.713,1.076,1.427,2.51,2.14,3.584c-0.713,6.094-1.427,13.622-2.853,19.356c-8.613,2.332-26.025,7.151-37.996,10.093
	c13.721,15.12,33.528,24.616,55.554,24.616c17.152,0,32.949-5.771,45.584-15.459c-10.391-6.421-25.833-17.1-31.046-17.1H75.982
	c-3.208,0-9.985-2.867-10.698-5.374c-0.713-1.794-0.713-5.021-0.357-7.889c0-0.356,0.713-0.356,1.07,0
	c2.853,3.228,4.279,5.378,7.132,5.378h6.419c2.497,0,11.056-7.528,14.622-16.847c0.713-2.154,1.426-5.738,1.783-9.679
	c0-0.36,0.355-0.72,0.355-0.36c0.357,1.794,1.07,3.944,1.427,3.944c1.07,0.717,2.496-2.15,4.279-6.094
	c1.784-3.584,1.784-5.735,2.497-8.605c1.07-3.941-0.357-6.808-1.427-6.808c-1.07,0-1.783,0.356-2.496,1.073
	c-0.357,0-0.713,0-0.713-0.357c0-2.51,0.355-6.454,3.209-8.605c-3.923-3.584-1.426-9.678-1.426-9.678
	c1.426,0.716,3.565,0.716,3.565,0.716l-2.853-4.661c2.14-0.356,3.923-2.15,3.923-2.15S100.59,40.009,97.736,37.858"/>
<rect fill="none" width="150" height="150"/>
<rect fill="none" width="150" height="150"/>
</svg>
