<svg xmlns="http://www.w3.org/2000/svg" width="60" height="60" viewBox="0 0 60 60">
  <g fill="none">
    <path fill="#E74D89" d="M30,1.9921875 C45.46875,1.9921875 57.984375,14.5078125 57.984375,29.953125 C57.984375,45.3984375 45.46875,57.9375 30,57.9375 C14.53125,57.9375 2.015625,45.421875 2.015625,29.9765625 C2.015625,14.53125 14.53125,1.9921875 30,1.9921875 Z"/>
    <path fill="#B2215A" d="M30,59.9296875 C13.453125,59.9296875 0,46.5 0,29.9765625 C0,13.4296875 13.453125,0 30,0 C46.546875,0 60,13.4296875 60,29.953125 C60,46.4765625 46.546875,59.9296875 30,59.9296875 Z M55.2890625,34.0546875 C54.421875,33.7734375 47.3671875,31.6875 39.328125,32.953125 C42.6796875,42.140625 44.0390625,49.640625 44.296875,51.1875 C50.0625,47.3203125 54.1640625,41.1796875 55.2890625,34.0546875 Z M40.0078125,53.5546875 C39.6328125,51.3046875 38.1328125,43.4765625 34.546875,34.1484375 C34.5,34.171875 34.4296875,34.1953125 34.3828125,34.1953125 C19.921875,39.234375 14.7421875,49.2421875 14.2734375,50.1796875 C18.609375,53.5546875 24.0703125,55.5703125 30,55.5703125 C33.5390625,55.59375 36.9375,54.8671875 40.0078125,53.5546875 Z M10.96875,47.109375 C11.5546875,46.125 18.5859375,34.5 31.8046875,30.2109375 C32.1328125,30.09375 32.484375,30 32.8125,29.90625 C32.1796875,28.453125 31.4765625,27 30.7265625,25.5703125 C17.9296875,29.390625 5.5078125,29.2265625 4.3828125,29.203125 C4.3828125,29.4609375 4.359375,29.71875 4.359375,29.9765625 C4.3828125,36.5625 6.8671875,42.5625 10.96875,47.109375 Z M4.921875,24.75 C6.0703125,24.7734375 16.6171875,24.8203125 28.6171875,21.6328125 C24.375,14.0859375 19.78125,7.7578125 19.125,6.84375 C11.9296875,10.21875 6.5859375,16.828125 4.921875,24.75 Z M24,5.109375 C24.703125,6.046875 29.3671875,12.375 33.5625,20.0859375 C42.6796875,16.6640625 46.5234375,11.5078125 46.9921875,10.8515625 C42.46875,6.84375 36.515625,4.40625 30,4.40625 C27.9375,4.40625 25.921875,4.6640625 24,5.109375 Z M49.828125,13.8046875 C49.2890625,14.53125 45,20.0390625 35.53125,23.90625 C36.1171875,25.125 36.703125,26.3671875 37.2421875,27.609375 C37.4296875,28.0546875 37.6171875,28.5 37.8046875,28.921875 C46.3359375,27.84375 54.796875,29.578125 55.640625,29.7421875 C55.5703125,23.71875 53.4140625,18.1640625 49.828125,13.8046875 Z"/>
  </g>
</svg>
