<svg xmlns="http://www.w3.org/2000/svg" width="60" height="60" viewBox="0 0 60 60">
  <g fill="#FFFFFF" fill-rule="evenodd">
    <polygon points="14.677 27.3 14.677 32.625 18.658 29.963"/>
    <polygon points="28.418 23.434 28.418 16.013 15.951 24.323 21.52 28.049"/>
    <polygon points="44.067 24.323 31.6 16.013 31.6 23.434 38.499 28.049"/>
    <polygon points="15.951 35.602 28.418 43.912 28.418 36.491 21.52 31.877"/>
    <polygon points="31.6 36.491 31.6 43.912 44.067 35.602 38.499 31.877"/>
    <polygon points="30.009 26.198 24.382 29.962 30.009 33.727 35.637 29.962"/>
    <path d="M48.5229241,35.6034937 C48.5229241,35.6736203 48.5179873,35.7427342 48.5087468,35.8118481 C48.5053291,35.8342532 48.4998861,35.8576709 48.4960886,35.8800759 C48.4878608,35.9248861 48.4800127,35.9696962 48.4682405,36.0134937 C48.4615316,36.0398228 48.4517848,36.0650127 48.4434304,36.0904557 C48.4307722,36.1293165 48.4182405,36.1684304 48.4026709,36.2074177 C48.3919114,36.2336203 48.3786203,36.2589367 48.3671013,36.2842532 C48.3500127,36.3203291 48.3324177,36.3552658 48.3130506,36.3904557 C48.2987468,36.4147595 48.2827975,36.4391899 48.2676076,36.4634937 C48.2462152,36.4966582 48.224443,36.5288101 48.200519,36.5599494 C48.1829241,36.5842532 48.1649494,36.6066582 48.1455823,36.6290633 C48.1206456,36.6581772 48.0943165,36.6874177 48.0665949,36.7146329 C48.0455823,36.7361519 48.0250759,36.7575443 48.0033038,36.777038 C47.9745696,36.8033671 47.9439367,36.8286835 47.9127975,36.8529873 C47.8892532,36.8715949 47.865962,36.8900759 47.8410253,36.9075443 C47.8319114,36.9134937 47.8236835,36.9212152 47.8143165,36.927038 L30.8919114,48.2090633 C30.6245696,48.3872911 30.3172278,48.4767848 30.009,48.4767848 C29.7017848,48.4767848 29.3939367,48.3872911 29.1265949,48.2090633 L12.2036835,36.927038 C12.1948228,36.9212152 12.1865949,36.9134937 12.1778608,36.9075443 C12.1529241,36.8900759 12.1291266,36.8715949 12.1057089,36.8529873 C12.0745696,36.8286835 12.0443165,36.8033671 12.0155823,36.777038 C11.9936835,36.7575443 11.9727975,36.7361519 11.9517848,36.7146329 C11.9240633,36.6874177 11.8983671,36.6581772 11.8724177,36.6290633 C11.8539367,36.6066582 11.8354557,36.5842532 11.8179873,36.5599494 C11.7945696,36.5288101 11.7721646,36.4966582 11.7511519,36.4634937 C11.7350759,36.4391899 11.7200127,36.4147595 11.7054557,36.3904557 C11.685962,36.3552658 11.6684937,36.3203291 11.6514051,36.2842532 C11.6392532,36.2589367 11.6269747,36.2336203 11.6158354,36.2074177 C11.6002658,36.1684304 11.5871013,36.1293165 11.5749494,36.0904557 C11.5662152,36.0650127 11.557481,36.0398228 11.5501392,36.0134937 C11.5383671,35.9696962 11.5306456,35.9248861 11.5222911,35.8800759 C11.5184937,35.8576709 11.5126709,35.8342532 11.5096329,35.8118481 C11.5003924,35.7427342 11.4950759,35.6736203 11.4950759,35.6034937 L11.4950759,24.3214684 C11.4950759,24.2513418 11.5003924,24.1822278 11.5096329,24.114 C11.5126709,24.0907089 11.5184937,24.0683038 11.5222911,24.0448861 C11.5306456,24.0000759 11.5383671,23.9552658 11.5501392,23.9114684 C11.557481,23.8851392 11.5662152,23.8598228 11.5749494,23.8345063 C11.5871013,23.795519 11.6002658,23.7566582 11.6158354,23.718557 C11.6269747,23.6923544 11.6392532,23.6660253 11.6514051,23.6407089 C11.6684937,23.6046329 11.685962,23.5695696 11.7054557,23.535519 C11.7200127,23.5102025 11.7350759,23.4858987 11.7511519,23.4614684 C11.7721646,23.4284304 11.7945696,23.3962785 11.8179873,23.3650127 C11.8354557,23.3417215 11.8539367,23.3183038 11.8724177,23.2960253 C11.8983671,23.2667848 11.9240633,23.2375443 11.9517848,23.2102025 C11.9727975,23.1888101 11.9936835,23.1674177 12.0155823,23.1479241 C12.0443165,23.1215949 12.0745696,23.0962785 12.1057089,23.0718481 C12.1291266,23.0533671 12.1529241,23.0348861 12.1778608,23.0174177 C12.1865949,23.0114684 12.1948228,23.0037468 12.2036835,22.9979241 L29.1265949,11.7158987 C29.6612785,11.359443 30.3571013,11.359443 30.8919114,11.7158987 L47.8143165,22.9979241 C47.8236835,23.0037468 47.8319114,23.0114684 47.8410253,23.0174177 C47.865962,23.0348861 47.8892532,23.0533671 47.9127975,23.0718481 C47.9439367,23.0962785 47.9745696,23.1215949 48.0033038,23.1479241 C48.0250759,23.1674177 48.0455823,23.1888101 48.0665949,23.2102025 C48.0943165,23.2375443 48.1206456,23.2667848 48.1455823,23.2960253 C48.1649494,23.3183038 48.1829241,23.3417215 48.200519,23.3650127 C48.224443,23.3962785 48.2462152,23.4284304 48.2676076,23.4614684 C48.2827975,23.4858987 48.2987468,23.5102025 48.3130506,23.535519 C48.3324177,23.5695696 48.3500127,23.6046329 48.3671013,23.6407089 C48.3786203,23.6660253 48.3919114,23.6923544 48.4026709,23.718557 C48.4182405,23.7566582 48.4307722,23.795519 48.4434304,23.8345063 C48.4517848,23.8598228 48.4615316,23.8851392 48.4682405,23.9114684 C48.4800127,23.9552658 48.4878608,24.0000759 48.4960886,24.0448861 C48.4998861,24.0683038 48.5053291,24.0907089 48.5087468,24.114 C48.5179873,24.1822278 48.5229241,24.2513418 48.5229241,24.3214684 L48.5229241,35.6034937 Z M30.009,0.0195696203 C13.4726709,0.0195696203 0.0664683544,13.4252658 0.0664683544,29.962481 C0.0664683544,46.4998228 13.4726709,59.9048861 30.009,59.9048861 C46.5463418,59.9048861 59.9519114,46.4998228 59.9519114,29.962481 C59.9519114,13.4252658 46.5463418,0.0195696203 30.009,0.0195696203 Z"/>
    <polygon points="45.341 32.625 45.341 27.3 41.361 29.962"/>
  </g>
</svg>
