<?xml version="1.0" encoding="UTF-8"?>
<svg width="60px" height="60px" viewBox="0 0 60 60" version="1.1" xmlns="http://www.w3.org/2000/svg" xmlns:xlink="http://www.w3.org/1999/xlink">
    <!-- Generator: Sketch 43.2 (39069) - http://www.bohemiancoding.com/sketch -->
    <title>wt_logo</title>
    <desc>Created with Sketch.</desc>
    <defs>
        <circle id="path-1" cx="30" cy="30" r="30"></circle>
    </defs>
    <g id="Page-1" stroke="none" stroke-width="1" fill="none" fill-rule="evenodd">
        <g id="wt_logo">
            <mask id="mask-2" fill="white">
                <use xlink:href="#path-1"></use>
            </mask>
            <use id="Oval" fill="#000000" xlink:href="#path-1"></use>
            <path d="M55,44 L53.3489163,44 L51.7434039,40.2499364 L50.4559092,40.2499364 L50.4559092,44 L48.9411888,44 L48.9411888,35 L53.4853498,35 L55,36.4999421 L55,38.7499248 L53.4247049,40.2498669 L55,44 Z M53.4853498,38.1350624 L53.4853498,37.1150128 L52.864318,36.500081 L50.4559092,36.500081 L50.4559092,38.7500636 L52.864318,38.7500636 L53.4853498,38.1350624 Z M41.3676574,35 L47.4264685,35 L47.4264685,36.4999421 L42.8823777,36.4999421 L42.8823777,38.7499248 L45.1544231,38.7499248 L45.1544231,40.2498669 L42.8823777,40.2498669 L42.8823777,42.499919 L47.4264685,42.499919 L47.4264685,43.9998611 L41.3676574,43.9998611 L41.3676574,35 Z M15.6176223,35 L17.1323426,35 L17.1323426,44 L15.6176223,44 L15.6176223,40.2499364 L12.5881817,40.2499364 L12.5881817,44 L11.0735315,44 L11.0735315,35 L12.5881817,35 L12.5881817,38.7499942 L15.6176223,38.7499942 L15.6176223,35 Z M9.55881116,36.5000116 L7.28676574,36.5000116 L7.28676574,44 L5.77204542,44 L5.77204542,36.5000116 L3.5,36.5000116 L3.5,35.0000694 L9.55881116,35.0000694 L9.55881116,36.5000116 Z M20.1617132,41.8849872 L20.782745,42.4999884 L22.5700519,42.4999884 L23.1910837,41.8849872 L23.1910837,35 L24.705804,35 L24.705804,42.4999884 L23.1910837,43.9999306 L20.1617132,43.9999306 L18.6470629,42.4999884 L18.6470629,35 L20.1617132,35 L20.1617132,41.8849872 Z M30.7646853,40.7449645 L30.7646853,35 L32.2794056,35 L32.2794056,44 L30.7646853,44 L27.7353147,38.2700322 L27.7353147,44 L26.2205944,44 L26.2205944,35 L27.7353147,35.0149966 L30.7646853,40.7449645 Z M39.8530072,36.5000116 L39.8530072,42.5000579 L38.3382868,44 L33.794196,44 L33.794196,35 L38.3382868,35 L39.8530072,36.5000116 Z M35.3088462,36.5000116 L35.3088462,42.5000579 L37.717255,42.5000579 L38.3382167,41.8850566 L38.3382167,37.1150128 L37.717255,36.500081 L35.3088462,36.500081 L35.3088462,36.5000116 Z" id="Shape" fill="#FFFFFF" fill-rule="nonzero" mask="url(#mask-2)"></path>
            <path d="M55.8049331,27.4648598 L53.8708902,26.4007527 L51.9367677,27.4648598 L52.3517292,25.2978538 L50.7414616,23.7885566 L52.9319261,23.5133496 L53.8708105,21.516486 L54.8095355,23.5133496 L57,23.7885566 L55.3898918,25.2979335 L55.8049331,27.4648598 Z M43.6997889,31.9999203 L43.6997889,31.7211289 L44.4238594,31.7211289 L44.0421362,30.6660228 C44.0956205,30.5607193 44.1638508,30.4100126 44.2181322,30.2385957 L45.5007189,29.8951246 L45.4594299,29.7412318 L47.2328605,29.1869944 L48.3725301,31.9999203 L45.4270684,31.9999203 L43.6997889,31.9999203 L43.6997889,31.9999203 Z M46.8887596,28.3373974 L45.1853927,28.7189434 L45.1441038,28.5650505 L44.1056637,28.8431251 C44.0273104,28.6611937 43.9560512,28.5445792 43.9560512,28.5445792 L43.2744653,28.5445792 L42.9910225,27.7614143 L41.0146545,27.7614143 L41.0146545,27.4645412 C41.0146545,27.4645412 40.4111031,27.3249065 39.8270005,27.3249065 C39.2350864,27.3249065 38.6626212,27.4645412 38.6626212,27.4645412 L38.6626212,27.7614143 L38.1111193,27.7614143 L37.4308885,29.6411855 L37.4308885,25.219155 C38.0737361,25.0662976 38.6167092,24.9394873 38.9420786,24.8661253 C39.1874208,24.810845 39.3063457,24.4068364 39.370192,23.766094 C39.4376253,23.0899849 39.3107296,23.0589992 38.6993668,23.0149502 C38.3536717,22.9900183 37.9164716,22.9687505 37.4308885,22.9500316 L37.4308885,16.0000797 L46.0892054,16.0000797 L47.9158811,17.8255263 L47.9158811,24.5384259 L46.0892054,26.3638726 L46.8887596,28.3373974 Z M45.2672532,18.5328601 L40.0796759,18.5328601 L40.0796759,23.7170267 L45.2672532,23.7170267 L45.2672532,18.5328601 Z M33.2988088,31.9048923 L33.2988088,31.3663469 C33.2988088,30.9849602 33.1189071,30.9756406 32.6874459,30.8130654 C32.0842133,30.5858902 31.1214962,30.3883465 31.1214962,30.3883465 C31.1214962,30.3883465 31.3876423,27.3461743 31.4111562,27.1353284 C31.440728,26.8691224 31.6047677,26.7655712 31.9254343,26.6213166 C32.1036622,26.541184 33.1106972,26.2775269 34.3241767,25.9746798 L35.906387,31.9999203 L33.2776861,31.9999203 C33.3034319,31.9515699 33.2988088,31.9101495 33.2988088,31.9048923 Z M31.4112359,22.3973077 C31.3933015,22.1652735 31.4184097,20.2557911 31.239863,19.8810158 C31.0612367,19.5062404 30.6611806,19.0458363 30.6611806,19.0458363 L30.3504775,19.0458363 C30.3504775,19.0458363 29.9505011,19.5062404 29.7718748,19.8810158 C29.5933281,20.2557911 29.6183565,22.1652735 29.6005019,22.3973077 C29.5826472,22.6292621 29.5399235,22.7023055 29.2147933,22.7613296 C29.0429421,22.7925543 28.374269,22.8165303 27.4984339,22.8401878 L29.2847772,16 L31.7050408,16 L33.5011085,22.8398692 C32.6311719,22.8162914 31.9680783,22.792395 31.7969445,22.7613296 C31.4717345,22.7022259 31.4290109,22.6292621 31.4112359,22.3973077 Z M29.6004222,27.1353284 C29.6238564,27.3460947 29.8900025,30.3883465 29.8900025,30.3883465 C29.8900025,30.3883465 28.9272853,30.5858902 28.3241324,30.8130654 C27.8925916,30.9756406 27.7127696,30.9849602 27.7127696,31.3663469 L27.7127696,31.9048923 C27.7127696,31.9101495 27.7081465,31.9515699 27.7338923,31.9999203 L25.1062276,31.9999203 L26.6802279,25.9729274 C27.8968958,26.2764914 28.9075177,26.5410247 29.086144,26.6213962 C29.4068106,26.7655712 29.5707707,26.8691224 29.6004222,27.1353284 Z M22.3122116,23.0150298 C22.3109363,23.0151095 22.3099001,23.0151892 22.3086247,23.0152688 L23.2320457,16 L25.9948957,16 L24.9997373,22.9043098 C23.9682318,22.9329855 22.9734719,22.967476 22.3122116,23.0150298 Z M23.6886947,31.9999203 L21.3369005,31.9999203 L19.696264,31.9999203 L19.6994524,28.0077066 C19.6994524,28.0077066 19.7649726,27.9821374 19.3724888,28.0077066 C18.980563,28.0331961 17.2642036,29.1710634 16.3190222,29.4805219 C15.3894637,29.7848825 13.5963452,29.8775209 13.5963452,29.8775209 C13.5963452,29.8775209 14.3367559,30.6906361 14.8126943,31.5104422 C14.8979025,31.6572458 14.9751399,31.82468 15.0444064,32 L13.6028813,32 L11.3195566,16.0000797 L14.0824066,16.0000797 L15.3783843,26.122041 L16.9593192,17.3235424 L19.3988723,17.3235424 L19.3988723,20.1535942 C19.1518562,20.1821106 18.9090646,20.2867768 18.6933739,20.4695047 L18.6933739,20.8956573 L16.8521115,20.8956573 L17.8942182,21.2711496 L18.9355278,21.2711496 L18.9355278,23.4089223 C18.5655217,23.4842757 18.2064357,23.62861 17.8791533,23.8446335 L17.8791533,24.7913296 L18.1197928,24.7913296 L18.1197928,26.5761524 L17.5077922,26.5761524 L17.5072343,26.5779844 L15.8041065,25.6551848 L15.6222918,25.9699005 L17.3761141,27.0453982 L17.2061759,27.6512518 L17.1818649,27.6512518 L14.6649948,26.2875634 L14.4831801,26.6021995 L16.2181115,27.6660676 L15.9567479,28.2369528 L13.5258831,26.9198624 L13.3440684,27.2344984 L15.7422528,28.7051631 L15.5125334,29.2069081 C15.7927082,29.1562477 16.0595716,29.0954711 16.2787695,29.0227464 C17.2353492,28.7055614 18.9730704,27.5385404 19.3700179,27.512334 C19.4747546,27.5054837 19.518913,27.5003858 19.5355721,27.49712 C19.5521514,27.5003858 19.5963895,27.5054041 19.7011262,27.512334 C20.0980737,27.5385404 21.8357152,28.7054817 22.7923746,29.0227464 C23.0117319,29.0954711 23.2787548,29.1562477 23.559089,29.2069877 L22.8471342,27.6510925 L21.8661638,27.6510925 L21.5647866,26.5759931 L20.9535035,26.5759931 L20.9535035,24.7911703 L21.1923096,24.7911703 L21.1923096,23.8441556 C20.8656649,23.62861 20.5072963,23.484435 20.1380076,23.4090816 L20.1380076,21.2709903 L21.0636604,21.2709903 L21.9143874,26.0077365 L22.0648767,24.8646119 C22.0663911,24.8650102 22.0676665,24.8657271 22.0691809,24.8660457 C22.5609016,24.976925 23.5472921,25.2092778 24.6294921,25.4704655 L23.6886947,31.9999203 Z M20.3787267,20.4692657 C20.163594,20.2870954 19.9215198,20.1825885 19.675221,20.1538331 L19.675221,17.3235424 L20.3549737,17.3235424 L20.996546,20.8956573 L20.3787267,20.8956573 L20.3787267,20.4692657 Z M8.06339174,27.4648598 L6.1293489,26.4007527 L4.19530607,27.4648598 L4.61034732,25.2978538 L3,23.7885566 L5.19054423,23.5133496 L6.1293489,21.516486 L7.06815357,23.5133496 L9.2586978,23.7885566 L7.64835048,25.2978538 L8.06339174,27.4648598 Z M38.8564719,29.5149328 L39.2137246,28.755027 L39.5709773,29.5149328 L40.404567,29.619599 L39.7917694,30.1939891 L39.9497513,31.0186541 L39.2137246,30.6136897 L38.4777776,31.0186541 L38.6356798,30.1939891 L38.0228822,29.619599 L38.8564719,29.5149328 Z" id="Shape-Copy" fill="#FFFFFF" fill-rule="nonzero" mask="url(#mask-2)"></path>
        </g>
    </g>
</svg>