<?xml version="1.0" encoding="UTF-8"?>
<svg width="60px" height="60px" viewBox="0 0 60 60" version="1.1" xmlns="http://www.w3.org/2000/svg" xmlns:xlink="http://www.w3.org/1999/xlink">
    <!-- Generator: Sketch 41.2 (35397) - http://www.bohemiancoding.com/sketch -->
    <title>no_logo</title>
    <desc>Created with Sketch.</desc>
    <defs>
        <path d="M30,60 C46.5685425,60 60,46.5685425 60,30 C60,13.4314575 46.5685425,0 30,0 C13.4314575,0 0,13.4314575 0,30 C0,46.5685425 13.4314575,60 30,60 Z" id="path-1"></path>
    </defs>
    <g id="Symbols" stroke="none" stroke-width="1" fill="none" fill-rule="evenodd">
        <g id="no_logo">
            <g id="noLogo">
                <g id="Fill-1">
                    <mask id="mask-2" fill="white">
                        <use xlink:href="#path-1"></use>
                    </mask>
                    <use id="Mask" fill="#869099" xlink:href="#path-1"></use>
                    <g id="Page-1" mask="url(#mask-2)" fill="#FFFFFF">
                        <g transform="translate(15.000000, 16.000000)" id="Fill-1">
                            <path d="M24.2062732,22.93358 C24.1847407,23.0351994 23.7054898,22.93358 23.6004639,22.93358 L4.99224364,22.93358 C4.88765717,22.93358 4.7312169,23.0351994 4.70968439,22.93358 L1.78609691,9.09763584 L27.1307396,9.09763584 L24.2062732,22.93358 Z M12.9184044,2.51941286 C13.766961,1.67723634 15.1481177,1.67636407 15.9975532,2.51941286 L20.8154297,7.07873535 L8.28149414,7.07873535 L12.9184044,2.51941286 Z M28.5597951,7.94536738 C28.2517484,7.56854681 27.6448832,7.07873535 27.1307396,7.07873535 L23.4309082,7.07873535 L17.2402866,1.28515104 C15.7057658,-0.236523686 13.209313,-0.236959821 11.675671,1.28515104 L5.66711426,7.07873535 L1.78609691,7.07873535 C1.27195332,7.07873535 0.665088097,7.56898295 0.357041379,7.94536738 C0.0489946603,8.32218795 -0.067456667,8.82461538 0.038008686,9.324426 L2.99015969,23.2912106 C3.18131564,24.1957544 4.06063303,24.9044737 4.99224364,24.9044737 L23.9250323,24.9044737 C24.8562034,24.9044737 25.7355208,24.1957544 25.9266768,23.2912106 L28.8792672,9.32398986 C28.9842931,8.82505152 28.8678418,8.32218795 28.5597951,7.94536738 L28.5597951,7.94536738 Z"></path>
                        </g>
                    </g>
                </g>
            </g>
        </g>
    </g>
</svg>