<?xml version="1.0" encoding="utf-8"?>
<!-- Generator: Adobe Illustrator 21.0.0, SVG Export Plug-In . SVG Version: 6.00 Build 0)  -->
<svg version="1.1" id="Layer_1" xmlns="http://www.w3.org/2000/svg" xmlns:xlink="http://www.w3.org/1999/xlink" x="0px" y="0px"
	 viewBox="0 0 60 60" style="enable-background:new 0 0 60 60;" xml:space="preserve">
<style type="text/css">
	.st0{fill:#613191;}
</style>
<g id="Symbols">
	<path id="Oval-5" class="st0" d="M30,60c16.6,0,30-13.4,30-30S46.6,0,30,0S0,13.4,0,30S13.4,60,30,60z"/>
</g>
<g>
	<defs>
		<path id="SVGID_1_" d="M26.6,43.1c-2.2,0-4.3-0.4-6.2-1.1c2.2,2.4,4.8,4.3,7.3,4.4c5.3,0.2,10.5-4.4,13.7-9.9
			c0.2-0.7,0.5-1.4,0.8-2.2c0.1-0.4,0.2-0.9,0.2-1.3C40.1,38.9,33.9,43.1,26.6,43.1z M29.2,34.1c-4.4,1.8-8.9,2.6-12.9,2.5
			c0.5,0.8,1.1,1.6,1.7,2.5c2.6,1.6,5.8,2.5,9.1,2.5c6.8,0,12.6-3.7,15.3-8.9c-0.1-1.9-1.4-3.5-3.4-4.9
			C36.4,30.2,33.1,32.5,29.2,34.1z M14.7,22.9c-1.8,2.5-2.4,5.4-1.1,8.6c0.2,0.4,0.6,1.2,1.1,2.2c4.6,0.5,9.8-0.2,14.9-2.3
			c2.9-1.2,5.6-2.8,7.8-4.7c-4.9-2.5-12.6-3.9-19.8-3.9C16.5,22.8,15.6,22.8,14.7,22.9z M40.1,26.5c1.8,0.9,3.3,2,4.2,3.1
			c0.3-1.4,0.5-2.7,0.5-4c0-2.3-0.1-4.3-0.5-5.9C43.5,22,42,24.4,40.1,26.5z M28.1,22.7C28.1,22.7,28,22.7,28.1,22.7
			c3.8,0.8,7.4,1.8,10.4,3c2.5-2.2,4.3-4.8,5.6-7.4c-0.3-1-0.8-1.9-1.5-2.6C40.9,19.8,35.1,22.7,28.1,22.7z M16.3,21
			c3,0.3,6.3,0.8,9.4,1.3c7-0.1,14.3-3.1,16.1-7.2c-1.5-1.1-3.7-1.7-6.9-1.7C29.8,13.4,21.1,16.2,16.3,21z"/>
	</defs>
	<use xlink:href="#SVGID_1_"  style="overflow:visible;fill-rule:evenodd;clip-rule:evenodd;fill:#FFFFFF;"/>
	<clipPath id="SVGID_2_">
		<use xlink:href="#SVGID_1_"  style="overflow:visible;"/>
	</clipPath>
</g>
</svg>
