<?xml version="1.0" encoding="UTF-8"?>
<svg width="60px" height="60px" viewBox="0 0 60 60" version="1.1" xmlns="http://www.w3.org/2000/svg" xmlns:xlink="http://www.w3.org/1999/xlink">
    <!-- Generator: Sketch 41.2 (35397) - http://www.bohemiancoding.com/sketch -->
    <title>megafon</title>
    <desc>Created with Sketch.</desc>
    <defs></defs>
    <g id="Symbols" stroke="none" stroke-width="1" fill="none" fill-rule="evenodd">
        <g id="megafon">
            <path d="M0,30 C0,13.4314575 13.4315082,7.10542736e-15 29.9945354,7.10542736e-15 L30,7.10542736e-15 L30.0054646,7.10542736e-15 C46.5709891,7.10542736e-15 60,13.4278145 60,30 L60,30 C60,46.5685425 46.5721855,60 30,60 L30,60 C13.4314575,60 0,46.5721855 0,30 L0,30 Z" id="base" fill="#00985F" transform="translate(30.000000, 30.000000) rotate(-270.000000) translate(-30.000000, -30.000000) "></path>
            <g id="slice" transform="translate(15.000000, 15.000000)" fill="#FFFFFF">
                <path d="M16.8350525,-3.55271368e-15 L16.8350525,14.9429738 L16.8350525,15.5243754 L16.8350525,15.5341892 L16.8332006,15.5360458 C16.8271159,16.2094849 16.2805496,16.7511007 15.6072624,16.7511007 L15.0310661,16.7511007 L13.7598892,16.7511007 C13.6678248,16.7518965 13.59375,16.8264283 13.59375,16.9189963 L13.59375,29.9352819 C14.051162,29.9771895 14.5136005,30 14.9815947,30 C23.2761227,30 30,23.2584478 30,14.9424434 C30,7.25637897 24.2549686,0.915601294 16.8350525,-3.55271368e-15 L16.8350525,-3.55271368e-15 Z M16.4061179,23.4375 C15.3707786,23.4375 14.53125,22.5982948 14.53125,21.5625 C14.53125,20.5272337 15.3707786,19.6875 16.4061179,19.6875 C17.4417214,19.6875 18.28125,20.5272337 18.28125,21.5625 C18.28125,22.598559 17.4417214,23.4375 16.4061179,23.4375 L16.4061179,23.4375 Z M21.0936179,23.4375 C20.0582786,23.4375 19.21875,22.5982948 19.21875,21.5625 C19.21875,20.5272337 20.0582786,19.6875 21.0936179,19.6875 C22.1292214,19.6875 22.96875,20.5272337 22.96875,21.5625 C22.9684857,22.598559 22.1292214,23.4375 21.0936179,23.4375 L21.0936179,23.4375 Z M25.3125,23.4375 C24.2770877,23.4375 23.4375,22.5982948 23.4375,21.5625 C23.4375,20.5272337 24.2770877,19.6875 25.3125,19.6875 C26.3479123,19.6875 27.1875,20.5272337 27.1875,21.5625 C27.1872357,22.598559 26.3479123,23.4375 25.3125,23.4375 Z M15.0904506,14.9351876 C15.1804708,14.9351876 15.2530765,14.8659945 15.2587027,14.7791742 L15.2595065,0.00315709997 L15.46875,0.00315709997 C15.3824806,0.00157854998 15.2959432,-3.55271368e-15 15.2094059,-3.55271368e-15 C6.80938999,-3.55271368e-15 0,6.68673773 0,14.9349245 C0,22.0944379 5.1300834,28.0758269 11.9769818,29.53125 L11.9769818,16.1293606 L11.9775177,16.1288345 C11.9914494,15.4829444 12.5160317,14.9609706 13.1705541,14.9362399 L13.1718937,14.9351876 L13.803643,14.9351876 C13.803643,14.9351876 15.0904506,14.9351876 15.0904506,14.9351876 Z M12.1876321,12.1875 C11.1520286,12.1875 10.3125,11.3481765 10.3125,10.3127643 C10.3125,9.27735201 11.1520286,8.4375 12.1876321,8.4375 C13.2229714,8.4375 14.0625,9.27735201 14.0625,10.3127643 C14.0625,11.3481765 13.2229714,12.1875 12.1876321,12.1875 L12.1876321,12.1875 Z" id="shape"></path>
            </g>
        </g>
    </g>
</svg>