<svg xmlns="http://www.w3.org/2000/svg" width="120" height="120"><g fill="none" fill-rule="evenodd"><circle cx="60" cy="60" r="60" fill="#161616"/><g fill="#EE503B" fill-rule="nonzero"><path d="M48.317 49.899c-.53-.35-1.313-.769-1.515-.846-.852-.325-1.472-.223-2.06.185-.339.21-.675.57-1.077 1.038l-.002.001-9.16 10.096.943-3.54 1.678-4.73.001-.002-.014-.002.008-.024v-.001c.493-1.544.125-1.843-1.297-2.811l-.15-.102c-.944-.64-1.404-.29-1.73.669l-.761 1.61-8.003 6.954 2.322-6.59c.233-.726.19-1.106-.497-1.584L25.4 49.132c-.593-.402-1.092-.333-1.756.037l-1.96 1.122c-.605.338-.752.684-.254 1.022l.001.001 1.911 1.3-3.172 9.255c-.234.732-.238 1.253.282 1.607l1.807 1.23c.735.5.97.28 1.379-.103l7.6-7.056-1.178 3.061-.002.003c-.718 2.238-.597 2.473.934 3.518.196.134 1.055.751 1.26.808.742.205 1.208-.19 1.849-.972v-.002l10.746-12.167-.07 9.502-1.616-.699c-.597-.263-1.3-.549-1.325.411v1.623c0 .72.39 1.57 1.189 1.9l1.082.451c.844.364 1.237.466 2.091-.001l1.847-1.044c.817-.462 1.01-.864 1.06-1.536l.021-.83.095-9.514c.002-1.264-.323-1.776-.907-2.162"/><path d="M97.43 49.785c-.449-.526-.794-.709-1.548-.709-.851 0-1.433.403-1.433.403l-1.475.882c-.605.34-.751.684-.253 1.024v.001l1.912 1.3c.18.145.095 2.178-.555 3.928-.673 1.817-1.143 2.655-2.204 3.9-.94 1.104-2.45 2.164-3.51 1.592-1.137-.612-1.093-2.406.245-5.512.572-1.326 1.525-2.85 2.096-3.831.572-.98.274-1.835-.658-2.546l-1.314-.986c-.91-.595-2.136-.534-3.166.49l-8.565 9 1.443-4.682.389-.984v-.002c.495-1.544-.036-1.843-1.459-2.81l-.149-.103c-.944-.64-1.403-.29-1.73.67l-.018.038-8.042 7.515 2.09-6.375h.002c.402-1.253-.637-1.933-1.827-2.742-1.19-.81-1.783-.292-2.767.852v.001l-9.158 10.26 3.56-11.087c.36-1.125.127-1.525-.517-1.991l-1.384-.747h22.797c.52-.003.581-.31.312-.844l-.862-1.747c-.296-.584-.62-.883-1.236-.88H35c-.52.002-.581.318-.312.852l.86 1.745c.296.585.618.875 1.235.873h19.049l-4.503 14.059v.003c-.72 2.238-.598 2.474.932 3.517 1.53 1.045 1.922 1.285 3.11-.165l.001-.001 10.371-11.99-3.302 9.825c-.322 1.063-.234 1.45.262 1.786l1.556 1.06c.653.443.942.537 1.78-.253l8.199-7.8-2.11 5.202c-.424 1.33-.245 1.5.954 2.315a.023.023 0 0 1 .006.005l.748.509c.719.46 1.195.577 1.896-.223L86.35 52.954c-.62 1.194-1.355 2.377-1.78 3.656-.988 2.968-1.316 7.606 2.674 8.425.54.111 1.16.195 1.613.183 5.695-.2 8.778-5.941 9.429-10.498.413-2.896-.199-4.165-.857-4.936l.001.001zM31.015 74.738c0-.492.054-.938.162-1.338.109-.4.274-.741.496-1.024.22-.283.503-.501.841-.656.34-.153.74-.23 1.202-.23.329 0 .63.045.906.135.275.09.514.222.717.396a2.022 2.022 0 0 1 .704 1.452h-1.183c-.068-.654-.479-.982-1.231-.982-.4 0-.725.115-.973.347-.25.233-.374.542-.374.93v1.894a1.269 1.269 0 0 0 .391.927c.12.114.265.204.429.267.163.064.343.096.54.096.4 0 .718-.1.956-.3.239-.2.358-.515.358-.944v-.267H33.69v-1h2.457v3.378h-1.102l-.027-.564c-.317.468-.811.702-1.484.702-.418 0-.785-.08-1.1-.242a2.232 2.232 0 0 1-.79-.67 2.989 2.989 0 0 1-.473-1.014 4.958 4.958 0 0 1-.157-1.286l.002-.007zm13.571.761h1.505l-.717-2.44h-.04l-.748 2.44zm-1.979 2.32l2.108-6.19h1.26l2.099 6.19h-1.271l-.41-1.32H44.28l-.4 1.32h-1.272zm12.611 0v-6.19h1.928l1.204 4.862h.037l1.182-4.862h1.938v6.19H60.37v-4.908l-.107-.017-1.27 4.924h-1.334l-1.269-4.91h-.032v4.906l-1.139.005zm14.008-.005v-6.191h4.257v1.004H70.41v1.52h2.658v1H70.41v1.666h3.075v1h-4.258zm11.35-1.85h1.182c.047.364.186.623.417.779.23.155.528.233.893.233.347 0 .638-.072.875-.216a.688.688 0 0 0 .355-.624.694.694 0 0 0-.204-.525c-.137-.13-.345-.231-.627-.303l-1.21-.32c-.51-.134-.886-.353-1.132-.657-.246-.303-.369-.682-.369-1.135a1.5 1.5 0 0 1 .16-.69c.107-.21.257-.39.45-.542.194-.15.431-.268.71-.353.277-.084.59-.126.938-.126.314 0 .605.037.877.109.27.073.507.185.706.336.2.151.364.345.49.582.127.237.207.516.237.836h-1.183a1.045 1.045 0 0 0-.132-.427.881.881 0 0 0-.61-.422 2.024 2.024 0 0 0-.405-.04c-.329 0-.587.065-.776.195a.614.614 0 0 0-.283.533c0 .236.073.416.221.538.147.123.369.224.665.304l1.054.274c.526.14.926.35 1.197.633.27.282.405.679.405 1.19 0 .284-.057.538-.172.763a1.63 1.63 0 0 1-.491.574 2.315 2.315 0 0 1-.76.36 3.562 3.562 0 0 1-.97.124c-.348 0-.667-.036-.96-.108a2.268 2.268 0 0 1-.775-.347 1.794 1.794 0 0 1-.538-.616 2.215 2.215 0 0 1-.24-.916l.004.003z"/></g></g></svg>