<?xml version="1.0" encoding="utf-8"?>
<!-- Generator: Adobe Illustrator 21.0.2, SVG Export Plug-In . SVG Version: 6.00 Build 0)  -->
<svg version="1.1" id="Layer_1" xmlns="http://www.w3.org/2000/svg" xmlns:xlink="http://www.w3.org/1999/xlink" x="0px" y="0px"
	 viewBox="0 0 60 60" style="enable-background:new 0 0 60 60;" xml:space="preserve">
<style type="text/css">
	.st0{fill:#FFFFFF;}
</style>
<g>
	<path d="M60,30L60,30c0,16.6-13.4,30-30,30l0,0C13.4,60,0,46.6,0,30l0,0C0,13.4,13.4,0,30,0l0,0C46.6,0,60,13.4,60,30z"/>
	<path class="st0" d="M36.5,28.8c0-3.5,2.8-5.2,3-5.2c-1.6-2.4-4.1-2.7-5-2.7c-2.1-0.2-4.2,1.3-5.3,1.3c-1.1,0-2.8-1.2-4.6-1.2
		c-2.3,0-4.5,1.4-5.6,3.4c-2.4,4.2-0.6,10.4,1.7,13.8c1.2,1.7,2.5,3.5,4.3,3.5c1.8-0.1,2.4-1.1,4.5-1.1c2.1,0,2.7,1.1,4.5,1.1
		c1.9,0,3.1-1.7,4.2-3.4c1.4-1.9,1.9-3.8,1.9-3.9C40.2,34.4,36.6,33,36.5,28.8z M33.1,18.6c0.9-1.2,1.6-2.8,1.4-4.4
		c-1.4,0.1-3.1,0.9-4,2.1c-0.9,1-1.6,2.7-1.4,4.2C30.5,20.7,32.1,19.8,33.1,18.6z"/>
</g>
</svg>
