<?xml version="1.0" encoding="UTF-8"?>
<svg width="60px" height="60px" viewBox="0 0 60 60" version="1.1" xmlns="http://www.w3.org/2000/svg" xmlns:xlink="http://www.w3.org/1999/xlink">
    <!-- Generator: Sketch 41.2 (35397) - http://www.bohemiancoding.com/sketch -->
    <title>vk</title>
    <desc>Created with Sketch.</desc>
    <defs></defs>
    <g id="Symbols" stroke="none" stroke-width="1" fill="none" fill-rule="evenodd">
        <g id="vk">
            <rect id="base" fill="#4C77A0" transform="translate(30.000000, 30.000000) rotate(-270.000000) translate(-30.000000, -30.000000) " x="0" y="7.10542736e-15" width="60" height="60" rx="30"></rect>
            <path d="M28.4921457,41.9161253 L30.5875554,41.9161253 C30.5875554,41.9161253 31.2203508,41.846377 31.5439085,41.4982531 C31.8412953,41.1782754 31.8317897,40.5778234 31.8317897,40.5778234 C31.8317897,40.5778234 31.7908049,37.7661672 33.0955289,37.352122 C34.3822295,36.9440022 36.0340898,40.0694637 37.7848322,41.2713553 C39.1088141,42.1805513 40.1149169,41.9815528 40.1149169,41.9815528 L44.7966898,41.9161253 C44.7966898,41.9161253 47.2456551,41.7650247 46.0843779,39.8394797 C45.9893228,39.6822067 45.4078818,38.4151344 42.6032622,35.8118588 C39.6674172,33.0871102 40.06097,33.5279437 43.5971437,28.814815 C45.7506975,25.9445209 46.6115018,24.1922972 46.3425081,23.4418556 C46.0862297,22.7268436 44.5021424,22.9157194 44.5021424,22.9157194 L39.2309044,22.9483097 C39.2309044,22.9483097 38.8398205,22.8951035 38.550211,23.0684248 C38.2668974,23.2379192 38.0850582,23.633941 38.0850582,23.633941 C38.0850582,23.633941 37.2504249,25.8548975 36.1381567,27.7440253 C33.7909126,31.7296738 32.8522125,31.9406468 32.4685355,31.6927628 C31.5758816,31.1158894 31.7989525,29.3757636 31.7989525,28.139183 C31.7989525,24.2764889 32.3848377,22.6659837 30.6580443,22.2490991 C30.0851212,22.1108371 29.6630518,22.019362 28.1975983,22.0044248 C26.3166181,21.9852903 24.7250005,22.0102269 23.8235817,22.4518011 C23.2238704,22.7454843 22.7611865,23.3997598 23.0431422,23.4374115 C23.3916365,23.483828 24.1804705,23.6503596 24.5987129,24.2194558 C25.1390457,24.9545898 25.1201581,26.6048453 25.1201581,26.6048453 C25.1201581,26.6048453 25.4306303,31.1518128 24.3952703,31.7164648 C23.6848259,32.1038453 22.710079,31.3130361 20.6173851,27.6969915 C19.545361,25.8447748 18.7356642,23.7971395 18.7356642,23.7971395 C18.7356642,23.7971395 18.5797492,23.4145736 18.30125,23.209773 C17.9634958,22.9616421 17.4915533,22.8830056 17.4915533,22.8830056 L12.4822724,22.9157194 C12.4822724,22.9157194 11.7304728,22.9367056 11.4541958,23.2637199 C11.2084104,23.5548107 11.4345675,24.1561269 11.4345675,24.1561269 C11.4345675,24.1561269 15.3560229,33.3310438 19.7967015,37.9546726 C23.8688872,42.1943775 28.4921457,41.9161253 28.4921457,41.9161253" id="Fill-4" fill="#FFFFFF"></path>
        </g>
    </g>
</svg>