<?xml version="1.0" encoding="UTF-8"?>
<svg width="60px" height="60px" viewBox="0 0 60 60" version="1.1" xmlns="http://www.w3.org/2000/svg" xmlns:xlink="http://www.w3.org/1999/xlink">
    <!-- Generator: Sketch 42 (36781) - http://www.bohemiancoding.com/sketch -->
    <title>blizzard</title>
    <desc>Created with Sketch.</desc>
    <defs></defs>
    <g id="Page-1" stroke="none" stroke-width="1" fill="none" fill-rule="evenodd">
        <g id="blizzard" fill-rule="nonzero">
            <path d="M29.7026612,59.4053225 C46.1069881,59.4053225 59.4053225,46.1069881 59.4053225,29.7026612 C59.4053225,13.2983344 46.1069881,0 29.7026612,0 C13.2983344,0 0,13.2983344 0,29.7026612 C0,46.1069881 13.2983344,59.4053225 29.7026612,59.4053225 Z" id="path-1" fill="#105C9A"></path>
            <path d="M18.8105422,19.9677598 C18.8103193,19.9601117 18.8101708,19.9524636 18.8099479,19.9448155 C18.6281165,19.9602602 18.441977,19.9572901 18.2661621,19.9984265 C18.1688586,20.0212223 18.0373873,20.1044604 18.0162182,20.1852481 C17.9969061,20.2592045 18.0846278,20.3918211 18.1613565,20.4540455 C18.3320463,20.5925282 18.5239052,20.6860875 18.7599592,20.7005669 C19.1206509,20.7226944 19.273514,20.8962989 19.3014424,21.2507106 C19.3068646,21.3197663 19.3106528,21.389119 19.3121383,21.4583232 C19.3402895,22.8125572 19.3737144,24.1666428 19.3941407,25.5209511 C19.412413,26.736851 19.4141214,27.9530479 19.4274171,29.1690221 C19.4355133,29.9123732 19.4594307,30.65565 19.460322,31.3990011 C19.4606934,31.7298744 19.4299425,32.0616387 19.3980775,32.391621 C19.3735659,32.6452707 19.3159265,32.8957275 19.2934204,33.1494515 C19.2868097,33.2235564 19.3321933,33.3206056 19.3854503,33.3777065 C19.4854278,33.485077 19.4846108,33.5740326 19.4158298,33.6978131 C19.363687,33.7914467 19.3291479,33.9064652 19.3253597,34.0133902 C19.3043392,34.6114273 19.3031508,35.2102069 19.2779707,35.8079471 C19.267349,36.0598889 19.1493963,36.2684668 18.9423105,36.4313046 C18.7657528,36.5701585 18.5952116,36.7229721 18.4500733,36.8934579 C18.3292237,37.0353563 18.3624258,37.2342069 18.4946398,37.3334095 C18.6460917,37.446943 18.753497,37.3245734 18.8300029,37.2290092 C19.0275068,36.9824136 19.2889638,36.9174418 19.5824343,36.9123926 C19.644976,36.9112788 19.7072205,36.8947203 19.7698365,36.8926412 C20.1539999,36.8799438 20.5482651,36.7624006 20.9094024,37.0026847 C20.941416,37.0239955 20.9934103,37.019466 21.0361199,37.019763 C21.2146831,37.0210996 21.3942862,37.0075112 21.5715123,37.0225104 C21.764931,37.0388462 21.9096237,36.9244216 21.8606005,36.7360407 C21.8265814,36.6052804 21.7520068,36.457219 21.6486867,36.3782134 C21.4350645,36.2149301 21.1955195,36.082462 20.9566429,35.9563054 C20.7092987,35.8256936 20.5106063,35.6799341 20.5355636,35.3579713 C20.5435856,35.2540907 20.500356,35.1471658 20.4967164,35.0411319 C20.494711,34.983734 20.5095665,34.9091835 20.5463338,34.8698292 C20.7341074,34.6688994 20.763967,34.4318082 20.7481459,34.1712529 C20.7341074,33.9389882 20.7471803,33.7051642 20.7438378,33.4720826 C20.7428722,33.4039923 20.7453976,33.3253579 20.713904,33.2701133 C20.5854781,33.0448284 20.5903061,32.8009801 20.5827298,32.55483 C20.5776047,32.3864232 20.5813928,32.2046508 20.5198168,32.0538421 C20.3806207,31.7129446 20.3899796,31.5942877 20.6441573,31.320144 C20.702688,31.2571028 20.7613673,31.1616129 20.7600303,31.0820875 C20.7567621,30.8888058 20.7265311,30.6946331 20.6924377,30.5035048 C20.584661,29.8993046 20.5721824,29.2900552 20.5897119,28.6795435 C20.5912717,28.62519 20.6371753,28.5527186 20.6841929,28.5224232 C20.8844452,28.3935193 20.9242579,28.3154789 20.8767946,28.0851448 C20.8427012,27.9194111 20.7832792,27.7539745 20.780011,27.5874983 C20.7479973,25.9686993 20.728091,24.3496032 20.6965973,22.7308042 C20.6928091,22.5358147 20.7376728,22.3805508 20.8668414,22.2333062 C21.0292864,22.0481182 21.0081915,21.9561924 20.8380217,21.7810286 C20.7748115,21.7158341 20.7121956,21.6193788 20.7070704,21.5337646 C20.6837473,21.1436371 20.9296802,20.8256839 21.3109468,20.7226202 C21.4843848,20.675692 21.6263292,20.4378583 21.608354,20.2240084 C21.5965439,20.0830011 21.4753972,20.0025847 21.2463253,20.0015451 C21.0133167,20.0005056 20.7800852,20.0204055 20.5472994,20.0158018 C19.9682318,20.004441 19.3894613,19.9843926 18.8105422,19.9677598 M27.5780394,32.7729123 C27.6254284,33.1147751 27.5959402,33.1415064 27.2784038,33.078391 C27.2352485,33.0698518 27.1931332,33.0559664 27.1499036,33.0483183 C26.9734202,33.0172061 26.8718828,33.0888607 26.8929034,33.269445 C26.922763,33.5256936 26.7958226,33.6721956 26.5986901,33.7888478 C26.4957414,33.8497356 26.3945011,33.9141133 26.28821,33.9687638 C25.995408,34.1194241 25.7860939,34.3426299 25.6690325,34.6521924 C25.5304306,35.0187073 25.2637742,35.2341165 24.8813192,35.309855 C24.548853,35.3756436 24.2464692,35.504102 23.9794414,35.7183974 C23.8877829,35.7919826 23.7776294,35.8487864 23.6676243,35.8920019 C23.4903981,35.9616517 23.3386491,35.8261391 23.3714055,35.6370899 C23.3789076,35.5940229 23.3943573,35.5520697 23.4085443,35.5104136 C23.7736184,34.4396791 24.1407722,33.3696872 24.5035437,32.2982102 C24.7558645,31.553077 25.005437,30.8066073 25.41894,30.1308268 C25.4720485,30.0440245 25.5746257,29.9668752 25.671038,29.9327929 C25.7732438,29.8967057 25.8223413,29.8500746 25.8187017,29.7502037 C25.8129823,29.593232 25.807263,29.4356662 25.789065,29.2798825 C25.744647,28.8985911 26.0849867,28.4794305 26.4634307,28.436809 C26.5284235,28.4294579 26.6245387,28.3532739 26.6371658,28.2942424 C26.6707393,28.1365282 26.6806925,27.9702005 26.6745274,27.808328 C26.66398,27.532922 26.7336524,27.2903361 26.8876297,27.060893 C26.9738659,26.9323603 27.0502975,26.7855613 27.0846137,26.6363119 C27.1594112,26.3113046 27.2911052,26.0180035 27.4806615,25.7464588 C27.6545452,25.4974127 27.7515517,25.2251254 27.7370675,24.9150431 C27.7278571,24.7174547 27.6920554,24.5102876 27.8581399,24.3456678 C27.880646,24.3233918 27.8836171,24.2746815 27.8841371,24.2380003 C27.8982498,23.2237727 27.9120654,22.2096194 27.9203102,21.1953175 C27.9207559,21.1423748 27.8841371,21.0616613 27.8417246,21.0409446 C27.7022314,20.9726315 27.7114418,20.864964 27.7158242,20.7388817 C27.7251089,20.4711981 27.7186467,20.2029204 27.7186467,19.9041989 C27.1620109,19.9041989 26.6148826,19.9033821 26.0677543,19.9043474 C25.0219266,19.9062037 23.9760989,19.9041989 22.9303455,19.9141488 C22.56542,19.9175645 22.4665566,20.0343651 22.4655167,20.4000633 C22.464254,20.853826 22.4671508,21.3075887 22.4633627,21.7612772 C22.4623971,21.8787461 22.4676708,21.9703748 22.6182313,21.990943 C22.6623522,21.9970318 22.7146436,22.0709882 22.7311332,22.1237824 C22.766415,22.2367961 22.7973145,22.3558244 22.8003599,22.4731448 C22.806822,22.7221165 22.753565,22.9667073 22.7208829,23.2104814 C22.6779505,23.5312562 22.7684205,23.8862618 22.8712206,24.2040665 C22.9353964,24.4024717 23.0225982,24.5815709 22.995784,24.7969801 C22.9908817,24.8363345 23.0367852,24.9147461 23.0682789,24.9198696 C23.1671423,24.9360568 23.2703138,24.9258099 23.388118,24.9258099 C23.3460769,24.7161924 23.2720965,24.5360536 23.5016141,24.4338066 C23.5325878,24.4199955 23.5419468,24.3324507 23.5421696,24.2789882 C23.5432837,23.8884894 23.5254571,23.4973224 23.5441008,23.1078631 C23.5518257,22.9463619 23.6127332,22.7764701 23.6921359,22.6341262 C23.728829,22.5683377 23.870402,22.5248994 23.9597579,22.5318793 C24.1608272,22.5475467 24.1992286,22.5197017 24.2114844,22.3177324 C24.2192093,22.1903877 24.2329506,22.0421036 24.3021773,21.9441634 C24.4568231,21.7254127 24.6321924,21.5150528 24.8299192,21.3351367 C24.9484661,21.2271722 25.1216813,21.1296775 25.2761786,21.1199503 C25.8291006,21.0850512 26.3845479,21.0854967 26.9390297,21.0852739 C26.9974119,21.0852739 27.098355,21.1614579 27.1074912,21.2146977 C27.204869,21.7817711 27.2078401,22.3287961 26.76834,22.7879793 C26.5204016,23.0471238 26.3038083,23.3358212 26.0634462,23.6024652 C25.9035266,23.7798567 25.870696,23.9738809 25.9257356,24.1971609 C25.9728276,24.3884378 26.0156114,24.5924862 25.8984758,24.7653482 C25.6741576,25.0964442 25.4626895,25.4464749 25.18556,25.7296032 C24.5778212,26.3504362 24.3121305,27.0854709 24.2987605,27.9373062 C24.2966808,28.0703684 24.2598391,28.2796888 24.1744942,28.3211964 C23.842028,28.4829947 23.7238524,28.7762957 23.6455639,29.085784 C23.5469976,29.475466 23.3544703,29.7990625 23.1104686,30.1121892 C22.9686727,30.2941101 22.8600047,30.5222166 22.8038509,30.7463877 C22.6696314,31.282052 22.5691339,31.8264781 22.4668537,32.3695677 C22.3826973,32.8164249 22.2492206,33.2692965 22.6220195,33.6713046 C22.7208829,33.7779325 22.6084267,33.8664426 22.5088948,33.9196081 C22.4039407,33.9755209 22.3426617,34.0454676 22.3691788,34.1754111 C22.3993355,34.323027 22.4866858,34.3903748 22.6268475,34.4406444 C22.7104098,34.4706428 22.8135813,34.5739293 22.8219003,34.6533062 C22.8325963,34.7551077 22.7875098,34.9159406 22.711821,34.962349 C22.5643059,35.0529382 22.5457365,35.1736 22.5417998,35.3106718 C22.5350405,35.5499906 22.55309,35.7908688 22.5316237,36.0284055 C22.5229333,36.1247122 22.4376627,36.2140391 22.3874511,36.3066331 C22.3601912,36.3569027 22.3117622,36.406801 22.3102024,36.4579616 C22.3035174,36.6839148 22.3851484,36.7684152 22.6154831,36.7581682 C22.9421557,36.7436888 23.2680112,36.6997308 23.5945352,36.6969091 C23.7126365,36.6958696 23.9018214,36.7462877 23.9371032,36.8265556 C24.049188,37.0818389 24.2355504,37.0921601 24.460537,37.0801311 C24.5712848,37.0742651 24.6319696,37.0355048 24.6715595,36.933035 C24.7495509,36.7313627 24.9355418,36.6263684 25.1473814,36.6556242 C25.2472104,36.6693611 25.3260931,36.7003248 25.330624,36.8283377 C25.3321096,36.8689543 25.3948741,36.9412029 25.4303788,36.9416484 C26.0417571,36.9495935 26.6532841,36.9501876 27.2647367,36.9460294 C27.3075949,36.9457324 27.387666,36.894349 27.3869975,36.8685088 C27.3797183,36.6115177 27.5406778,36.5971125 27.72808,36.6217646 C27.8501922,36.6378776 27.9041177,36.580257 27.9151851,36.4685798 C27.9220186,36.3998211 27.9272923,36.3303199 27.9260296,36.2613385 C27.9151851,35.6504555 27.9013695,35.0396468 27.891342,34.4288381 C27.8868853,34.1589269 27.9451932,33.9127025 28.1119463,33.6851157 C28.3020967,33.4256 28.437059,33.1363086 28.378454,32.7953369 C28.3635985,32.7085346 28.3549823,32.6206928 28.3440635,32.5332965 C28.3199976,32.3412772 28.2171232,32.2763054 27.9801036,32.2783103 C27.7857936,32.2800181 27.8221896,32.4196888 27.8146133,32.5314402 C27.8048087,32.6756404 27.8124592,32.8275629 27.5780394,32.7729123 M34.33009,35.0943716 C34.2638344,35.1736743 34.2105774,35.2149592 34.1876999,35.2690157 C34.1059204,35.4625944 33.9503089,35.5734547 33.7732313,35.6638211 C33.6611465,35.7210705 33.5497302,35.779805 33.4356399,35.8328962 C32.9339694,36.0667203 32.4308877,36.2975742 31.9295144,36.5319923 C31.7551107,36.6135225 31.6509736,36.7358179 31.689895,36.94796 C31.7205717,37.1147332 31.6360438,37.2234402 31.4711477,37.2368058 C31.1913442,37.2593789 30.9099809,37.2736355 30.6293604,37.272596 C30.3750341,37.2717049 30.2766907,37.1240891 30.3771139,36.8859584 C30.5475809,36.4817227 30.705792,36.0676113 30.9243165,35.6895128 C31.202263,35.2086476 31.3009036,34.7131545 31.2395503,34.1682828 C31.2037486,33.8503296 31.2523261,33.5382425 31.4383913,33.2646186 C31.693906,32.888822 31.7261425,32.4709236 31.6929404,32.0343877 C31.6648635,31.6642344 31.64518,31.2928187 31.6392378,30.9216258 C31.6337412,30.5825847 31.7084644,30.2748785 32.0295662,30.0751367 C32.2381375,29.945416 32.2575982,29.740031 32.2301155,29.5083603 C32.2143687,29.3757437 32.2217964,29.1941198 32.2997879,29.1062037 C32.4597074,28.9259164 32.5263343,28.722462 32.5862763,28.5031916 C32.671844,28.1902876 32.7046004,27.8577065 32.917257,27.5891319 C32.9454082,27.5535645 32.9547671,27.4943102 32.9543215,27.446194 C32.9513504,27.1377453 32.9474879,26.829148 32.9357521,26.520922 C32.9159943,25.9990689 32.8601376,25.475508 33.1731431,25.0019939 C33.2348677,24.9086573 33.2453409,24.7755952 33.2603449,24.658349 C33.3020146,24.334604 33.3343253,24.0095968 33.3687901,23.6849608 C33.3829028,23.5519729 33.4602258,23.4757889 33.5867204,23.4649479 C33.736761,23.452102 33.7730827,23.3527509 33.7822189,23.2337969 C33.7874183,23.1660778 33.7695174,23.0967251 33.7627582,23.0280407 C33.7183402,22.5736839 33.7778365,22.5111625 34.0805174,22.3734224 C34.2127314,22.3132772 34.2810668,22.2069462 34.2845578,22.0599245 C34.2874546,21.9402279 34.2907229,21.8205314 34.2969622,21.7010576 C34.3082524,21.4855742 34.3503677,21.2912529 34.4910494,21.1054709 C34.674812,20.8626621 34.8394853,20.5960923 34.960112,20.3171964 C35.1475885,19.8837049 35.0293386,19.7245798 34.5533682,19.7244313 C32.939466,19.723763 31.325638,19.728738 29.7117358,19.7315596 C29.4847436,19.7320052 29.2578258,19.7315596 29.0308336,19.7334902 C28.8992138,19.734604 28.8135718,19.7857646 28.8160973,19.9347913 C28.8235993,20.3757081 28.8334039,20.816625 28.8339982,21.2576161 C28.8346667,21.7987751 28.8303586,22.3400084 28.8179542,22.8810189 C28.8166172,22.9387138 28.7580865,23.0266299 28.7062408,23.0451932 C28.5950473,23.0850673 28.5791519,23.1561278 28.5896994,23.2499842 C28.5987612,23.3308462 28.6249069,23.4105944 28.6269124,23.4912336 C28.632706,23.7230528 28.618519,23.95606 28.637237,24.1864684 C28.6434763,24.2636178 28.7098804,24.3663102 28.7771016,24.3988332 C28.8343695,24.426604 28.9387295,24.3836113 29.0106301,24.3482667 C29.1109048,24.2989624 29.1928329,24.2062198 29.2959301,24.1697614 C29.5993539,24.0625395 29.7151525,23.8402247 29.7470176,23.5392755 C29.7978234,23.0594499 29.8094107,22.5761343 29.963908,22.1078922 C30.1371232,21.5830689 30.4548082,21.3535516 30.9994854,21.4404281 C31.084236,21.4539422 31.192087,21.5211416 31.2293743,21.5941327 C31.3278663,21.7868203 31.4678052,21.811621 31.6537962,21.7662521 C31.7817763,21.7350657 31.9123562,21.7031367 32.0428619,21.6977905 C32.1485588,21.6934095 32.2651003,21.7150173 32.2537358,21.8733256 C32.2170427,22.3832239 32.0748012,22.8372094 31.7694463,23.2729285 C31.321627,23.9118793 30.94452,24.6069656 30.9807674,25.432144 C30.9939145,25.7326476 30.9044844,25.9755306 30.6818004,26.1722279 C30.4552539,26.3721924 30.3970946,26.6187138 30.4642415,26.9074854 C30.5105164,27.1067073 30.4770915,27.2816484 30.2833757,27.3992659 C30.1360833,27.4888155 30.1096405,27.6141553 30.2237308,27.7458809 C30.3984316,27.947776 30.3809021,28.1632594 30.2737196,28.3788914 C30.1985507,28.5299971 30.0851289,28.6622425 30.011817,28.8140907 C29.3562435,30.172186 29.0683438,31.5953272 29.2786235,33.1011868 C29.3043235,33.285558 29.3303206,33.4827009 29.4146256,33.6433111 C29.5870238,33.971734 29.6221571,34.3124087 29.5909605,34.6681569 C29.551742,35.1144943 29.4006615,35.5488768 29.4590436,36.006575 C29.4772416,36.1490673 29.4582265,36.2962376 29.2377708,36.2325282 C29.2333142,36.2947525 29.2202413,36.3400471 29.2286347,36.381035 C29.2912507,36.6874789 29.2914735,36.9515241 28.9156292,37.072186 C28.7932198,37.111466 28.7719021,37.3438793 28.8706913,37.3883571 C29.0064706,37.4493934 28.9919122,37.5564668 28.9572989,37.6377743 C28.918006,37.7299971 28.8278331,37.8014289 28.7561553,37.8785782 C28.7187937,37.9187493 28.6386482,37.9509753 28.6376826,37.988399 C28.6283979,38.339395 28.623867,38.6911335 28.6395396,39.0417582 C28.6423621,39.1043538 28.7335007,39.1916016 28.8025788,39.2174418 C29.0353646,39.3044668 29.2737212,39.2498906 29.4756075,39.1362828 C29.7292653,38.9934935 29.9888652,38.9435209 30.2715655,38.9522086 C30.4857077,38.9588171 30.7013353,38.9671335 30.9142148,38.9494612 C31.1666841,38.928596 31.4304436,38.9467881 31.6402776,38.7442247 C31.8712065,38.5213159 32.4632727,38.4618389 32.7444874,38.6160633 C32.7710045,38.6306169 32.8084404,38.6511109 32.8134913,38.674575 C32.8446136,38.8218938 32.9532073,38.8094192 33.0626181,38.8077856 C33.7620154,38.7969446 34.4614126,38.7812029 35.1608099,38.7815742 C35.4426931,38.7816484 35.5168964,38.7414031 35.5310091,38.4669624 C35.5488357,38.1213869 35.5680736,37.7750689 35.5635427,37.4294192 C35.5594574,37.1125798 35.5738672,36.7921763 35.4084512,36.4936775 C35.3537086,36.3947719 35.3750263,36.2487897 35.3792601,36.1250092 C35.3807457,36.0814224 35.4305116,36.0078373 35.4662391,36.002491 C35.6499274,35.9753885 35.6243017,35.8527219 35.6020927,35.7330253 C35.5238785,35.3119341 35.5036007,35.2963409 35.0746479,35.3105233 C35.012032,35.3126024 34.9497131,35.3235177 34.88732,35.3313885 C34.670801,35.3585653 34.4518308,35.3935387 34.33009,35.0943716 M26.6313722,40.7333256 L26.6313722,40.7257517 C26.9024109,40.7257517 27.1737467,40.7329543 27.4444141,40.7226331 C27.5718,40.7177324 27.6979233,40.6792691 27.8246408,40.6560278 C27.7698239,40.5280149 27.7164184,40.3994822 27.6598932,40.2723603 C27.5997284,40.1368478 27.4967797,40.0064588 27.4836326,39.8671593 C27.4594924,39.6120988 27.4837069,39.351989 27.4949971,39.0942554 C27.5090355,38.7739261 27.5340671,38.4540423 27.5469171,38.1336387 C27.5533049,37.9751077 27.4953685,37.8725637 27.3066292,37.8730092 C27.0615877,37.873529 26.8164718,37.8433078 26.5712817,37.8425653 C25.3483764,37.8387041 24.1254711,37.837219 22.9025657,37.8417485 C22.5880747,37.8429366 22.2720238,37.8542231 21.9599096,37.8891964 C21.8041496,37.906646 21.6310087,37.9557275 21.5088964,38.0476533 C21.2787103,38.221035 21.0280979,38.2854128 20.7528997,38.296625 C20.3651709,38.3125153 19.985687,38.2786557 19.6287835,38.1088381 C19.3555907,37.9788203 19.1222107,38.0098583 18.9267122,38.2622457 C18.868033,38.3379842 18.777043,38.4104555 18.6870186,38.43637 C18.3010726,38.5476759 17.9068074,38.5535419 17.5088284,38.5006734 C17.3350932,38.4775806 17.2688377,38.4042182 17.2929036,38.2273466 C17.3008513,38.1688349 17.2593302,38.0554499 17.2218943,38.0467622 C16.9962391,37.9943393 17.0821782,37.8868203 17.1802989,37.8061069 C17.31281,37.6971028 17.3472748,37.565303 17.3429667,37.4063264 C17.3353161,37.1234208 17.3303395,36.8402925 17.331825,36.5572384 C17.3320479,36.5073401 17.3578222,36.4246218 17.3909499,36.4133353 C17.5750097,36.3508139 17.5262093,36.2093611 17.5132108,36.0843926 C17.5002865,35.9597211 17.4502234,35.8354951 17.4573541,35.7134967 C17.4622564,35.6297388 17.517296,35.5234079 17.5844429,35.4737324 C17.7594408,35.3439374 17.7791986,35.1231819 17.6304207,34.9639083 C17.5727813,34.9022037 17.5289576,34.7793885 17.5499039,34.7040956 C17.5793178,34.5985072 17.6553037,34.4802957 17.7463679,34.4227493 C17.9350329,34.3033498 17.9625898,34.1491997 17.9287936,33.9536161 C17.9106698,33.8487703 17.8961857,33.7400633 17.9036878,33.6347719 C17.9154979,33.4672562 17.8840785,33.3284023 17.7477049,33.2153143 C17.7053667,33.1801924 17.6752843,33.1076468 17.6728332,33.0508429 C17.6562693,32.6593789 17.564388,32.2614547 17.7653087,31.8855096 C17.7997735,31.8210576 17.8209426,31.7418292 17.8227995,31.6687638 C17.8508022,30.5991432 17.8789533,29.5294483 17.8945516,28.4596048 C17.8970771,28.2848123 17.8967057,28.0882634 17.7105662,27.9718341 C17.536831,27.863127 17.492933,27.6925669 17.4855052,27.5005475 C17.473398,27.1860843 17.438859,26.871918 17.4391561,26.5576775 C17.439676,25.7959858 17.4527489,25.0342941 17.4664159,24.2726767 C17.4684957,24.1589947 17.4632963,24.0287542 17.6312378,23.9968994 C17.6646627,23.9905879 17.7023214,23.9063845 17.7047725,23.8564119 C17.7126459,23.6996629 17.7142058,23.5412804 17.6997217,23.3851997 C17.6880601,23.2585233 17.6385912,23.1594692 17.4964983,23.0997695 C17.3170438,23.0244765 17.2631183,22.6306363 17.4145702,22.5502941 C17.5429218,22.482278 17.557703,22.3895354 17.5551776,22.2727348 C17.5478984,21.9328768 17.5340085,21.5930931 17.5343799,21.2533094 C17.5347513,20.9640181 17.4378933,20.7292287 17.2147636,20.5393627 C17.1103294,20.4505556 17.0214192,20.340215 16.939194,20.2294289 C16.8287433,20.0804765 16.7003174,20.0089705 16.5057846,20.0231529 C16.4146461,20.0297614 16.2731474,19.9826105 16.2311063,19.913332 C16.0646503,19.6393369 15.8222827,19.6371835 15.5548093,19.6687412 C15.3425984,19.6937646 15.1293476,19.7094321 14.9164682,19.7282925 C14.7914591,19.7394305 14.7078969,19.6960665 14.644761,19.5752562 C14.5485716,19.3908849 14.3180141,19.3888801 14.1961247,19.5578809 C14.0722298,19.7294805 14.0821829,19.8831851 14.2464849,20.0482505 C14.4992513,20.3021973 14.7253521,20.6093837 15.027216,20.7796468 C15.2857761,20.9254063 15.4444329,21.0833433 15.5737501,21.3402602 C15.6482505,21.4882473 15.7249049,21.6183393 15.7319612,21.7865233 C15.74288,22.045148 15.7133919,22.2807542 15.5233157,22.4868817 C15.4322514,22.585713 15.3365819,22.7556048 15.5031122,22.8654257 C15.6625118,22.97042 15.6876918,23.1080116 15.6910343,23.267508 C15.6950453,23.4627945 15.6764016,23.6597889 15.6960109,23.8531448 C15.7207453,24.0965475 15.6311666,24.2430496 15.4078141,24.3399503 C15.3314568,24.3730673 15.2374214,24.4788784 15.2363073,24.5527606 C15.2308107,24.9111077 15.2494544,25.270123 15.2716634,25.628173 C15.2756744,25.692625 15.3359877,25.7540326 15.3717152,25.8160342 C15.4059571,25.8756597 15.4712471,25.9336516 15.4726584,25.9934999 C15.4830572,26.4402086 15.4800861,26.8872142 15.4829087,27.3340713 C15.4852113,27.70519 15.4835772,28.0764571 15.4985812,28.447056 C15.5014038,28.5180423 15.5586718,28.604399 15.6166825,28.6522182 C15.7668717,28.776073 15.8163405,29.1968672 15.6525586,29.2991141 C15.4930847,29.3986137 15.4955359,29.5254386 15.4998439,29.6683022 C15.5065289,29.8882408 15.5245784,30.1078825 15.5304463,30.3278211 C15.5383197,30.6229785 15.538394,30.9182844 15.5434449,31.2135161 C15.5453018,31.3209608 15.5034835,31.3795467 15.3971181,31.4243215 C15.3339079,31.4509043 15.2613388,31.5500326 15.2616359,31.6161924 C15.2628986,31.8974644 15.28949,32.1785879 15.3076137,32.4597114 C15.3168241,32.6026492 15.3169727,32.7360826 15.1566818,32.8123409 C15.1198401,32.8297905 15.0899062,32.9024103 15.0896091,32.949784 C15.0850782,33.6176194 15.0790617,34.2856032 15.0941401,34.9530673 C15.0962941,35.0490027 15.2008026,35.1470173 15.2695836,35.2349333 C15.2976605,35.2707977 15.3705268,35.2715403 15.3989751,35.3073304 C15.4653792,35.3908655 15.5589689,35.4847219 15.5618657,35.5768704 C15.5641683,35.6512723 15.4478497,35.7277533 15.3880563,35.8062392 C15.3464608,35.860964 15.2883015,35.9170996 15.2789426,35.9789527 C15.2651269,36.0696161 15.2981805,36.1664426 15.292981,36.2595564 C15.2879301,36.3497743 15.2902327,36.4796436 15.235713,36.5202602 C15.0925802,36.6269624 15.0650233,36.7659648 15.0659889,36.9168478 C15.0680687,37.2247025 15.0781704,37.53278 15.0983739,37.8398922 C15.1017164,37.8906073 15.1720572,37.9379067 15.2135041,37.9849091 C15.2560651,38.0331738 15.3386617,38.0810673 15.3365077,38.1257679 C15.3330909,38.1957146 15.2891186,38.2995952 15.2337075,38.3240245 C15.0936944,38.3856549 15.0741594,38.4856743 15.0798788,38.6130931 C15.0846325,38.7200181 15.0797302,38.8276113 15.0877522,38.9343135 C15.1077329,39.2010318 14.9883689,39.3987687 14.778312,39.5430431 C14.6335451,39.6425427 14.4736998,39.7198405 14.3241792,39.8127316 C14.190851,39.8955241 14.0541803,39.9762376 13.933925,40.0758857 C13.7844043,40.1997404 13.7908665,40.2961956 13.9195152,40.4423264 C14.010728,40.5460584 14.1188761,40.5508849 14.245445,40.5346234 C14.4116781,40.5133127 14.5803624,40.5018776 14.7480068,40.5023974 C14.9113431,40.5028429 15.0745308,40.531579 15.2380156,40.5340294 C15.6012328,40.5393756 15.8992342,40.4072788 16.1147877,40.1039535 C16.3031555,39.8387945 16.5349014,39.6284345 16.8782121,39.6036339 C17.200948,39.5803183 17.5193758,39.5974709 17.8143319,39.7605314 C17.8831872,39.7986234 17.9686063,39.8195629 18.0477119,39.8236468 C18.3873088,39.8411706 18.7274256,39.8579519 19.0673939,39.8595855 C20.0499371,39.8642634 21.0324803,39.8635209 22.0150235,39.859437 C22.1671439,39.8588429 22.276629,39.8938906 22.359597,40.0347493 C22.3964386,40.0972707 22.4953763,40.1565992 22.5679455,40.158901 C22.8887501,40.1689253 23.2116346,40.1747913 23.5312508,40.1499164 C23.9541128,40.1169479 24.3552115,40.1395952 24.7371465,40.357232 C24.8511626,40.4222037 25.0188069,40.4405443 25.1502039,40.4164119 C25.3321096,40.3829979 25.446497,40.4175257 25.5111184,40.5886799 C25.5525653,40.6984265 25.6247631,40.7383006 25.7426415,40.7356274 C26.038786,40.7287961 26.3351534,40.7333256 26.6313722,40.7333256" id="Fill-1" fill="#FFFFFF"></path>
            <path d="M49.3748778,33.0437443 C49.3558628,33.0437443 49.336922,33.0437443 49.317907,33.0436701 C49.317907,33.8625369 49.31605,34.6814038 49.3185755,35.5002706 C49.320061,35.9910858 49.3220665,36.4819752 49.339596,36.9723448 C49.3425671,37.0550632 49.4257579,37.1348856 49.4718843,37.2160446 C49.539254,37.1567161 49.6347749,37.1104562 49.6692397,37.0359058 C49.8457231,36.6538719 50.0128476,36.26716 50.1688304,35.87629 C50.2140654,35.7628307 50.2286238,35.6302141 50.2275839,35.5066564 C50.2251328,35.2221915 50.2962163,34.9626015 50.4241965,34.7100656 C50.7008061,34.1640059 50.850401,33.5922544 50.8438646,32.9692682 C50.83354,31.9870438 50.8662964,31.0042996 50.8782551,30.0217782 C50.8811519,29.7813456 50.9501558,29.5682383 51.0851923,29.367754 C51.1643722,29.2501366 51.2237942,29.1147726 51.2690292,28.9797056 C51.3739834,28.6662076 51.4654933,28.3481059 51.561237,28.0315636 C51.5866399,27.9476572 51.6234073,27.8633053 51.627864,27.7777653 C51.6461362,27.4264724 51.671762,27.0740656 51.6618831,26.7230696 C51.6403426,25.9546209 51.3571224,25.2941366 50.8001894,24.7549082 C50.7016974,24.6594925 50.6173924,24.5482609 50.5339787,24.4385886 C50.2742302,24.0970971 49.9533513,23.8883707 49.5030066,23.9353731 C49.3907732,23.9471051 49.2762373,23.9414619 49.1630383,23.9376007 C48.8258926,23.9262399 48.7849657,23.9637379 48.7779093,24.3029276 C48.7770922,24.3406483 48.7772408,24.3785176 48.7776865,24.4163126 C48.7888281,25.3547274 48.7940275,26.293365 48.8163108,27.2315571 C48.8208417,27.4219429 48.8839033,27.6123287 48.9303268,27.8001156 C49.0114379,28.1279445 49.1003481,28.4538428 49.1867328,28.7803351 C49.1977259,28.8218428 49.2028511,28.8707016 49.2284025,28.9015167 C49.363142,29.0641318 49.3761405,29.2547403 49.3758434,29.4534425 C49.3739122,30.650185 49.3748778,31.8470018 49.3748778,33.0437443 L49.3748778,33.0437443 Z M46.1712135,19.0742238 C46.2312298,19.0897427 46.2919145,19.1028856 46.3509652,19.1211519 C46.4805052,19.161026 46.6088568,19.2046128 46.7383225,19.2447096 C46.8385229,19.2758218 46.9385005,19.3093101 47.0407806,19.3321802 C47.1726233,19.3616588 47.3192471,19.3550502 47.4374227,19.4107403 C47.7889039,19.5762512 48.1328832,19.7489647 48.4335586,20.0137524 C48.5960779,20.156913 48.8516669,20.1979009 49.0689287,20.2747532 C49.26465,20.3440317 49.4620797,20.3945983 49.6751819,20.3230922 C49.7453742,20.2996281 49.8396324,20.318637 49.9144298,20.3434376 C50.2388741,20.4510309 50.5835961,20.4891229 50.8759525,20.7075765 C51.0020015,20.8017298 51.2154751,20.7718799 51.3834166,20.8191051 C51.5175618,20.8568259 51.6572779,20.9058331 51.7687684,20.9858041 C51.9624843,21.124658 52.1579085,21.2727193 52.31196,21.4518929 C52.4461053,21.6079736 52.5385065,21.8059332 52.6233315,21.996913 C52.7423241,22.2647452 52.8479467,22.5397799 52.9387139,22.8183787 C53.0040038,23.0186402 53.06454,23.2281834 53.0767215,23.4365385 C53.1054669,23.9261657 53.1005646,24.4177234 53.1180198,24.9082415 C53.1210652,24.9920737 53.1677858,25.0743465 53.1938572,25.157436 C53.2514966,25.3409163 53.3389955,25.5209808 53.3609074,25.7086192 C53.4386017,26.373336 53.435482,27.0403545 53.3422637,27.7042544 C53.3306764,27.787047 53.284253,27.8723642 53.2330015,27.9408259 C53.0705565,28.1575716 53.0477533,28.4015684 53.0671397,28.6581883 C53.0857091,28.9027048 53.119134,29.1478154 53.1148259,29.3921092 C53.1091065,29.719047 52.993085,30.0100462 52.7221949,30.2132036 C52.5385065,30.3509437 52.5105782,30.5546209 52.4868094,30.7499074 C52.3759873,31.6586209 52.383935,32.570453 52.4264217,33.4836959 C52.4491506,33.9731003 52.4415743,34.464064 52.4391232,34.9542851 C52.4387518,35.037746 52.3936653,35.120687 52.3716049,35.2045192 C52.3179022,35.4079736 52.2376825,35.6092004 52.2188903,35.8159219 C52.1876937,36.1599381 52.1963842,36.5075184 52.1875452,36.8535393 C52.1867281,36.8848743 52.1903677,36.9227435 52.1748437,36.9463561 C51.9347045,37.3109405 52.0167811,37.7370809 51.9534967,38.1337427 C51.8542619,38.755838 51.6074376,39.2775426 51.0598637,39.6177718 C50.6826824,39.8520414 50.2455591,39.8980785 49.8198003,39.9804998 C49.6731021,40.0089389 49.5400711,40.1022754 49.3953042,40.1488323 C49.3159015,40.1743755 49.2011427,40.2012552 49.1431319,40.1640543 C48.8167564,39.9542883 48.6993979,39.9639413 48.3841641,40.1593021 C48.2490533,40.2429857 48.0618739,40.2484804 47.8960864,40.2752117 C47.7598614,40.2971907 47.6201454,40.3052843 47.4820634,40.304616 C47.4291778,40.3043933 47.3476954,40.2752117 47.3312058,40.2368226 C47.3123393,40.1931616 47.3320228,40.0991568 47.3687159,40.070792 C47.631287,39.8677088 47.7497597,39.5874021 47.8613245,39.2856362 C47.9896018,38.9386499 47.9593709,38.6224788 47.8013826,38.3039316 C47.7706317,38.24193 47.7248024,38.1852746 47.705416,38.1203771 C47.6667917,37.9911761 47.6904119,37.8913053 47.8426809,37.8417782 C47.9963611,37.7918057 48.1557607,37.7384917 48.2885689,37.6504272 C48.4558419,37.5395668 48.435787,37.4632343 48.3084753,37.3069308 C48.232935,37.2141883 48.1995844,37.0860268 48.1521211,36.9717508 C48.0970071,36.8392827 48.07153,36.6871374 47.9905675,36.5740494 C47.7295562,36.2096879 47.7410692,35.8090906 47.7903152,35.3966128 C47.8750659,34.6856362 47.959668,33.9745854 48.0395163,33.2630147 C48.0714557,32.9782528 48.0009663,32.7153957 47.8481031,32.4714732 C47.7445603,32.3062593 47.6560957,32.1316895 47.5554497,31.964545 C47.4114998,31.7255975 47.3490324,31.4678638 47.3556431,31.1903045 C47.3598026,31.0139526 47.3732469,30.8353731 47.3512607,30.6617686 C47.3368509,30.547344 47.2664358,30.4401221 47.221795,30.3294102 C47.1903013,30.2512213 47.1355588,30.173181 47.1333304,30.0939526 C47.1233772,29.741323 47.1392726,29.3878767 47.1238972,29.0356927 C47.1162466,28.8594893 47.0562304,28.6861818 47.0301589,28.5100527 C47.013595,28.3986725 47.0177546,28.2844707 47.0094355,28.171754 C46.9746736,27.6977944 46.938649,27.2239832 46.9032929,26.7501721 C46.9018816,26.7313117 46.9012874,26.7123771 46.9012874,26.6935168 C46.8999504,25.6036249 46.8962365,24.513733 46.9026244,23.4239155 C46.9030701,23.3474344 46.9804673,23.272587 47.0171604,23.1946209 C47.0468714,23.1315797 47.0918836,23.0647516 47.0908437,23.0002254 C47.0863128,22.7108598 47.0656636,22.4217912 47.0559332,22.1324255 C47.0538535,22.071612 47.0592757,22.0033731 47.0849758,21.9499849 C47.2637618,21.5782722 47.2132531,21.1889615 47.1778969,20.8019526 C47.1596247,20.6018396 47.0409292,20.4629857 46.8836836,20.3399477 C46.561542,20.0878573 46.2463824,19.8261883 45.9384278,19.5568711 C45.8140872,19.4480898 45.7161894,19.3090874 45.5931858,19.1688969 C45.6831359,19.1262754 45.738027,19.1002867 45.7929181,19.0742238 L46.1712135,19.0742238 Z" id="Fill-3" fill="#FFFFFF"></path>
            <path d="M43.9133624,25.675866 C43.763916,25.9252833 43.666761,26.190665 43.5834216,26.4702292 C43.4623492,26.8767668 42.8260879,27.2148426 42.4212011,27.1339064 C42.2681151,27.1032397 42.1650921,27.0336643 42.1512022,26.8681534 C42.1375352,26.7055383 42.124908,26.5428491 42.1117609,26.3802341 C42.1168117,26.3798628 42.1218626,26.3795658 42.1269135,26.3792688 C42.1269135,25.6743067 42.1233482,24.9693446 42.128399,24.2644568 C42.1309987,23.8992042 42.1580358,23.5341001 42.1574415,23.1689217 C42.156773,22.7912688 42.1314444,22.4137643 42.1255022,22.0359629 C42.1214912,21.7829072 42.180319,21.7488249 42.435091,21.7866199 C42.6656484,21.8207764 42.8477769,21.9225036 42.9985603,22.0982615 C43.1910134,22.3225811 43.3920827,22.5394754 43.5898095,22.7592655 C43.627691,22.8013672 43.6642356,22.845548 43.7065738,22.8828975 L43.9692934,25.4588975 C43.9617171,25.5328539 43.9502784,25.6142357 43.9133624,25.675866 M46.9692887,35.5114011 C46.9482682,35.1748846 46.901919,35.1432526 46.5615793,35.0943939 C46.4072306,35.0721921 46.3708346,34.9856126 46.4212691,34.8543325 C46.4479347,34.7849798 46.5077281,34.7276562 46.5307541,34.6577837 C46.572201,34.5319984 46.6314745,34.398565 46.6231554,34.2723341 C46.5846054,33.6891477 46.5286744,33.1069266 46.4697723,32.5252994 C46.4618246,32.4471106 46.4188179,32.327117 46.3626641,32.3064746 C46.0019724,32.174155 45.920787,31.881745 45.9080113,31.553025 C45.8880306,31.0370379 45.884911,30.5204568 45.86805,30.0043212 C45.8576511,29.6834722 45.7738661,29.3823002 45.5757679,29.1233043 C45.537515,29.0733317 45.4742305,29.0134092 45.4196365,29.0104391 C45.241519,29.0007119 45.2267378,28.9081921 45.2957416,28.7859709 C45.3723217,28.6503842 45.3469188,28.5358854 45.2404048,28.4485634 C44.9735999,28.2296642 44.6995901,28.01923 44.4227578,27.8131025 C44.3845791,27.7846634 44.3084446,27.7819903 44.2596443,27.7976578 C44.1009132,27.8488927 44.0170539,27.7911977 43.9862287,27.6367506 C43.9526552,27.4681953 44.0250758,27.3504294 44.1836584,27.3166441 C44.5066171,27.2478111 44.7824096,27.0956659 45.0167552,26.8625101 C45.5103294,26.3713979 45.7772828,25.7597724 45.9604512,25.1032978 C45.975381,25.0498354 45.9859284,24.9885763 45.9752325,24.9356336 C45.8941957,24.5329572 45.9761238,24.149067 46.0902141,23.765251 C46.1751133,23.4797466 46.2099495,23.1897127 46.1451052,22.8903228 C45.9857056,22.1542486 45.6386067,21.5058676 45.176229,20.9271364 C44.9816962,20.6836594 44.6940936,20.5112429 44.4368705,20.3227877 C44.3564279,20.2638305 44.2358755,20.2286344 44.1357494,20.2327926 C43.699666,20.2509847 43.303841,20.1249023 42.9213117,19.9346651 C42.6062264,19.7779161 42.2760628,19.7428684 41.9290381,19.7958854 C41.7173472,19.8281856 41.514718,19.7991525 41.3650488,19.6138902 C41.2648484,19.489887 41.1525408,19.4885504 41.0161672,19.5743132 C40.9239888,19.6322308 40.8099728,19.6833172 40.7040531,19.6867328 C40.3580683,19.6979451 40.0112665,19.6831687 39.6648361,19.6834657 C39.2561611,19.6837627 38.8474118,19.6858418 38.4389597,19.6963115 C38.3770865,19.6978709 38.316476,19.7493285 38.2553456,19.7776933 C38.311128,19.8322696 38.3626767,19.8924149 38.4244013,19.9391203 C38.4570834,19.9637724 38.507295,19.9746877 38.549856,19.9753559 C39.0152048,19.9828555 39.3686916,20.2292284 39.6588196,20.5497805 C39.8619687,20.7742486 40.0083697,21.0529217 40.1618271,21.3179322 C40.2354361,21.4449798 40.291887,21.4802502 40.4226898,21.39523 C40.5145711,21.3356045 40.6240561,21.2904584 40.7315357,21.2703358 C40.8945749,21.2397433 41.0622936,21.2689992 41.1353827,21.4378515 C41.203718,21.5957143 41.070687,21.7009314 40.9666241,21.7820161 C40.6247989,22.0484375 40.2820081,22.3157498 39.9210193,22.5548458 C39.6642419,22.7249605 39.5211833,22.9382163 39.5400498,23.240799 C39.5511915,23.4207893 39.5884788,23.6016707 39.6349765,23.7765375 C39.835303,24.5306554 40.0193628,25.285293 40.0377093,26.0730476 C40.0443943,26.3589976 40.0813845,26.6540807 40.1665808,26.925477 C40.243161,27.1693995 40.302063,27.4036691 40.2988691,27.6599177 C40.2968636,27.8137708 40.3302142,27.9699258 40.3618565,28.1221453 C40.4614626,28.6000404 40.6195995,29.0722922 40.6591894,29.5546425 C40.7178687,30.2686634 40.6985565,30.9893672 40.7044987,31.7073236 C40.711258,32.5138644 40.7042759,33.3205537 40.7159375,34.1270202 C40.7177944,34.2558499 40.7497337,34.4185391 40.8318104,34.5044504 C40.9821481,34.6618676 41.0055456,34.8160178 40.9377302,35.0022454 C40.8431006,35.2621324 40.7447571,35.5206086 40.6469336,35.7793075 C40.4359112,36.3375448 40.2163468,36.8928119 40.0163916,37.4549847 C39.9245846,37.7133123 39.9772474,37.8299645 40.2003771,37.9887183 C40.4056059,38.1348491 40.6130631,38.2782324 40.8246798,38.4148588 C41.4421489,38.8135997 41.8777124,39.3631493 42.1798734,40.0263067 C42.2757657,40.2367409 42.3753718,40.4454673 42.4733439,40.6550105 C42.4933245,40.6536739 42.5133795,40.6523374 42.5333601,40.6510008 C42.5475471,40.3764116 42.5601001,40.1016739 42.5764411,39.8272333 C42.5894397,39.6078886 42.5447246,39.356615 42.6374972,39.1773672 C42.7715682,38.918297 42.7827098,38.6568507 42.7867951,38.393251 C42.7914003,38.1032914 42.843246,37.7934318 42.6680253,37.5301291 C42.5066945,37.2876174 42.5154593,37.0517885 42.6266527,36.7968765 C42.6761216,36.6835658 42.7145973,36.5581517 42.7227678,36.4358563 C42.7396288,36.1848055 42.7299728,35.9321211 42.7362864,35.6802534 C42.7418572,35.4590525 42.7106606,35.2577514 42.5309833,35.0981065 C42.4471239,35.0237046 42.4180814,34.8979193 42.5481414,34.8512139 C42.8142778,34.755724 42.7726824,34.5681598 42.7452739,34.360473 C42.6456678,33.6071719 42.5562376,32.85246 42.4618309,32.0984907 C42.4025574,31.6248281 42.3356333,31.1521308 42.2838619,30.6777256 C42.2664067,30.5176352 42.2482087,30.3421743 42.2946321,30.193816 C42.4012947,29.8526215 42.5485128,29.5241985 42.6770872,29.1897611 C42.72923,29.0541743 42.8040275,29.0344972 42.8909322,29.1518176 C43.0857622,29.414749 43.285643,29.6750815 43.4610865,29.9507103 C43.6127613,30.1890638 43.6749315,30.4574157 43.6269483,30.7455932 C43.5815647,31.017732 43.5448716,31.2912817 43.5075843,31.5646828 C43.4890892,31.7005666 43.5202857,31.8046699 43.6662411,31.8680823 C43.7299712,31.8957789 43.7884276,31.9806505 43.8105623,32.0516368 C43.9676593,32.5550008 44.1345609,33.0565827 44.2604613,33.5680404 C44.4522459,34.3468846 44.4769061,35.1477821 44.5304602,35.9448927 C44.5796319,36.676586 44.442367,37.3546683 44.0711279,37.991837 C43.9526552,38.1950686 43.8827601,38.4299322 43.8120479,38.6569249 C43.7313082,38.9161437 43.8012034,39.0172026 44.0782586,38.9964859 C44.591962,38.9580226 44.9627554,39.1701646 45.2496153,39.5768507 C45.4550669,39.8681469 45.7461606,40.0563793 46.0598346,40.2110492 C46.3834618,40.3706199 46.5170128,40.3245085 46.5841597,39.9683148 C46.7165223,39.2655061 46.8322467,38.5585391 46.9235337,37.8492704 C46.975528,37.4447377 46.9732997,37.0324826 46.9813959,36.6233462 C46.9888237,36.2528216 46.9923147,35.8809605 46.9692887,35.5114011" id="Fill-6" fill="#FFFFFF"></path>
            <path d="M37.0999957,27.0922131 C37.1642458,27.0837482 37.2412716,27.1266667 37.3039618,27.1614173 C37.3911637,27.2097563 37.4804452,27.262699 37.5494491,27.3327199 C37.5960954,27.3800194 37.6293717,27.4588023 37.6338284,27.5258531 L37.7840175,28.394841 C37.8132086,28.4071671 37.8298468,28.4806037 37.8299953,28.5259726 C37.8321494,29.4259984 37.8320008,30.32595 37.8297725,31.2259758 C37.8293268,31.4079709 37.6853027,31.4196287 37.5614078,31.4104956 C37.4740574,31.4041098 37.3849243,31.3551025 37.3064873,31.3085456 C37.1508758,31.2162486 37.0021722,31.112368 36.8504232,31.013611 C36.8346764,31.003364 36.8103876,30.9995028 36.8021428,30.9856174 C36.6129579,30.6661049 36.2911134,30.7500856 36.0075218,30.7285521 C35.8344551,30.7154835 35.6595315,30.7261759 35.4974579,30.7261759 C35.4974579,30.1614044 35.486242,29.6030928 35.5048114,29.0457466 C35.5099366,28.8915964 35.6332373,28.7433124 35.6485384,28.5870831 C35.664731,28.4224633 35.6206101,28.2509378 35.5955786,28.0834964 C35.557697,27.8299952 35.5972127,27.7754931 35.8446311,27.7345052 C35.892763,27.7265601 35.9605784,27.6943341 35.9763252,27.6557966 C36.0958378,27.3624213 36.2513006,27.0818176 36.2230752,26.7420339 C36.209111,26.5737014 36.2604368,26.3999483 36.2822744,26.2287199 C36.3040377,26.2295367 36.325801,26.2303535 36.3476386,26.2311703 M39.8815408,31.0376691 C39.880798,30.8492881 39.8848833,30.6522938 39.8340774,30.4743083 C39.630557,29.7618467 39.5975035,29.0361679 39.6324882,28.3041776 C39.6494978,27.9479839 39.6055255,27.6164423 39.3800932,27.3232898 C39.2538214,27.1591897 39.22723,26.9721453 39.2928171,26.7698047 C39.3448113,26.6095658 39.3761565,26.4482131 39.1811037,26.3452236 C39.147753,26.3276255 39.1255441,26.2769104 39.1116542,26.2368136 C39.0396049,26.0291267 38.9393303,25.824707 38.9085794,25.6105601 C38.7898839,24.7838967 38.5374888,24.0000775 38.2437955,23.221159 C38.0930121,22.8213043 38.0439889,22.3831348 37.9708255,22.0590186 C38.0645638,21.5920387 37.8838465,21.3146279 37.6864168,21.0502115 C37.4132241,20.6842163 37.204727,20.3060436 37.2311698,19.8234705 C37.2448369,19.5740533 37.0616685,19.4207942 36.8435154,19.433343 C36.5680943,19.449159 36.4072835,19.616155 36.4153054,19.8802002 C36.4173852,19.9494044 36.4193164,20.0194253 36.4311265,20.0873672 C36.4826009,20.3838612 36.363014,20.5908797 36.0995516,20.7179274 C35.8248733,20.8503955 35.7271984,21.073824 35.7938253,21.3554673 C35.8544358,21.6119387 35.770205,21.8211848 35.6573032,22.0383019 C35.4982007,22.3440032 35.3556621,22.6582437 35.202799,22.967138 C35.1554842,23.0626279 35.1034156,23.1568555 35.0431023,23.2444746 C34.941862,23.3914964 34.881103,23.539632 34.9515924,23.7205133 C35.0272069,23.9142405 34.9650366,24.0775981 34.8205668,24.2155609 C34.6166007,24.4103277 34.4950826,24.6533592 34.4621034,24.9268345 C34.4206565,25.2695141 34.4086236,25.6159064 34.3875288,25.9608878 C34.3765357,26.1417692 34.3209018,26.2940629 34.1478352,26.3793059 C33.9890298,26.4574947 33.9443147,26.5911509 33.957239,26.7553253 C33.9646668,26.8495529 33.9614728,26.9457853 33.9801908,27.0376368 C34.0210434,27.2381953 33.9801908,27.426205 33.8456742,27.566841 C33.471464,27.9580823 33.4578712,28.4389475 33.4878793,28.9279064 C33.4983524,29.0999516 33.4681957,29.3252365 33.7387888,29.3654076 C33.7643403,29.3691945 33.8061585,29.4268152 33.7998449,29.4461953 C33.7888518,29.4799806 33.7486677,29.5239387 33.716357,29.5278741 C33.5195958,29.5520065 33.5013235,29.6846973 33.5082313,29.8413721 C33.5145449,29.986092 33.531703,30.1334108 33.5122423,30.2752349 C33.4969411,30.3873575 33.4578712,30.5143309 33.3857477,30.5964552 C33.263784,30.7353834 33.2461059,30.878544 33.2625212,31.0497724 C33.2834675,31.2675577 33.290301,31.4873479 33.2900782,31.706247 C33.2898554,31.9379919 33.2466259,32.172707 33.2721031,32.4005908 C33.3066421,32.7092623 33.2930493,32.7737143 33.0117603,32.8992768 C32.6732776,33.0503826 32.6475033,33.0795642 32.6807053,33.4586279 C32.7041028,33.7249007 32.6141527,33.9155093 32.3719336,34.0257014 C32.1670019,34.1188894 32.0971068,34.2708119 32.102529,34.4929782 C32.1164189,35.0547797 32.2975075,35.1735109 32.805863,34.932113 C33.0956939,34.7945214 33.3809196,34.6463115 33.6753558,34.5194124 C33.9847217,34.3860533 34.3037437,34.3172203 34.6499513,34.3746182 C34.876572,34.4121905 35.1144087,34.4144923 35.3437777,34.3941469 C35.5788661,34.3732817 35.7156111,34.2260371 35.7513386,34.0111477 C35.7829808,33.8202421 35.6302662,33.741979 35.5030288,33.6731461 C35.1796244,33.4980565 35.0962107,33.2308184 35.1684828,32.8934851 C35.208964,32.7047328 35.2186944,32.528975 35.1134431,32.3472768 C35.0780127,32.2861663 35.1222078,32.1536981 35.170414,32.08041 C35.1933657,32.0455851 35.32298,32.0476642 35.3838133,32.0764003 C35.7137541,32.2320355 36.0436206,32.3898983 36.3610085,32.5692203 C36.6343499,32.7236675 36.895064,32.9017272 37.1534755,33.0807522 C37.3701431,33.2308184 37.4767314,33.4410299 37.4554137,33.7130944 C37.4074304,34.3247942 37.179027,34.8708539 36.8443325,35.3742179 C36.667032,35.6407877 36.4519985,35.8809233 36.3751213,36.2060791 C36.3234241,36.4246069 36.3656138,36.6065278 36.5316983,36.7534011 C36.6636895,36.8700533 36.8044454,36.9769782 36.942156,37.087096 C37.1445622,37.24882 37.285541,37.4464826 37.2585783,37.7169136 C37.2139375,38.1642163 37.3300332,38.575209 37.504734,38.9789992 C37.7015695,39.4340242 37.7641111,39.9077611 37.6899822,40.4011009 C37.6726755,40.5166392 37.688868,40.6398257 37.7077345,40.7566263 C37.7138995,40.7944956 37.7776297,40.8512994 37.8150655,40.8512994 C38.0540164,40.8512994 38.2794487,40.782318 38.2642961,40.4762454 C38.2576854,40.3441485 38.2653359,40.2113834 38.2584281,40.0793608 C38.2505547,39.9275125 38.2845738,39.8014302 38.394876,39.684184 C38.4516983,39.623816 38.4946307,39.5066441 38.4783639,39.4287522 C38.4101771,39.1019629 38.5360776,38.8243293 38.657447,38.5394189 C38.7653723,38.2859919 38.892684,38.0339758 38.9503976,37.7680743 C38.9955584,37.5600904 38.9498034,37.3316868 38.9394788,37.1126392 C38.9318282,36.9492817 38.9765433,36.8122098 39.1201218,36.7228087 C39.2739506,36.6270218 39.3286188,36.4771041 39.3545417,36.3111477 C39.4307504,35.8224116 39.5726205,35.3581049 39.8469275,34.9399096 C39.87545,34.8963971 39.884809,34.8332817 39.8848833,34.7791509 C39.8859232,33.5319903 39.8862946,32.2848297 39.8815408,31.0376691" id="Fill-8" fill="#FFFFFF"></path>
            <path d="M26.6313945,40.7333479 C26.3351014,40.7333479 26.038734,40.7288184 25.7426638,40.7355755 C25.6247111,40.7383228 25.5525876,40.6984487 25.5111407,40.5887022 C25.4465193,40.417548 25.3320576,40.3830202 25.1501519,40.4164342 C25.0188292,40.4405666 24.8511848,40.422226 24.7371688,40.3572542 C24.3552337,40.1396174 23.9541351,40.1169701 23.5312731,40.1499387 C23.2116568,40.1748136 22.8887724,40.1689475 22.5678935,40.1588491 C22.4953243,40.1566215 22.3964609,40.0972187 22.3596193,40.0347716 C22.2766513,39.8938386 22.1670919,39.8588652 22.0150458,39.8594592 C21.0325026,39.8635432 20.0499594,39.8642115 19.0674162,39.8595335 C18.7274479,39.8579742 18.3873311,39.8411929 18.0476599,39.8236691 C17.9686286,39.8195851 17.8831352,39.7985714 17.8143542,39.7605537 C17.5193981,39.5974931 17.2009703,39.5803406 16.8782344,39.6036562 C16.5349237,39.6283826 16.3031778,39.8388168 16.1148099,40.1039015 C15.8992565,40.407301 15.6011808,40.5393979 15.2380379,40.5339774 C15.0745531,40.5316013 14.9113653,40.5028652 14.7479548,40.5024197 C14.5803846,40.5018999 14.4117004,40.5133349 14.245393,40.5346457 C14.1188983,40.5509072 14.0107502,40.5460807 13.9194632,40.4423487 C13.7908887,40.2962179 13.7844266,40.1997627 13.9339473,40.0758337 C14.0542026,39.9762599 14.1908733,39.8955464 14.3241272,39.8126796 C14.4737221,39.7197885 14.6334931,39.6424907 14.77826,39.5430654 C14.9883169,39.398791 15.1076809,39.2010541 15.0877745,38.9342615 C15.0797525,38.8276336 15.0846548,38.7200404 15.0799011,38.6130412 C15.0741817,38.4856223 15.0937167,38.3856772 15.2337298,38.3240468 C15.2891409,38.2996174 15.3330389,38.1957369 15.3364557,38.1257902 C15.338684,38.0810153 15.2560131,38.0331961 15.2135264,37.9849314 C15.1720795,37.9378547 15.1017387,37.8906295 15.0983962,37.8398402 C15.0781927,37.5328023 15.0680167,37.2246505 15.0660112,36.9168701 C15.0650456,36.7659871 15.0926025,36.6269847 15.2357353,36.5202825 C15.290255,36.4796659 15.2878782,36.3497966 15.292929,36.2595787 C15.2982027,36.1663906 15.2651492,36.0695642 15.2789648,35.978975 C15.2883238,35.9171219 15.3464831,35.860912 15.3880785,35.8062615 C15.447872,35.7277756 15.5641163,35.6512946 15.5618137,35.5768927 C15.5589912,35.4847441 15.4653272,35.3908878 15.3989231,35.3073527 C15.3704748,35.2715626 15.2976085,35.27082 15.2695316,35.2349556 C15.2007506,35.1469653 15.0962421,35.0489508 15.0940881,34.9530153 C15.079084,34.2855513 15.0851005,33.6175674 15.0895571,32.9498063 C15.0899285,32.9023584 15.1198624,32.8298128 15.156704,32.8122889 C15.3169207,32.7361049 15.3167721,32.6026715 15.3075617,32.4597337 C15.289438,32.1786102 15.2629209,31.8974867 15.2616582,31.6162147 C15.2613611,31.5500549 15.3339302,31.4509266 15.3971404,31.4243438 C15.5035058,31.379569 15.5453241,31.3209088 15.5434671,31.2134641 C15.5384163,30.9183067 15.538342,30.6230008 15.5304686,30.3278434 C15.5246007,30.1079048 15.5065512,29.8882631 15.4998662,29.6683245 C15.4954839,29.5254609 15.493107,29.398636 15.6525808,29.2990621 C15.8163628,29.1968894 15.7668197,28.7760952 15.6167048,28.6522405 C15.5586198,28.6043471 15.5014261,28.5180646 15.4985292,28.4470783 C15.4835995,28.0764794 15.4852336,27.705138 15.482931,27.3340936 C15.4801084,26.8872365 15.4830052,26.4402308 15.4726807,25.9935222 C15.4712694,25.9336739 15.4059794,25.875682 15.3716632,25.8160565 C15.33601,25.7540549 15.2756966,25.6926473 15.2716857,25.6281953 C15.2494024,25.2701453 15.230833,24.9110557 15.2363296,24.5527829 C15.2374437,24.4789007 15.3314048,24.3730896 15.4077621,24.3399726 C15.6311889,24.2429976 15.7207676,24.0965698 15.6960332,23.8531671 C15.6763497,23.6598111 15.6950676,23.4628168 15.6910566,23.2675303 C15.6877141,23.1080339 15.662534,22.9704423 15.5031344,22.8653737 C15.3366042,22.7556271 15.4321994,22.585661 15.5232637,22.4869039 C15.7134141,22.2807022 15.7429023,22.0451703 15.7319835,21.7865456 C15.7249272,21.6182873 15.6482728,21.4882696 15.5737724,21.3402825 C15.4444552,21.0833656 15.2857984,20.9254286 15.0272383,20.7795948 C14.7253001,20.6093317 14.4991993,20.3022195 14.2464329,20.0482728 C14.082131,19.8832074 14.072252,19.7295028 14.1960727,19.5579031 C14.3180364,19.3889023 14.5485196,19.3909072 14.6447833,19.5752042 C14.7078449,19.6960888 14.7914071,19.7394528 14.9164905,19.7283148 C15.1293699,19.7094544 15.3426207,19.6937869 15.5547573,19.6687635 C15.822305,19.6372058 16.0646726,19.6393592 16.2311286,19.9133543 C16.2731696,19.9826328 16.4145941,20.0297837 16.5057326,20.0231751 C16.7002655,20.0089927 16.8287656,20.0804988 16.9392163,20.2294512 C17.0213672,20.3402373 17.1103517,20.4505779 17.2147116,20.539385 C17.4379156,20.729251 17.5347735,20.9639661 17.5344021,21.2532575 C17.5340308,21.5931154 17.5479207,21.9328991 17.5551999,22.2726828 C17.557651,22.3895577 17.5429441,22.4823002 17.4145925,22.5503164 C17.2630663,22.6306586 17.3170661,23.0244988 17.4964463,23.0997918 C17.6385393,23.1594173 17.6880081,23.2585456 17.6997439,23.385222 C17.7141538,23.5412284 17.712594,23.6996852 17.7047948,23.8564342 C17.7022694,23.9063325 17.6646107,23.9906102 17.6312601,23.9969217 C17.4632443,24.0287764 17.4684437,24.159017 17.4664382,24.2726247 C17.4527711,25.0342421 17.4396983,25.7960081 17.4391041,26.5576998 C17.4388812,26.8719403 17.4734203,27.1861065 17.4855275,27.5004956 C17.492881,27.6925892 17.5368533,27.8631493 17.7105885,27.9717821 C17.896728,28.0882115 17.8970251,28.2848345 17.8944996,28.4596271 C17.8789756,29.5294705 17.8507502,30.5991655 17.8228218,31.6687861 C17.8208906,31.7418515 17.7997958,31.8210799 17.765331,31.8855319 C17.5644103,32.261477 17.6562173,32.6593269 17.6728555,33.0508652 C17.6752324,33.1076691 17.705389,33.1802147 17.7476529,33.2153366 C17.8840265,33.3283503 17.9155202,33.4672042 17.9036358,33.6347942 C17.896208,33.7400856 17.9106921,33.8487926 17.9288158,33.9536384 C17.9626121,34.149222 17.9350552,34.3033721 17.746316,34.4226973 C17.655326,34.480318 17.5792658,34.5985295 17.5499262,34.7041178 C17.5289799,34.7794108 17.5728036,34.902226 17.630443,34.9639306 C17.7792209,35.1231299 17.7594631,35.3439596 17.5843909,35.4736804 C17.5173183,35.5234302 17.4622787,35.6297611 17.4573763,35.713519 C17.4502457,35.8355174 17.5003088,35.9597433 17.5132331,36.0843406 C17.5262316,36.2093834 17.5749577,36.3508362 17.3909722,36.4133575 C17.3578445,36.4246441 17.3320701,36.5073624 17.331773,36.5572607 C17.3303618,36.8402405 17.3353384,37.1233688 17.3429889,37.4063487 C17.347297,37.5653253 17.312758,37.6971251 17.1803211,37.8061291 C17.0822005,37.8868426 16.9962614,37.9943616 17.2219166,38.0467845 C17.2592782,38.0554722 17.3008736,38.1687829 17.2928516,38.2272946 C17.2687857,38.4042405 17.3351155,38.4776029 17.5087764,38.5006215 C17.9068297,38.5535642 18.3010948,38.5476981 18.6869666,38.4363923 C18.7770653,38.4104778 18.8680553,38.3380065 18.9267345,38.262268 C19.122233,38.0098805 19.355613,37.9788426 19.6287315,38.1087861 C19.985635,38.278678 20.3651932,38.3124633 20.7528477,38.2966473 C21.0280459,38.2853608 21.2786583,38.2209831 21.5089187,38.0476755 C21.6310309,37.9556755 21.8040976,37.9066683 21.9599319,37.8892187 C22.272046,37.8541711 22.588097,37.8428846 22.902588,37.8417708 C24.1254933,37.8372413 25.3483986,37.8387264 26.5713039,37.8425876 C26.8164198,37.8433301 27.0615357,37.8735513 27.3066515,37.8729572 C27.4953165,37.872586 27.5533272,37.9750557 27.5469393,38.133661 C27.5340893,38.4539903 27.5089835,38.7739483 27.4949451,39.0942776 C27.4837292,39.3520113 27.4594404,39.6121211 27.4835806,39.8671816 C27.496802,40.006481 27.5997507,40.1368701 27.6599155,40.2723083 C27.7164407,40.3995044 27.7698462,40.5280371 27.824663,40.6559758 C27.6979456,40.6792914 27.5718223,40.7177546 27.4443621,40.7226554 C27.173769,40.7329766 26.9024332,40.725774 26.6313945,40.725774 L26.6313945,40.7333479" id="Fill-10" fill="#FFFFFF"></path>
            <path d="M34.3300751,35.0943642 C34.4518902,35.3935312 34.6708604,35.3586321 34.8873051,35.3313811 C34.9496983,35.3235103 35.0120914,35.3126692 35.0746331,35.3105902 C35.5035858,35.2963335 35.5239379,35.3119267 35.6020779,35.7330179 C35.6242868,35.8527144 35.6499126,35.9753811 35.4662985,36.0025579 C35.4304967,36.0078299 35.3807308,36.081415 35.3792453,36.1250018 C35.3750114,36.2487822 35.3536938,36.3947645 35.4084363,36.4936701 C35.5738524,36.7921688 35.5594425,37.1125724 35.5635278,37.4294118 C35.5680587,37.7751358 35.5488209,38.1213795 35.5309943,38.466955 C35.5168815,38.7413956 35.4426783,38.781641 35.160795,38.7815667 C34.4613978,38.7812697 33.7620005,38.7969372 33.0626033,38.8077782 C32.9532667,38.8094118 32.8445987,38.8218864 32.8134764,38.6746418 C32.8084998,38.6511035 32.7709897,38.6306095 32.7444726,38.6160559 C32.4632579,38.4618315 31.8711916,38.5213085 31.6402628,38.7442173 C31.4304288,38.9467806 31.1666692,38.9285885 30.9142742,38.949528 C30.7013205,38.9671261 30.4856928,38.9588097 30.2715507,38.9522754 C29.9888504,38.9435135 29.7292504,38.9935603 29.4756669,39.1362754 C29.2737063,39.2498831 29.0353497,39.3044594 28.8025639,39.2174344 C28.7334858,39.1915942 28.6423473,39.1043464 28.6395247,39.0417508 C28.6238522,38.6912003 28.6283831,38.3393876 28.6376678,37.9883916 C28.6387077,37.9509679 28.7188531,37.9187419 28.7561404,37.8785708 C28.8278183,37.8014215 28.9179912,37.7299897 28.957284,37.6377669 C28.9918973,37.5564594 29.0064557,37.449386 28.8707507,37.3883496 C28.7718873,37.3438718 28.7932049,37.1114586 28.9156143,37.0721785 C29.2914586,36.951591 29.2912358,36.6874715 29.2286198,36.3810276 C29.2203008,36.3400397 29.2332993,36.2947451 29.237756,36.2325207 C29.4582117,36.2962302 29.4772267,36.1490599 29.4590287,36.0065676 C29.4006466,35.5488694 29.5518014,35.1144868 29.5909456,34.6681495 C29.6222165,34.3124013 29.5870089,33.9718008 29.4146108,33.6433036 C29.3303058,33.4826935 29.3043086,33.2855506 29.2786086,33.1011793 C29.0683289,31.5953198 29.3563029,30.1721785 30.0118021,28.8140833 C30.0851141,28.662235 30.1985359,28.5299897 30.2737047,28.3788839 C30.3809615,28.163252 30.398491,27.9477685 30.2237159,27.7459477 C30.1096999,27.6141479 30.1360685,27.4888081 30.2833608,27.3993327 C30.4770766,27.281641 30.5105015,27.1066999 30.4642266,26.907478 C30.3970797,26.6187806 30.4553133,26.372185 30.6817855,26.1722205 C30.9044695,25.9755232 30.993974,25.7326402 30.9807526,25.4321366 C30.9445051,24.6070324 31.3216864,23.9119461 31.7694314,23.2729211 C32.0747864,22.8372019 32.2170278,22.3832165 32.2537209,21.8733924 C32.2650854,21.7150099 32.1486182,21.6934021 32.0429213,21.697783 C31.9124157,21.7031293 31.7817615,21.7350583 31.6537813,21.7662447 C31.4678646,21.8116136 31.3278515,21.7868129 31.2293595,21.5941253 C31.1920722,21.5211341 31.0842212,21.4539348 30.9995448,21.4404207 C30.4547934,21.3535442 30.1371083,21.5830615 29.9639674,22.1078848 C29.8094701,22.5761269 29.7978086,23.0594424 29.7470027,23.5392681 C29.7151377,23.8402173 29.599339,24.062532 29.2959153,24.169754 C29.1928181,24.2062124 29.1108899,24.298955 29.0106153,24.3482592 C28.9387146,24.3836039 28.8343547,24.4265966 28.7770867,24.3988258 C28.7098655,24.3663028 28.6434614,24.2636846 28.6372221,24.1865353 C28.6185042,23.9560526 28.6326912,23.7230454 28.6268975,23.4912261 C28.624892,23.4105869 28.5987464,23.3308387 28.5896845,23.2499768 C28.5791371,23.1561204 28.5951068,23.0850599 28.7062259,23.0451858 C28.7580717,23.0266224 28.8166024,22.9387064 28.8179394,22.8810115 C28.8303437,22.340001 28.8347261,21.7987677 28.8339833,21.2576087 C28.8333891,20.8166176 28.8235844,20.3757007 28.8160824,19.9347839 C28.813557,19.7858315 28.899199,19.7345966 29.0308188,19.7334828 C29.2578109,19.7315522 29.4847288,19.7319977 29.7117209,19.7315522 C31.3256232,19.7287306 32.9395254,19.7237556 34.5533534,19.7244239 C35.0293981,19.7245724 35.1475736,19.8836975 34.9600971,20.317189 C34.8394704,20.5960849 34.6747971,20.8626547 34.4910345,21.1054634 C34.3503529,21.2912455 34.3082375,21.4855668 34.2969473,21.7010502 C34.290708,21.820524 34.2874398,21.9402205 34.2846172,22.059917 C34.2810519,22.2069388 34.2127166,22.3132697 34.0805026,22.373415 C33.7778216,22.5111551 33.7183253,22.5736765 33.7627433,23.0280333 C33.7695026,23.0967177 33.7874777,23.1660704 33.782204,23.2337895 C33.7730679,23.3527435 33.7367462,23.4520946 33.5867798,23.4649404 C33.4602852,23.4757814 33.382888,23.5519655 33.3687753,23.6849534 C33.3343105,24.0096636 33.3019998,24.3345966 33.2604043,24.6583416 C33.245326,24.7755877 33.2349271,24.9086499 33.1732025,25.0019864 C32.8601227,25.4755006 32.9159794,25.9990615 32.9357372,26.5209146 C32.9474731,26.8291406 32.9513355,27.1377379 32.9543066,27.4462609 C32.9547523,27.4943028 32.9454676,27.5535571 32.9172421,27.5891245 C32.7045856,27.8576991 32.6718292,28.1902802 32.5863357,28.5031842 C32.5263938,28.7224546 32.4596925,28.925909 32.299773,29.1061963 C32.2218559,29.1941123 32.2144281,29.3757362 32.2301007,29.5083529 C32.2575834,29.7400236 32.2381227,29.9454086 32.0296256,30.0751293 C31.7084496,30.274871 31.6337264,30.5825772 31.6392229,30.9216184 C31.6451651,31.2928113 31.6648486,31.664227 31.6929998,32.0343803 C31.7261276,32.4709162 31.6938912,32.8888145 31.4383765,33.2646111 C31.2523855,33.538235 31.203808,33.8503222 31.2395355,34.1682754 C31.3008887,34.7132213 31.2022482,35.2086402 30.9243016,35.6895054 C30.7057771,36.0676039 30.547566,36.4817153 30.3770991,36.8859509 C30.2766758,37.1240817 30.3750193,37.2716975 30.6293456,37.2725885 C30.9100404,37.2736281 31.1913294,37.2593714 31.4712071,37.2367984 C31.636029,37.2234328 31.7205568,37.1147257 31.6899545,36.9480268 C31.6509588,36.7358105 31.7550959,36.6135151 31.9294995,36.5319848 C32.4309471,36.2975667 32.9339546,36.0667128 33.4356993,35.8328888 C33.5497153,35.7797976 33.6611316,35.7210631 33.7732164,35.6638137 C33.9502941,35.5734473 34.1059055,35.4625869 34.1877593,35.2690082 C34.2105625,35.2149517 34.2638938,35.1737411 34.3300751,35.0943642" id="Fill-12" fill="#FFFFFF"></path>
            <path d="M27.5780171,32.7729272 C27.812437,32.8275777 27.8047864,32.6756552 27.814591,32.5313808 C27.8221673,32.4197036 27.7857713,32.2799587 27.9800814,32.2783251 C28.2171752,32.2763203 28.3199753,32.341292 28.3440413,32.5333114 C28.3549601,32.6207077 28.3635763,32.7085495 28.378506,32.7953517 C28.437111,33.1362492 28.3020745,33.4256149 28.1119983,33.6851306 C27.9452452,33.9127174 27.8869373,34.1588675 27.8913197,34.4288529 C27.9014214,35.0396617 27.9151628,35.6504704 27.9260816,36.2612791 C27.92727,36.3303348 27.9219963,36.3997617 27.9152371,36.4685947 C27.9041697,36.5802718 27.8501699,36.6378925 27.7280577,36.6217795 C27.5406555,36.5971274 27.3796961,36.6115325 27.3869753,36.8685236 C27.387718,36.8943638 27.3075726,36.945673 27.2647144,36.94597 C26.6532618,36.9502024 26.0418091,36.9496084 25.4303565,36.9416633 C25.3949261,36.9412178 25.3320873,36.8689692 25.330676,36.8283525 C25.3261451,36.7003396 25.2472624,36.6693759 25.1473591,36.6556391 C24.9355195,36.6263832 24.7495286,36.7313776 24.6716115,36.9330499 C24.6319473,37.0355196 24.5713368,37.0742799 24.4605147,37.0801459 C24.2355281,37.092175 24.0491657,37.0818538 23.9370809,36.8265705 C23.9017991,36.7463025 23.7126885,36.6958844 23.594513,36.696924 C23.2679889,36.6997456 22.9421334,36.7437036 22.6154608,36.7581831 C22.3851262,36.76843 22.3034952,36.6839296 22.3101801,36.4579764 C22.31174,36.4068158 22.3601689,36.3569175 22.3874288,36.3065737 C22.4376404,36.2139797 22.522911,36.124727 22.5316015,36.0284203 C22.5531419,35.7908094 22.5350182,35.5499312 22.5418518,35.3106124 C22.5457142,35.1736149 22.5642836,35.0528788 22.7117988,34.9623638 C22.7874876,34.9159554 22.832574,34.7551225 22.8218781,34.6533211 C22.813559,34.5739441 22.7103875,34.4705834 22.6268253,34.4406592 C22.4866636,34.3903897 22.3993132,34.3230418 22.3692308,34.175426 C22.3426394,34.0454825 22.4039184,33.9755358 22.5088725,33.9195487 C22.6084044,33.8664575 22.7208606,33.7778731 22.6219972,33.6712452 C22.2492726,33.2693114 22.382675,32.8164397 22.4668315,32.3695826 C22.5691116,31.826493 22.6696091,31.2819926 22.8038286,30.7464026 C22.8600567,30.5222315 22.9686505,30.2941249 23.1104463,30.112204 C23.3545223,29.7990773 23.5469753,29.4754066 23.6455416,29.0857989 C23.7239044,28.7763106 23.84208,28.4830095 24.1745462,28.3212113 C24.2598168,28.2796294 24.2966585,28.0703832 24.2988125,27.9372468 C24.3121082,27.0854857 24.5777989,26.3503768 25.1855377,25.7296181 C25.4626672,25.4464897 25.6741353,25.0964591 25.8985278,24.765363 C26.0155892,24.592501 25.9728053,24.3884526 25.9257133,24.1971758 C25.8706737,23.9738957 25.9035044,23.7798715 26.0634239,23.6024801 C26.303786,23.335836 26.5204535,23.0470644 26.768392,22.7879942 C27.2078178,22.328811 27.2048467,21.781786 27.1075432,21.2147125 C27.098407,21.1614728 26.9973896,21.0852145 26.9390817,21.0852888 C26.3845257,21.0855115 25.8291525,21.0849918 25.2761563,21.1198909 C25.121659,21.1296923 24.9484438,21.2271871 24.8298969,21.3350773 C24.6321701,21.5150676 24.4568008,21.7253533 24.302155,21.9441782 C24.2329284,22.0420442 24.219187,22.1904026 24.2114622,22.3177472 C24.1992806,22.5197165 24.1608049,22.5475616 23.9597356,22.5318941 C23.870454,22.5249143 23.7288067,22.5683525 23.6921136,22.6341411 C23.6127852,22.7764849 23.5518034,22.9463768 23.5440785,23.107878 C23.5255091,23.4973372 23.5432615,23.8885043 23.5421473,24.2790031 C23.5419987,24.3324655 23.5325655,24.4200103 23.5015918,24.4338215 C23.2720742,24.5360684 23.3460546,24.7162073 23.3880957,24.9258247 C23.2702915,24.9258247 23.16712,24.9359974 23.0682566,24.9198844 C23.036763,24.9147609 22.9909337,24.8363493 22.995836,24.796995 C23.0226502,24.5815858 22.9353741,24.4024865 22.8711983,24.2040071 C22.7684725,23.8862767 22.6780025,23.5311968 22.7209349,23.2104962 C22.7535427,22.9666479 22.806874,22.7221314 22.8003376,22.4731596 C22.7972922,22.3558392 22.766467,22.2367367 22.7311109,22.1237973 C22.7146213,22.0710031 22.6623299,21.9970467 22.6182091,21.9909579 C22.4676485,21.9703154 22.4623748,21.8787609 22.4633404,21.761292 C22.4671286,21.3075293 22.4642317,20.8537666 22.4654945,20.4000781 C22.4665343,20.03438 22.565472,19.9175793 22.9303233,19.9140894 C23.9760766,19.9042137 25.0219043,19.9062186 26.067732,19.9043622 C26.6148603,19.9033969 27.1619886,19.9042137 27.7186244,19.9042137 C27.7186244,20.2029353 27.7250866,20.4711387 27.7158019,20.7388223 C27.7114195,20.8649788 27.7022091,20.9726463 27.8417023,21.0409595 C27.8841148,21.0616762 27.9207336,21.1423897 27.9202879,21.1953324 C27.9121174,22.20956 27.8982275,23.2237876 27.8841148,24.2380152 C27.8835948,24.2746221 27.8806237,24.3234066 27.8581919,24.3456826 C27.6920331,24.5102282 27.7278349,24.7174696 27.7370453,24.9149837 C27.7515294,25.2251403 27.6545229,25.4974276 27.4806392,25.7464736 C27.291083,26.0180184 27.1593889,26.3113194 27.0846657,26.6363267 C27.0502752,26.7855761 26.9738436,26.9323751 26.8876074,27.0609078 C26.7336301,27.2903509 26.6639577,27.5329369 26.6745052,27.8083429 C26.6806702,27.9702153 26.670717,28.1364688 26.6371436,28.2942573 C26.6245164,28.3532888 26.5284012,28.4294728 26.4634827,28.4367496 C26.0850386,28.4794454 25.7446247,28.898606 25.7890427,29.2798973 C25.8072407,29.435681 25.8130343,29.5932468 25.8186794,29.7502186 C25.822319,29.8500152 25.7732216,29.8967206 25.6710157,29.9328077 C25.5746034,29.9668901 25.4721004,30.0440394 25.418992,30.1308416 C25.0054147,30.8065479 24.7559165,31.5530918 24.5035957,32.298225 C24.1407499,33.369702 23.7735961,34.4396939 23.4085963,35.5104284 C23.394335,35.5520846 23.3788853,35.5939635 23.3714575,35.6370305 C23.3386269,35.826154 23.4903759,35.9616665 23.6676021,35.8920168 C23.7776071,35.8488013 23.8877607,35.7919974 23.9794191,35.7184123 C24.2465211,35.5041169 24.5488307,35.3756584 24.8812969,35.3098699 C25.263752,35.2341314 25.5304083,35.0187222 25.6690102,34.6522073 C25.7860716,34.3426447 25.9954599,34.1194389 26.288262,33.9687787 C26.3944789,33.9141282 26.4957191,33.8497504 26.5986678,33.7888626 C26.7958004,33.6722105 26.9227407,33.5257085 26.8929554,33.2694599 C26.8718606,33.0888755 26.9734722,33.0171467 27.1499556,33.0483332 C27.1931852,33.0559813 27.2353005,33.0697924 27.2783815,33.0784058 C27.595918,33.141447 27.6254804,33.11479 27.5780171,32.7729272" id="Fill-14" fill="#FFFFFF"></path>
            <path d="M18.8105422,19.9677598 C19.3894613,19.9843926 19.9682318,20.004441 20.5472994,20.0158018 C20.7800852,20.0204055 21.0133167,20.0005056 21.2463253,20.0015451 C21.4753972,20.0025847 21.5965439,20.0830011 21.608354,20.2240084 C21.6263292,20.4378583 21.4843848,20.675692 21.3109468,20.7226202 C20.9296802,20.8256839 20.6837473,21.1436371 20.7070704,21.5337647 C20.7121956,21.6193789 20.7748115,21.7158341 20.8380217,21.7810286 C21.0081915,21.9561924 21.0292864,22.0481182 20.8668414,22.2333062 C20.7376728,22.3805508 20.6928091,22.5358147 20.6965973,22.7308042 C20.728091,24.3496032 20.7479973,25.9686993 20.780011,27.5874983 C20.7832792,27.7539745 20.8427012,27.9194111 20.8767946,28.0851448 C20.9242579,28.3154789 20.8844452,28.3935193 20.6841929,28.5224232 C20.6371753,28.5527186 20.5912717,28.62519 20.5897119,28.6795435 C20.5721824,29.2900552 20.584661,29.8993046 20.6924377,30.5035048 C20.7265311,30.6946331 20.7567621,30.8888058 20.7600303,31.0820875 C20.7613673,31.1616129 20.702688,31.2571028 20.6441573,31.320144 C20.3899796,31.5942877 20.3806207,31.7129446 20.5198168,32.0538421 C20.5813928,32.2046508 20.5776047,32.3864232 20.5827298,32.55483 C20.5903061,32.8009801 20.5854781,33.0448284 20.713904,33.2701133 C20.7453976,33.3253579 20.7428722,33.4039923 20.7438378,33.4720826 C20.7471803,33.7051642 20.7341074,33.9389882 20.7481459,34.1712529 C20.763967,34.4318082 20.7341074,34.6688994 20.5463338,34.8698292 C20.5095665,34.9091835 20.494711,34.983734 20.4967164,35.0411319 C20.500356,35.1471658 20.5435856,35.2540907 20.5355636,35.3579713 C20.5106063,35.6799341 20.7092987,35.8256936 20.9566429,35.9563054 C21.1955195,36.082462 21.4350645,36.2149301 21.6486867,36.3782134 C21.7520068,36.457219 21.8265814,36.6052804 21.8606005,36.7360407 C21.9096237,36.9244216 21.764931,37.0388462 21.5715123,37.0225104 C21.3942862,37.0075112 21.2146831,37.0210996 21.0361199,37.019763 C20.9934103,37.019466 20.941416,37.0239955 20.9094024,37.0026847 C20.5482651,36.7624006 20.1539999,36.8799438 19.7698365,36.8926412 C19.7072205,36.8947203 19.644976,36.9112788 19.5824343,36.9123926 C19.2889638,36.9174418 19.0275068,36.9824136 18.8300029,37.2290092 C18.753497,37.3245734 18.6460917,37.446943 18.4946398,37.3334095 C18.3624258,37.2342069 18.3292237,37.0353563 18.4500733,36.8934579 C18.5952116,36.7229721 18.7657528,36.5701585 18.9423105,36.4313046 C19.1493963,36.2684668 19.267349,36.0598889 19.2779707,35.8079471 C19.3031508,35.2102069 19.3043392,34.6114273 19.3253597,34.0133902 C19.3291479,33.9064652 19.363687,33.7914467 19.4158298,33.6978131 C19.4846108,33.5740326 19.4854278,33.485077 19.3854503,33.3777065 C19.3321933,33.3206056 19.2868097,33.2235564 19.2934204,33.1494515 C19.3159265,32.8957275 19.3735659,32.6452707 19.3980775,32.391621 C19.4299425,32.0616387 19.4606934,31.7298744 19.460322,31.3990011 C19.4594307,30.65565 19.4355133,29.9123732 19.4274171,29.1690221 C19.4141214,27.9530479 19.412413,26.736851 19.3941407,25.5209511 C19.3737144,24.1666428 19.3402895,22.8125572 19.3121383,21.4583232 C19.3106528,21.389119 19.3068646,21.3197663 19.3014424,21.2507106 C19.273514,20.896299 19.1206509,20.7226944 18.7599592,20.7005669 C18.5239052,20.6860875 18.3320463,20.5925282 18.1613565,20.4540455 C18.0846278,20.3918212 17.9969061,20.2592045 18.0162182,20.1852481 C18.0373873,20.1044604 18.1688586,20.0212223 18.2661621,19.9984265 C18.441977,19.9572901 18.6281165,19.9602602 18.8099479,19.9448155 C18.8101708,19.9524636 18.8103193,19.9601117 18.8105422,19.9677598" id="Fill-16" fill="#FFFFFF"></path>
            <path d="M11.698914,33.2796551 C11.914096,33.7905187 11.9605195,34.2939569 11.7894583,34.8230126 C11.5929943,35.4307769 11.5000731,36.0567333 11.4878173,36.6956841 C11.4830635,36.9434678 11.3997984,37.1623669 11.2061569,37.3322588 C10.8653715,37.6312773 10.5285972,37.9349739 10.1880347,38.2342152 C10.1516387,38.2661442 10.1032841,38.2899795 10.0564149,38.3034194 C9.81003635,38.3739601 9.56232078,38.4399714 9.27338118,38.5189028 C9.30457774,38.4407882 9.31237688,38.3946768 9.33755697,38.3620053 C9.63177028,37.9798972 9.59723122,37.5379408 9.57234825,37.0973209 C9.55080776,36.7139505 9.53506093,36.3300602 9.50520136,35.9472838 C9.49212851,35.7793225 9.52592479,35.6372015 9.6419463,35.5151288 C9.7711892,35.379245 9.80743664,35.2193032 9.80320282,35.0318132 C9.78433633,34.2005461 9.77898835,33.3689819 9.76494989,32.5376405 C9.76190451,32.3575017 9.7636129,32.1779569 9.61320089,32.0304896 C9.57628496,31.9943282 9.59604278,31.8390643 9.64320902,31.790354 C9.77638863,31.6529109 9.83737049,31.5093048 9.86314479,31.3149835 C9.91424773,30.9304993 9.91513906,30.5547027 9.86009941,30.1710352 C9.8363306,30.005153 9.88854771,29.8280586 9.9080827,29.6562362 C9.93571394,29.4136502 9.97381832,29.1719553 9.99127354,28.9287011 C10.0128883,28.6273806 10.016008,28.3247236 10.0319776,28.0228835 C10.0343545,27.9772919 10.0628771,27.9331853 10.0793667,27.8883362 C10.1272014,27.9097955 10.1849151,27.9205622 10.2214596,27.9542733 C10.6377852,28.338312 11.0483914,28.7287366 11.4662768,29.1112902 C11.6345154,29.2652918 11.6192885,29.4486978 11.6065871,29.6494791 C11.5953711,29.825534 11.5967081,30.0150287 11.6505594,30.1795743 C11.7325618,30.4301054 11.7518739,30.6687559 11.6743282,30.918099 C11.6481825,31.0020796 11.6302073,31.0887333 11.6007191,31.1713774 C11.487743,31.4888851 11.5501361,31.7701571 11.7884927,32.0024218 C11.9144674,32.1251627 11.9241235,32.2424831 11.8465778,32.3893564 C11.7878985,32.5003653 11.714438,32.6142701 11.6973542,32.7340408 C11.6716542,32.9141054 11.633327,33.1239456 11.698914,33.2796551 M10.2229452,21.9446462 C10.4786084,21.929647 10.7361286,21.9335824 10.992089,21.9455372 C11.0465344,21.9481361 11.1267542,22.0085784 11.1452493,22.0602588 C11.2073453,22.2332693 11.3330972,22.2640844 11.4898228,22.2527236 C11.5086893,22.2513871 11.5290413,22.2450755 11.5461994,22.249902 C11.6382293,22.2761135 11.7928751,22.2874743 11.8066907,22.3370755 C11.8296425,22.4198681 11.7892355,22.5523362 11.7275109,22.6199811 C11.5895775,22.7708641 11.5869035,22.8921942 11.715775,23.0473839 C11.8309795,23.1861635 11.7996344,23.3484073 11.7547707,23.5145122 C11.717112,23.6538116 11.6986169,23.8044718 11.7066389,23.9481522 C11.7174834,24.1417309 11.7725973,24.332488 11.7892355,24.5260667 C11.8087705,24.7526139 11.744149,24.85694 11.5219107,24.873944 C11.1287597,24.9039424 10.916623,25.1372467 10.7607145,25.459655 C10.7305578,25.5218794 10.6867341,25.5785348 10.6633367,25.6429125 C10.5766548,25.8819343 10.4102731,25.9597519 10.1623347,25.9350998 C10.0276695,25.9216599 9.99298192,25.8726526 9.99379897,25.7490207 C9.99773568,25.1568496 9.99558163,24.5646042 9.99558163,23.9724331 C9.99528452,23.9723588 9.99506169,23.9723588 9.99476458,23.9722846 C9.99476458,23.3864993 9.99654724,22.8006397 9.99365042,22.2147801 C9.99283336,22.0532789 10.0732759,21.9534081 10.2229452,21.9446462 M14.1942677,33.9073193 C14.1871371,32.9622216 14.1688648,32.0172725 14.1617342,31.0721748 C14.1605458,30.9141635 14.1103341,30.8012983 13.9700239,30.7369206 C13.7774222,30.648559 13.7130979,30.4866123 13.7094583,30.2937019 C13.7064129,30.1368044 13.7150291,29.9793128 13.7259479,29.8225638 C13.7533563,29.4275356 13.7924263,29.0331756 13.8111442,28.6377761 C13.8184977,28.4831805 13.8131497,28.2962846 13.6475851,28.2221054 C13.2149928,28.0282297 13.1111528,27.736785 13.2733749,27.2940118 C13.3649591,27.0442232 13.2321509,26.9036615 12.9628948,26.8757422 C12.8376629,26.8627479 12.7120596,26.8522781 12.5873476,26.8354226 C12.3865754,26.8083944 12.3313872,26.718622 12.4174749,26.5386316 C12.4685036,26.4319295 12.5426325,26.335994 12.6087395,26.2368657 C12.9854752,25.6722426 13.3757293,25.1160844 13.7354554,24.5408431 C13.9696525,24.1663088 14.0783205,23.7425445 14.0420731,23.2954646 C13.9957982,22.725124 13.9557626,22.1533726 13.8813365,21.5864476 C13.8048306,21.0037067 13.3031602,20.4906155 12.7280292,20.3678746 C12.4934608,20.3178278 12.3170517,20.2106801 12.1869174,19.999132 C12.1254899,19.8991869 12.0000351,19.8054048 11.8869105,19.7780796 C11.6998796,19.7329335 11.4989589,19.7293693 11.3045003,19.7335275 C10.3282707,19.7545412 9.35204108,19.7806042 8.37610858,19.8123104 C8.15721269,19.8194387 7.92487256,19.8163944 7.72447178,19.8890142 C7.43984027,19.9922265 7.1607053,20.0012854 6.87050298,19.9783411 C6.2237685,19.9271805 6.15639877,20.0444266 6.02945847,20.4595776 C6.02775009,20.4649981 6.07424782,20.4688592 5.99997029,20.4735372 L5.99997029,20.6247915 C6.29708042,21.0898407 6.69067707,21.3440102 7.06132196,21.6693887 C7.09779223,21.7013919 7.17570936,21.7152773 7.22599525,21.7085203 C7.40329572,21.6848334 7.45848393,21.7913871 7.45788971,21.9306123 C7.45729549,22.08699 7.44682236,22.2404718 7.28868549,22.3457632 C7.23015479,22.3847462 7.18566255,22.4874387 7.18447411,22.5618407 C7.16538478,23.8219956 7.15424315,25.0822991 7.14213592,26.3426026 C7.14035326,26.5282362 7.10016911,26.7282006 7.34461647,26.8176018 C7.38836594,26.8335663 7.42765875,26.9202943 7.43129835,26.9767269 C7.44065732,27.119739 7.46836284,27.2800521 7.41800268,27.4049464 C7.23015479,27.871258 7.24278197,28.3537567 7.25615193,28.8382604 C7.26149991,29.0325073 7.24293053,29.2418278 7.30822048,29.4171401 C7.45298739,29.8060796 7.38212663,30.1647979 7.24716435,30.5294565 C7.2281493,30.5809884 7.21715623,30.6385348 7.21663628,30.6934081 C7.20371199,32.0293758 7.19234753,33.3653435 7.18232006,34.701237 C7.18172584,34.7763814 7.1901192,34.8522684 7.20118656,34.9267446 C7.36222025,36.005944 7.31995633,37.0875937 7.22309843,38.1675356 C7.18454839,38.5972402 7.07394914,39.020559 7.03799882,39.4502636 C7.0082878,39.8044525 6.81182373,39.9771659 6.51055405,40.081195 C6.44570977,40.1035453 6.3712094,40.1013919 6.31007899,40.129831 C6.25340523,40.1561167 6.1741511,40.2038617 6.16835746,40.2501216 C6.1622667,40.298312 6.22295144,40.3676647 6.27160323,40.4062023 C6.31810096,40.4431062 6.38554496,40.4666446 6.44563549,40.471174 C6.78359826,40.4966429 7.12200671,40.5271611 7.4605637,40.5317648 C7.82563778,40.5367398 8.19294018,40.4886978 8.55563737,40.5146123 C8.785972,40.5310965 8.95517623,40.5051821 9.12118651,40.3329884 C9.27085574,40.1776502 9.4286955,40.2181183 9.54404851,40.3971433 C9.66578939,40.5860441 9.75165421,40.5928011 9.93927926,40.4660505 C10.0394797,40.3982571 10.1671627,40.3170982 10.2760536,40.3254888 C10.7106514,40.3590513 11.0168234,40.1559682 11.3028662,39.8637067 C11.7000282,39.4579117 12.1749587,39.1588189 12.7047804,38.9571466 C12.8731675,38.8930659 12.9643804,38.7929722 13.0007021,38.6277584 C13.0222426,38.5298181 13.0502452,38.4321006 13.0593813,38.3327495 C13.1119698,37.7584735 13.2719636,37.2261506 13.6166114,36.7521167 C13.8231772,36.4680231 13.955614,36.1450949 13.9541285,35.7865994 C13.9530143,35.5290142 13.9330337,35.2709835 13.9100076,35.0142152 C13.8830449,34.7127463 13.8781426,34.4264993 14.1153107,34.1853984 C14.1752527,34.1245106 14.1950105,34.0014726 14.1942677,33.9073193" id="Fill-18" fill="#FFFFFF"></path>
        </g>
    </g>
</svg>