<?xml version="1.0" encoding="UTF-8"?>
<svg width="60px" height="60px" viewBox="0 0 60 60" version="1.1" xmlns="http://www.w3.org/2000/svg" xmlns:xlink="http://www.w3.org/1999/xlink">
    <!-- Generator: Sketch 41.2 (35397) - http://www.bohemiancoding.com/sketch -->
    <title>wargaming</title>
    <desc>Created with Sketch.</desc>
    <defs>
        <path d="M29.7026612,59.4053225 C46.1069881,59.4053225 59.4053225,46.1069881 59.4053225,29.7026612 C59.4053225,13.2983344 46.1069881,0 29.7026612,0 C13.2983344,0 0,13.2983344 0,29.7026612 C0,46.1069881 13.2983344,59.4053225 29.7026612,59.4053225 Z" id="path-1"></path>
        <polygon id="path-3" points="30.9488377 61.3729498 61.8975937 61.3729498 61.8975937 0.10120869 30.9488377 0.10120869 8.17941952e-05 0.10120869 8.17941952e-05 61.3729498 30.9488377 61.3729498"></polygon>
        <polygon id="path-5" points="36.8980129 36.9195884 0 36.9195884 0 2.65340686e-05 36.8980129 2.65340686e-05 36.8980129 36.9195884"></polygon>
    </defs>
    <g id="Symbols" stroke="none" stroke-width="1" fill="none" fill-rule="evenodd">
        <g id="wargaming">
            <g>
                <mask id="mask-2" fill="white">
                    <use xlink:href="#path-1"></use>
                </mask>
                <use id="Mask" fill="#C01D1C" xlink:href="#path-1"></use>
                <g id="Page-1" mask="url(#mask-2)">
                    <g transform="translate(-1.000000, -1.000000)" id="Group-3">
                        <g transform="translate(0.000000, 0.060563)">
                            <mask id="mask-4" fill="white">
                                <use xlink:href="#path-3"></use>
                            </mask>
                            <g id="Clip-2"></g>
                            <path d="M61.8976755,30.7371602 C61.8976755,47.6566623 48.0409208,61.3729498 30.9488786,61.3729498 C13.8565092,61.3729498 8.17941952e-05,47.6566623 8.17941952e-05,30.7371602 C8.17941952e-05,13.8171723 13.8565092,0.10120869 30.9488786,0.10120869 C48.0409208,0.10120869 61.8976755,13.8171723 61.8976755,30.7371602" id="Fill-1" fill="#F61F29" mask="url(#mask-4)"></path>
                        </g>
                    </g>
                </g>
                <g id="Page-1" mask="url(#mask-2)">
                    <g transform="translate(11.000000, 11.000000)">
                        <mask id="mask-6" fill="white">
                            <use xlink:href="#path-5"></use>
                        </mask>
                        <g id="Clip-2" stroke="none" fill="none"></g>
                        <path d="M33.2221664,20.5707444 C32.6148054,24.9948491 29.9009823,29.0723292 26.0418957,31.3237191 C26.9921412,27.9898455 27.2801267,24.5117119 27.175004,21.0576217 C28.0073036,21.2830946 28.833726,21.532878 29.6574769,21.78747 C28.5520184,18.998044 27.2758523,16.2717986 25.7039534,13.7138563 C24.3353542,16.3707769 22.5110004,18.7689646 20.4849498,20.9570404 C21.5106646,20.9126939 22.5343758,20.816387 23.559957,20.7887372 C21.9736321,23.6305242 19.5727729,26.0854809 16.5314264,27.3405422 C15.2385635,27.8952751 13.8598126,28.2273401 12.472513,28.4415928 C11.7267693,24.6269863 11.9597224,20.5991957 13.2732892,16.9336578 C14.216856,14.3192137 15.8650256,11.8997877 18.1916177,10.3356361 C18.406004,11.3107264 18.6015563,12.2922282 18.8138054,13.2681199 C20.3271989,10.9936217 22.2442531,9.03275523 24.1105491,7.05051697 C21.2500617,5.89015957 18.0485599,5.64665415 15.0221736,6.19497545 C15.5519282,6.66782744 16.0921014,7.13039422 16.6342783,7.59269386 C13.8157332,8.80821733 11.1419823,10.4471704 9.00025668,12.6670368 C6.68595343,14.9160224 4.99223502,17.7162679 3.65128556,20.6312534 C3.17843357,17.0992895 3.94982347,13.3984881 5.90841913,10.4117733 C7.62778375,7.72332924 10.2466357,5.62741949 13.2354877,4.51341227 L13.2354877,4.51341227 C16.2539931,3.3827083 19.6399606,3.2691704 22.7279245,4.20498989 C26.4960473,5.32514152 29.7751556,7.99902599 31.6059209,11.4818347 C33.0917982,14.2350621 33.6677693,17.4723617 33.2221664,20.5707444 M36.0615491,12.9395278 C34.8515022,9.0236722 32.2783325,5.54727509 28.8922314,3.23764693 C25.7250581,1.0347444 21.8404588,-0.081132852 17.9900545,0.00462166065 C12.2792314,0.103867148 6.72201841,3.04823899 3.42741552,7.71264332 C1.2039426,10.8106253 -0.0382956679,14.6176181 0.00137581227,18.4367661 C-0.0525880866,22.6507588 1.46027112,26.8525964 4.12988123,30.1084628 C6.83702563,33.4634412 10.7658379,35.8146108 15.009217,36.5972209 C18.8850004,37.3364195 23.0004155,36.7986505 26.5399931,35.0433545 C30.7101736,33.0321307 34.0523289,29.3723365 35.6896791,25.0403978 C37.1631339,21.2006794 37.291365,16.8637986 36.0615491,12.9395278" id="Fill-1" stroke="none" fill="#FFFFFF" fill-rule="evenodd" mask="url(#mask-6)"></path>
                    </g>
                </g>
            </g>
        </g>
    </g>
</svg>