<?xml version="1.0" encoding="UTF-8"?>
<svg width="60px" height="60px" viewBox="0 0 60 60" version="1.1" xmlns="http://www.w3.org/2000/svg" xmlns:xlink="http://www.w3.org/1999/xlink">
    <!-- Generator: Sketch 41.2 (35397) - http://www.bohemiancoding.com/sketch -->
    <title>steam</title>
    <desc>Created with Sketch.</desc>
    <defs>
        <path d="M0,30 C0,13.4314575 13.4315082,7.10542736e-15 29.9945354,7.10542736e-15 L30,7.10542736e-15 L30.0054646,7.10542736e-15 C46.5709891,7.10542736e-15 60,13.4278145 60,30 L60,30 C60,46.5685425 46.5721855,60 30,60 L30,60 C13.4314575,60 0,46.5721855 0,30 L0,30 Z" id="path-1"></path>
    </defs>
    <g id="Symbols" stroke="none" stroke-width="1" fill="none" fill-rule="evenodd">
        <g id="steam">
            <g id="Group">
                <mask id="mask-2" fill="white">
                    <use xlink:href="#path-1"></use>
                </mask>
                <use id="Mask" fill="#000000" transform="translate(30.000000, 30.000000) rotate(-270.000000) translate(-30.000000, -30.000000) " xlink:href="#path-1"></use>
                <path d="M-1.016,26.5973333 L16.3493333,34.1073333 C17.6886667,33.1913333 19.3066667,32.6553333 21.0473333,32.6553333 C21.2033333,32.6553333 21.3586667,32.66 21.5126667,32.6686667 L28.542,22.48 C28.5413333,16.2033333 33.5306667,11.214 39.6633333,11.214 C45.796,11.214 50.7846667,16.2033333 50.7846667,22.336 C50.7846667,28.4686667 45.796,33.4586667 39.6633333,33.4586667 C39.5786667,33.4586667 39.4946667,33.4566667 39.4113333,33.4546667 L29.3853333,40.608 C29.3913333,40.7386667 29.3953333,40.8706667 29.3953333,41.0033333 C29.3953333,45.6066667 25.6506667,49.3513333 21.0473333,49.3513333 C17.0066667,49.3513333 13.628,46.4666667 12.8626667,42.648 L0,37 L-1.016,26.5973333 Z" id="Fill-43" fill="#FFFFFF" mask="url(#mask-2)"></path>
                <path d="M19.024,45.1946667 L15.402,43.698 C16.044,45.0346667 17.1546667,46.1533333 18.6293333,46.768 C21.8166667,48.0966667 25.492,46.584 26.8206667,43.394 C27.464,41.85 27.468,40.1473333 26.8306667,38.6 C26.194,37.0533333 24.992,35.8466667 23.4473333,35.202 C21.9146667,34.5646667 20.2726667,34.588 18.83,35.1326667 L22.5726667,36.6793333 C24.924,37.66 26.0353333,40.36 25.056,42.7113333 C24.0766667,45.0626667 21.3753333,46.1746667 19.024,45.1946667" id="Fill-44" fill="#1A1918" mask="url(#mask-2)"></path>
                <path d="M34.1086667,22.3233333 C34.1086667,19.2486667 36.6013333,16.7566667 39.676,16.7566667 C42.7506667,16.7566667 45.2426667,19.2486667 45.2426667,22.3233333 C45.2426667,25.398 42.7506667,27.89 39.676,27.89 C36.6013333,27.89 34.1086667,25.398 34.1086667,22.3233333 Z M47.074,22.336 C47.074,18.25 43.7493333,14.9246667 39.6633333,14.9246667 C35.5773333,14.9246667 32.252,18.25 32.252,22.336 C32.252,26.422 35.5773333,29.746 39.6633333,29.746 C43.7493333,29.746 47.074,26.422 47.074,22.336 L47.074,22.336 Z" id="Fill-45" fill="#1A1918" mask="url(#mask-2)"></path>
            </g>
        </g>
    </g>
</svg>