<svg width="60" height="60" xmlns="http://www.w3.org/2000/svg"><g fill="none" fill-rule="evenodd"><path d="M30 0c16.569 0 30 13.432 30 29.995v.01C60 46.571 46.572 60 30 60 13.431 60 0 46.572 0 30 0 13.431 13.428 0 30 0z" fill="#282828"/><path d="M18.283 25.653l-2.248.298v10.756h2.248V25.653zm2.54 4.065l-2.125.173v2.528l2.126-.124v-2.577zm-5.57-3.644l-5.814.818v2.206l5.814-.67v-2.354zm10.579 10.633h3.688v-2.8l-3.688.098v2.702zm-.49-12.07l-2.54.372v11.698h2.54v-12.07zm-6.644 12.07h3.25V34.13l-3.25.1v2.478zm0-8.65l3.25-.371v-2.554l-3.25.446v2.48zm-5.277 8.65V29l-2.125.223v7.485h2.125zm35.595 0l.024-3.42-10.016.322v3.098h9.992zm-6.767-8.947c-.147-1.983.464-2.478 1.075-2.727v-3.32c-2.908.62-4.324 2.8-4.178 6.32l3.103-.273zm2.956-2.206c.342.719 0 1.785-.856 2.8-1.27 1.537-4.714 4.71-4.714 4.71l4.934-.174c3.006-2.974 4.08-4.783 4.276-7.063a3.797 3.797 0 0 0-1.173-3.148c-.928-.893-2.296-1.264-3.762-1.041v3.247c.587-.025 1.075.198 1.295.67zm-7.134-2.726l-4.275.594v2.95l4.275-.47v-3.074zm-4.837.669l-2.932.421v12.79h2.932V23.496zm3.371 4.833l-2.809.248v2.999l2.81-.15V28.33zm1.466 5.304l-4.275.124v2.95h4.275v-3.074z" fill="#FFF"/></g></svg>