<svg xmlns="http://www.w3.org/2000/svg" width="80" height="80"><g fill="none"><path fill="#FFF" d="M39.547 0c21.84 0 39.546 17.705 39.546 39.546S61.387 79.093 39.547 79.093C17.705 79.093 0 61.387 0 39.546 0 17.705 17.705 0 39.547 0"/><g fill="#000"><path d="M26.06 22.257V11.269h-2.374v4.329h-3.662v-4.329h-2.373v10.988h2.373v-4.373h3.662v4.373zM38.615 34.552l3.144 10.989h2.383l1.824-7.216 1.842 7.216h2.347l3.084-10.989h-2.572l-1.658 7.175-1.884-7.175h-2.307l-1.879 7.206-1.69-7.206zM38.83 22.91h2.375v10.988H38.83zM53.269 68.969c3.103 0 5.626-2.53 5.626-5.64s-2.523-5.64-5.626-5.64c-3.093 0-5.61 2.529-5.61 5.64-.001 3.109 2.517 5.64 5.61 5.64zm0-8.936c1.801 0 3.267 1.479 3.267 3.296 0 1.817-1.466 3.296-3.267 3.296-1.793 0-3.252-1.479-3.252-3.296 0-1.817 1.459-3.296 3.252-3.296zM34.718 13.555v-2.286h-7.201v10.988h7.201v-2.286H29.89v-2.087h3.645v-2.286H29.89v-2.043zM30.854 26.936l4.093 6.962h2.427V22.91H35v6.731l-3.946-6.731h-2.573v10.988h2.373zM12.192 48.728c-.271 0-.516-.15-.684-.391l-.543.403c.275.311.682.542 1.23.542.672 0 1.057-.467 1.057-.951 0-.585-.468-.769-.882-.902-.325-.108-.618-.188-.618-.422 0-.192.146-.338.418-.338a.62.62 0 0 1 .543.288l.47-.375c-.244-.249-.527-.431-1.018-.431-.588 0-1.014.389-1.014.877 0 .585.455.743.864.868.326.101.631.18.631.43.001.209-.157.402-.454.402zM14.646 49.241v-2.493h.771v-.555h-2.122v.555h.77v2.493zM68.591 33.898v-8.702h2.607V22.91H63.61v2.286h2.607v8.702zM48.074 66.537h-3.586v-8.702h-2.373v10.988h5.959zM66.216 52.057v5.125h2.375v-5.125l3.556-5.864h-2.594l-2.142 3.494-2.127-3.494h-2.595zM54.342 22.91v10.988h2.373v-4.373h3.662v4.373h2.373V22.91h-2.373v4.329h-3.662V22.91zM47.86 25.08c1.292 0 2.229.556 2.866 1.697l2.034-1.325c-1.01-1.686-2.835-2.688-4.915-2.688-3.316 0-5.699 2.425-5.699 5.64s2.421 5.64 5.787 5.64c3.184 0 5.466-2.361 5.466-5.493v-.946h-5.466v2.242h2.833c-.42 1.18-1.393 1.882-2.833 1.882-2.022 0-3.428-1.429-3.428-3.324.001-1.834 1.436-3.325 3.355-3.325zM16.603 44.608c.655-.646 1.016-1.417 1.016-2.331 0-2.281-1.973-3.014-3.296-3.436-1.137-.363-1.937-.639-1.937-1.273 0-.622.492-1.008 1.284-1.008.729 0 1.592.445 2.017 1.036l1.815-1.452c-.961-1.01-1.944-1.738-3.847-1.738-2.119 0-3.717 1.39-3.717 3.234 0 2.236 1.781 2.783 3.227 3.225 1.086.331 1.992.696 1.992 1.396 0 .666-.442 1.227-1.415 1.227-.873 0-1.922-.667-2.457-1.466l-1.948 1.557c1.116 1.383 2.692 2.107 4.42 2.107 1.146.001 2.13-.373 2.846-1.078zM50.028 57.182V46.193h-2.265l-3.058 4.356-3.034-4.356h-2.28v10.989h2.364v-6.978l2.933 4.05 2.976-4.095v7.023zM51.485 46.193v10.989h2.363v-6.978l2.933 4.05 2.977-4.095v7.023h2.364V46.193h-2.265l-3.058 4.356-3.034-4.356zM41.52 66.537h-3.587v-8.702H35.56v10.988h5.96zM21.045 64.45h3.644v-2.286h-3.644v-2.043h4.828v-2.286h-7.202v10.988h2.374zM9.742 13.555h2.067v8.702h2.374v-8.702h2.607v-2.286h-4.887a40.246 40.246 0 0 0-2.161 2.286zM25.064 47.124l1.176 2.117h.618v-3.048h-.581v2.05l-1.132-2.05h-.66v3.048h.579zM30.376 57.327c2.4 0 3.727-1.32 3.727-3.645v-7.489h-2.374v7.489c0 .944-.546 1.447-1.366 1.447-.843 0-1.354-.458-1.712-1.353L26.559 54.9c.801 1.641 2.151 2.427 3.817 2.427zm-2.849 9.557h4.234l.706 1.939h2.483l-4.164-10.988h-2.285l-4.164 10.988h2.483l.707-1.939zm2.118-5.811l1.3 3.568h-2.6l1.3-3.568zm9.304-21.027c0-3.11-2.524-5.64-5.626-5.64-3.094 0-5.611 2.529-5.611 5.64 0 3.111 2.518 5.641 5.611 5.641 3.102 0 5.626-2.531 5.626-5.641zm-5.603 3.296c-1.794 0-3.252-1.479-3.252-3.296 0-1.817 1.458-3.296 3.252-3.296 1.8 0 3.266 1.479 3.266 3.296 0 1.817-1.466 3.296-3.266 3.296zm35.245 23.04v-8.547h-2.374v6.73l-3.883-6.71-.013-.021h-2.573v10.988h2.374v-6.964l4.06 6.918a39.705 39.705 0 0 0 2.409-2.394zM35.56 46.193h2.374v10.988H35.56zM18.662 48.168h.354l.587 1.073h.663l-.693-1.206c.405-.155.59-.482.59-.862 0-.576-.422-.979-1.124-.979h-.956v3.048h.58v-1.074h-.001zm0-1.433h.31c.438 0 .605.132.605.438 0 .216-.155.474-.605.474h-.31v-.912zm3.339-12.691c3.103 0 5.626-2.529 5.626-5.64 0-3.111-2.523-5.64-5.626-5.64-3.094 0-5.61 2.529-5.61 5.64 0 3.111 2.516 5.64 5.61 5.64zm0-8.935c1.802 0 3.267 1.479 3.267 3.295 0 1.817-1.465 3.296-3.267 3.296-1.793 0-3.252-1.479-3.252-3.296 0-1.816 1.459-3.295 3.252-3.295zm-6.146 23.602h1.169l.184.53h.606l-1.082-3.048h-.585l-1.082 3.048h.606l.184-.53zm.585-1.691l.393 1.136h-.785l.392-1.136zM11.81 33.898h2.374v-8.702h2.607V22.91H9.202v2.286h2.608zM22.764 47.173c0-.576-.422-.979-1.124-.979h-.956v3.048h.58v-1.073h.354l.586 1.073h.664l-.693-1.206c.404-.156.589-.483.589-.863zm-1.191.473h-.31v-.911h.31c.438 0 .605.132.605.438.001.216-.154.473-.605.473zM23.308 46.193h1v3.048h-1zM28.88 46.715c.396 0 .685.18.873.526l.5-.325c-.262-.451-.75-.765-1.377-.765-.902 0-1.558.697-1.558 1.565 0 .844.631 1.565 1.582 1.565.907 0 1.491-.705 1.491-1.523v-.233H28.9v.555h.865c-.108.389-.422.64-.865.64a.983.983 0 0 1-1.006-1.003.991.991 0 0 1 .986-1.002zM24.485 45.541h2.373V34.552h-2.373v4.329h-3.662v-4.329H18.45v10.989h2.373v-4.374h3.662z"/></g></g></svg>