<svg xmlns="http://www.w3.org/2000/svg" width="60" height="60" viewBox="0 0 60 60">
  <g fill="none" fill-rule="evenodd">
    <rect width="60" height="60" fill="#8DADB5" rx="30"/>
    <path fill="#FFFFFF" d="M28.9186591,26.9717417 C29.0822147,27.0354135 29.2583514,27.1010385 29.4439241,27.168226 C29.5166591,26.9533823 29.5779924,26.7014292 29.6051206,26.4174448 C29.3554625,26.4139292 29.1109155,26.4084604 28.8734454,26.4018198 C28.8907446,26.5990854 28.9056847,26.7940073 28.9186591,26.9717417 Z M20.9445395,7.18150728 C21.875548,7.41549166 23.1293429,7.68189791 24.0638899,7.69674166 C22.3988471,5.44205416 19.6856335,4.91900728 17.21736,5.58502291 C18.8521292,5.94166353 20.0563856,6.51314791 20.9445395,7.18150728 Z M25.1218899,7.51431978 C25.4883172,7.32955416 25.8008813,7.00611666 26.0580095,6.64596041 C25.5201634,6.28463228 24.8238728,5.94010103 23.9258899,5.67681978 C23.8441121,5.77760103 23.7725565,5.86314791 23.7151548,5.93150728 C24.345001,6.43541353 24.7975309,6.99322603 25.1218899,7.51431978 Z M26.4881292,5.92760103 C26.7794625,5.35455416 26.9288642,4.86041353 26.9296506,4.85728853 C26.9182489,4.90416353 26.8415822,5.40611666 26.5875993,5.99517916 C27.092813,6.34283541 27.4788984,6.70572603 27.7698386,7.04010103 C28.2058557,6.60924166 28.9477531,5.72369478 28.9819583,4.66431978 C29.0275651,3.23775728 27.9219924,3.12760103 27.9192403,3.12760103 C27.8292061,3.11783541 27.7639412,3.03697603 27.7737702,2.94752291 C27.7839924,2.85767916 27.8649839,2.79322603 27.9554112,2.80299166 C27.9589497,2.80338228 29.3652916,2.94361666 29.3098557,4.67447603 C29.2721121,5.86275728 28.4441121,6.83775728 27.9786078,7.29439791 C28.100095,7.45181978 28.1999583,7.59947603 28.2809497,7.73228853 L30.1771719,6.35963228 C31.2461805,4.83306978 31.1726591,3.25260103 31.1726591,3.24674166 C31.169907,3.15689791 31.2410694,3.08150728 31.3314967,3.07877291 C31.4223172,3.07564791 31.4978044,3.14674166 31.5009497,3.23658541 C31.5009497,3.24166353 31.5587446,4.49010103 30.8510523,5.87174166 L36.9773087,1.43736666 L28.7448813,8.76900728 C28.9556164,9.35885103 28.978813,9.88111666 28.9249497,10.3826792 L29.0259924,10.4193979 C30.9992745,9.12955416 33.2438386,8.25572603 33.2501292,8.25260103 C33.2446249,8.25572603 31.7120779,9.53189791 29.9538557,10.7877573 C30.337189,10.9506479 30.7496164,11.140101 31.1761976,11.3572885 C31.6027788,11.1143198 32.3171548,10.7443979 33.1003343,10.493226 C33.6979412,9.77916353 34.1359241,9.52096041 34.1378899,9.51978853 C34.1992232,9.48150728 34.2806078,9.50025728 34.3191377,9.56158541 C34.3572745,9.62291353 34.3384027,9.70377291 34.2766762,9.74166353 C34.2754967,9.74283541 33.9892745,9.91119478 33.5646591,10.361976 C33.7812916,10.3092417 33.9991036,10.2686167 34.2149497,10.2451792 C34.675736,10.1947885 35.0260437,10.2514292 35.293001,10.361976 C35.506095,10.099476 35.690095,9.81978853 35.8253429,9.52642916 C36.4870352,8.09010103 35.3822489,8.71549166 35.3794967,8.71744478 C35.3161976,8.75260103 35.2355993,8.72994478 35.2002147,8.66705416 C35.16483,8.60416353 35.1876335,8.52447603 35.2509326,8.48931978 C35.2560437,8.48658541 37.0641976,7.46314791 36.0639924,9.63463228 C35.9263856,9.93385103 35.7412061,10.2186167 35.5281121,10.4861948 C36.0714625,10.8420542 36.133189,11.4393198 36.133189,11.4420542 C36.1430181,11.5315073 36.0781463,11.6123667 35.9881121,11.6221323 C35.8976847,11.6318979 35.8163001,11.5674448 35.8064711,11.4779917 C35.8060779,11.4760385 35.7588984,11.0127573 35.3106933,10.7428354 C34.5963172,11.5385385 33.6672745,12.1561167 33.0901121,12.4983042 C34.1209839,13.2190073 35.0975993,14.1100229 35.8060779,15.1920542 C36.9018215,14.274476 37.8733258,14.0397104 38.1780266,15.633851 L38.1795993,15.6397104 L38.1980779,15.7381479 C38.2747446,15.6205698 38.3521976,15.505726 38.43083,15.3947885 C38.6392061,15.0983042 38.8357873,14.8986948 39.0193942,14.7717417 C39.0516335,14.6811167 39.0669668,14.630726 39.06736,14.6295542 C39.0889839,14.5604135 39.1628984,14.5221323 39.232095,14.5436167 C39.2725907,14.5561167 39.3024711,14.5861948 39.3162318,14.6229135 C40.1159241,14.374476 40.595189,15.486976 40.5971548,15.4912729 C40.6262489,15.5568979 40.5967617,15.6342417 40.5307104,15.6635385 C40.4642659,15.6928354 40.386813,15.6635385 40.3573258,15.5975229 C40.3557531,15.5943979 39.9311377,14.6076792 39.2230523,14.9799448 C39.0866249,15.3420542 38.8000095,16.024476 38.3254625,16.7830698 C38.3930865,17.718226 38.375001,19.086976 37.9181463,20.3658823 L37.9865565,20.4029917 C37.9165736,20.5311167 37.8414796,20.6490854 37.762454,20.7580698 C37.5764882,21.1811167 37.3362659,21.5881479 37.0284198,21.958851 C35.6197189,23.6561167 33.9660779,24.0717417 33.1290352,24.1701792 C33.2064882,24.6330698 33.2147446,25.161976 33.1133087,25.7611948 C34.0592574,25.749476 35.0401976,25.7283823 35.9904711,25.6943979 C37.5764882,25.636976 39.0752232,25.5424448 40.1815822,25.3943979 C40.9132574,25.2967417 41.3237189,25.1568979 41.5210865,25.0221323 C41.3028813,25.0404917 40.2075309,25.0022104 40.9356677,24.552601 C41.2796847,24.3389292 41.655548,24.3315073 41.9044198,24.4373667 C42.0856677,24.5143198 42.2158044,24.6502573 42.2625907,24.8233042 C42.3097702,24.999476 42.2700608,25.1920542 42.1100437,25.3733042 C41.8847617,25.6272104 41.3331548,25.8990854 40.2688642,26.0412729 C39.1428471,26.1924448 37.6217018,26.2877573 36.0136677,26.3459604 C35.0067788,26.3822885 33.9641121,26.4041635 32.9627275,26.415101 C32.7791206,27.040101 32.5027275,27.5615854 32.1874112,27.9947885 C33.7227104,28.3662729 35.5214283,28.6506479 37.4306249,28.6506479 C42.9199583,28.6506479 45.6394625,27.6725229 45.6394625,27.6725229 C45.6394625,27.6725229 42.3640266,29.324476 38.2991206,29.4885385 C38.1693771,29.9190073 37.7711036,30.5791635 36.5491548,30.5791635 C35.2525053,30.5791635 33.4663685,29.7010385 32.5534454,29.2002573 C33.361001,30.3502573 33.4640095,31.9147104 33.4647959,31.9201792 C33.4714796,32.0100229 33.4034625,32.0885385 33.3130352,32.0951792 C33.2222147,32.1022104 33.1435822,32.0342417 33.1365053,31.9443979 C33.1361121,31.9381479 32.9949668,29.8123667 31.7643685,28.8229135 L31.4934796,28.771351 C31.0240437,29.2037729 30.5518557,29.4861948 30.2141292,29.6565073 L34.0977873,34.2830698 L33.7600608,34.5803354 L29.7887275,30.133851 C29.7136335,30.2092417 29.6259583,30.2924448 29.5249155,30.3799448 C29.2544198,30.9158823 28.8038557,31.6471323 28.083189,32.4443979 C28.6257531,32.5584604 29.4816677,32.8768198 30.2050865,33.7600229 C31.4061976,35.2272104 29.8799412,36.515101 29.8760095,36.5193979 L29.7580608,36.4061167 C29.7612061,36.402601 30.9646762,35.2045542 29.9503172,33.9658823 C29.1844369,33.030726 28.2660095,32.790101 27.8166249,32.7287729 C27.4930523,33.0627573 27.121907,33.4049448 26.6965053,33.7471323 C27.0452403,34.2658823 27.3872916,34.8471323 27.5823001,35.371351 C27.7383856,35.7912729 27.8476847,36.2912729 27.8323514,36.7850229 C27.7800608,38.4928354 26.2129155,39.0514292 24.6854796,39.0049448 C24.2608642,38.9920542 23.8275993,38.918226 23.3947275,38.7990854 C23.6070352,39.7545542 23.7226249,40.9115854 23.6109668,42.2596323 C23.221736,46.9346323 19.1977189,46.6291635 19.1859241,46.6303354 C19.1969326,46.6295542 22.9418044,46.3537729 23.2830694,42.233851 C23.3986591,40.8350229 23.2354967,39.6397104 22.9665736,38.6670542 C22.2805053,38.4330698 21.6038728,38.0986948 20.972454,37.7264292 C20.6968471,38.1811167 20.2423514,38.5209604 19.4965224,38.5014292 C19.3278557,38.4967417 19.1643001,38.468226 19.0070352,38.4209604 C18.6708813,38.5170542 18.2694625,38.452601 17.7913771,38.1299448 C17.4567959,37.9045542 17.1764711,37.6365854 16.94136,37.3545542 C16.2946078,38.305726 15.621907,39.2670542 14.9350523,40.2104135 C14.82536,42.3072885 14.6334967,44.3365854 14.3063856,45.958851 C13.8267275,48.3373667 13.3942489,50.0268198 12.0885565,49.5490854 C12.8524711,49.7014292 13.4300266,48.2697885 13.8330181,46.2725229 C14.1412574,44.743226 14.3394112,42.8365854 14.46483,40.8506479 C13.4669839,42.1967417 12.4467275,43.4928354 11.4402318,44.6533823 C10.6873258,45.5221323 9.78344543,46.4568979 8.94836851,46.7131479 C10.7352916,45.0248667 12.6668984,42.6490854 14.5068984,40.1311167 C14.5587959,39.1779917 14.5949668,38.215101 14.6201292,37.2748667 C12.8332061,39.6346323 10.9401292,41.9514292 9.23144543,43.6678354 C2.68686424,49.7217417 7.16891552,41.7436167 7.4712574,42.0822885 C7.46339415,42.0971323 4.65542834,47.3998667 8.86265911,43.1740854 C10.6755309,41.3533823 12.7243001,38.8865854 14.6401805,36.4233042 L14.6437189,36.2311167 C14.2100608,36.1408823 13.7512403,36.0256479 13.2979241,35.8795542 C13.1119583,36.0908823 12.932283,36.2928354 12.7588984,36.4850229 C12.3055822,38.6740854 10.8921634,40.2783823 10.8878386,40.283851 C10.8280779,40.3514292 10.724283,40.3580698 10.6562659,40.2990854 C10.5878557,40.240101 10.5807788,40.136976 10.6405395,40.0690073 C10.6444711,40.0643198 11.7618386,38.7959604 12.2937873,36.9947885 C12.1148984,37.1885385 11.9458386,37.3686167 11.7897531,37.5322885 C10.0645565,39.9233042 9.37770184,39.0947885 9.12843689,38.8541635 C9.06946253,38.7858042 9.07771894,38.6822885 9.14652236,38.6240854 C9.21532577,38.5654917 9.31912065,38.5733042 9.37809501,38.6416635 C9.37927449,38.643226 9.78973603,39.1545542 11.5518899,37.3072885 C11.8200266,37.0264292 12.1243343,36.6986948 12.4553771,36.3326792 C12.5005907,36.0971323 12.5336164,35.8545542 12.552095,35.6065073 L12.3936506,35.5385385 C11.7984027,35.9318979 10.9676506,36.1881479 9.81135996,36.0951792 C9.65881295,36.0826792 9.51059073,36.065101 9.36590697,36.0428354 C9.04901808,36.5002573 8.60041979,36.8303354 8.08930868,37.0236948 C7.52079586,37.2385385 6.87365056,37.2854135 6.24262492,37.152601 C5.61356509,37.0201792 4.99944543,36.708851 4.49462492,36.2068979 C3.91942834,35.6354135 3.48773603,34.8170542 3.34187278,33.7373667 L3.34187278,33.7365854 C3.0458215,31.5397104 4.15060783,30.3279917 5.17951381,29.6873667 C4.98686424,29.2240854 4.8858215,28.8850229 4.85476167,28.774476 C4.67076167,28.6295542 4.48636851,28.4787729 4.303548,28.3233042 L4.20879586,28.3486948 C4.20879586,28.3483042 4.19542834,28.2990854 4.17773603,28.2147104 C4.01653945,28.074476 3.85770184,27.9303354 3.70318902,27.7830698 L3.70083005,27.7850229 L3.67999244,27.7611948 C2.78515483,26.9049448 2.03578731,25.9447885 1.82033432,24.999476 C1.49951381,23.5881479 2.26303518,22.3955698 3.11816338,21.549476 L3.1409668,21.5248667 L3.14175313,21.5260385 C3.39259073,21.2799448 3.65089842,21.0643198 3.89072748,20.8811167 C3.99884714,20.1842417 4.19424885,19.5666635 4.44272748,19.0221323 C4.34404372,18.274476 4.29765056,17.5045542 4.32713774,16.7365854 C4.34129159,16.3678354 4.37274458,15.9986948 4.42424885,15.6326792 C4.11561637,15.7065073 3.79597535,15.811976 3.4692574,15.9580698 C3.06941124,16.136976 2.7458386,16.3381479 2.4875309,16.552601 C1.98900099,16.9670542 1.73541124,17.4326792 1.64970184,17.8842417 C1.635548,17.9604135 1.62571894,18.0361948 1.62021466,18.1115854 C1.77472748,18.136976 1.93159928,18.1729135 2.08571894,18.218226 C2.8378386,18.4389292 3.55457364,18.8943979 3.69178731,19.440101 C3.77356509,19.7662729 3.74407791,20.0361948 3.6375309,20.236976 C3.5518215,20.3983042 3.41971894,20.5127573 3.25694971,20.577601 C3.10636851,20.6377573 2.93101808,20.652601 2.74465911,20.6193979 L2.74465911,20.6205698 C2.44113774,20.5666635 2.09712065,20.3791635 1.78534287,20.0443979 C1.33871039,20.0490854 -0.0530844815,19.9725229 0.00156509115,18.840101 C0.0153257749,18.5498667 0.164334322,18.3471323 0.401411245,18.2190073 L0.401804407,18.2197885 C0.588163382,18.1193979 0.829565091,18.0721323 1.09612919,18.0686167 C1.10320612,17.9760385 1.11500099,17.8822885 1.13308646,17.7881479 C1.23963347,17.2256479 1.54787278,16.6522104 2.15019757,16.1518198 C2.44349672,15.9076792 2.80756509,15.680726 3.25301808,15.4815073 C3.68785569,15.2865854 4.11247107,15.1580698 4.51821466,15.0783823 C4.77809501,13.7768198 5.31161637,12.5303354 6.23672748,11.4576792 C5.59941124,10.8537729 4.65071039,10.0904917 3.2852574,9.27994478 C5.04623176,9.45963228 6.20016338,10.1443979 6.9098215,10.7740854 C7.54399244,10.2154917 8.22023176,9.85846041 8.91062492,9.65416353 C9.13630013,9.50572603 9.36158219,9.38346041 9.58568475,9.28580416 C9.05609501,8.52174166 7.84947962,7.20728853 5.24949672,5.84713228 C8.51274458,6.60846041 9.9332403,8.03580416 10.5229839,8.92096041 C10.5359583,8.91119478 10.5638728,8.88971041 10.605548,8.86041353 L10.6094796,8.85767916 L10.6134112,8.85494478 L10.617736,8.85181978 L10.6401463,8.83502291 L10.6405395,8.83580416 L10.6873258,8.80455416 C10.8347617,8.63111666 11.0089326,8.43619478 11.2106249,8.22799166 C10.6208813,7.37955416 9.49132577,6.10767916 7.38987278,4.66939791 C9.83927449,5.34361666 11.2043343,6.55689791 11.941907,7.52681978 C14.3232916,5.41158541 17.3278386,4.30181978 20.4133771,4.34635103 C21.8967788,4.36900728 23.1191206,4.56431978 24.12483,4.85806978 C24.9241292,3.80377291 26.0143685,2.10963228 25.5736335,1.19400728 C25.3007788,0.625647907 24.7837702,0.307679157 24.1786933,0.327601032 C23.621189,0.346351032 22.9897702,0.519788532 22.3803685,0.808851032 C21.8169668,1.07681978 21.2736164,1.44361666 20.8254112,1.87955416 C20.34536,2.34596041 20.231736,2.75260103 20.3190181,3.05103853 C20.3606933,3.19205416 20.4479753,3.31119478 20.5615993,3.40142916 C20.6783685,3.49439791 20.8246249,3.55767916 20.9795309,3.58385103 C22.4747275,3.83697603 21.7469839,1.98971041 21.3679753,2.70728853 C21.31136,2.81392916 21.1910523,2.87447603 21.0746762,2.84010103 C19.8362147,2.47799166 23.34283,1.54088228 22.1448642,3.37994478 C21.8499924,3.83228853 21.3624711,3.97994478 20.924095,3.90572603 C20.7165053,3.87096041 20.5183514,3.78424166 20.3571548,3.65572603 C20.1924198,3.52486666 20.0654283,3.35025728 20.004095,3.14166353 C19.8849668,2.73697603 20.0131377,2.21080416 20.5954112,1.64556978 L20.5958044,1.64556978 C21.0691719,1.18580416 21.6435822,0.798304157 22.23883,0.515101032 C22.8879412,0.206897907 23.5657531,0.0217416571 24.1684711,0.00181978209 C24.7935993,-0.0188833429 25.3436335,0.136194782 25.7132061,0.511585407 C25.8248642,0.624476032 25.9204027,0.759241657 25.9954967,0.915491657 C26.4845907,1.93228853 25.3550352,3.77096041 24.4747446,4.96705416 C25.291736,5.23736666 25.9538215,5.57330416 26.4881292,5.92760103 Z M26.1830352,6.73189791 L26.1775309,6.73971041 C25.9007446,7.13541353 25.6176677,7.52838228 25.2583172,7.74322603 C25.3243685,7.86080416 25.3845224,7.97564791 25.4383856,8.08619478 C25.7997018,8.23658541 26.1743856,8.43971041 26.5148642,8.64674166 C26.6697702,8.74088228 26.8191719,8.83775728 26.9583514,8.93228853 L27.637736,8.31119478 C27.4427275,7.94596041 27.0192916,7.32408541 26.1830352,6.73189791 Z M22.88283,7.84674166 C22.3846933,7.77213228 21.8727959,7.66783541 21.4049326,7.56041353 C21.5908984,7.72838228 21.7599583,7.90064791 21.9136847,8.07564791 C21.9962489,8.08150728 22.5521805,7.87252291 22.88283,7.84674166 Z M24.7582147,32.9428354 L24.8576847,32.943226 L24.8278044,32.9076792 L24.7582147,32.9428354 Z M25.1871548,32.9318979 C25.2524198,32.927601 25.3180779,32.9217417 25.383736,32.9143198 C25.3349839,32.8373667 25.281907,32.7561167 25.2268642,32.6725229 C25.1722147,32.7092417 25.1171719,32.7440073 25.0613429,32.7779917 C25.1038044,32.8283823 25.1458728,32.8799448 25.1871548,32.9318979 Z M25.6672061,32.8733042 L25.7257873,32.8615854 C25.6101976,32.715101 25.5134796,32.5967417 25.4462489,32.5154917 L25.4403514,32.5201792 C25.5225224,32.6443979 25.6003685,32.765101 25.6672061,32.8733042 Z M26.0061121,32.7951792 C26.3273258,32.7053354 26.6367446,32.5690073 26.9178557,32.3709604 C27.0979241,32.2440073 27.2587275,32.118226 27.4018386,31.9951792 C27.5705053,31.7803354 27.7234454,31.5658823 27.8618386,31.3529917 C27.729736,31.3998667 27.5925224,31.443226 27.4494112,31.4815073 L27.3039412,31.5186167 L27.2433942,31.5756479 C26.8199583,31.9670542 26.2632403,32.2229135 25.6817531,32.3889292 C25.7631377,32.4873667 25.875189,32.6264292 26.0061121,32.7951792 Z M25.7191036,33.5135385 L25.6263172,33.5279917 L25.7116335,33.6537729 L25.7631377,33.6139292 L25.7191036,33.5135385 Z M25.3302659,33.5615854 C24.5219241,33.6303354 23.7308813,33.5131479 23.1434967,33.3787729 C22.5454967,33.4303354 21.9577189,33.3779917 21.4241976,33.277601 C20.9028642,33.4010385 20.3201976,33.5291635 19.7544369,33.6467417 C20.5376164,34.3990854 22.3673942,35.8318979 25.0177018,34.1381479 C25.185189,34.0311167 25.3459924,33.9217417 25.5008984,33.8100229 C25.4493942,33.7334604 25.3919924,33.649476 25.3302659,33.5615854 Z M4.15414629,26.6772104 C4.16908646,26.6225229 4.1863856,26.5697885 4.20683005,26.518226 C4.28939415,26.3076792 4.39947962,26.1604135 4.51939415,26.0584604 C4.33618048,25.4885385 4.17301808,24.8846323 4.03541124,24.2443979 C3.92100099,23.7139292 3.85101808,23.2123667 3.81877877,22.7385385 C3.62494971,23.7108042 3.49245398,25.1131479 3.96424885,26.274476 C4.0212574,26.4139292 4.08534287,26.5483042 4.15414629,26.6772104 Z M4.78674458,26.8268198 C4.72226595,27.0354135 4.71400954,27.2830698 4.72894971,27.5084604 C4.9192403,27.7291635 5.12132577,27.9260385 5.32262492,28.0990854 C5.22630013,27.8947885 5.13272748,27.6850229 5.04190697,27.4693979 L4.98214629,27.4826792 C4.98214629,27.4811167 4.95816338,27.380726 4.93575313,27.2111948 C4.88464201,27.0850229 4.83549672,26.9568979 4.78674458,26.8268198 Z M13.0663514,11.449476 C13.1095993,11.5108042 13.1717189,11.5608042 13.2605736,11.586976 C13.6443001,11.6998667 13.9839924,11.474476 13.9839924,11.474476 C13.9839924,11.474476 13.9839924,11.9377573 13.5813942,11.9940073 C13.4198044,12.0162729 13.2318728,11.9885385 13.0647788,11.9471323 C13.0808984,12.0822885 13.1080266,12.2033823 13.1394796,12.3068979 C13.4803514,12.2795542 13.7893771,12.2697885 14.0484711,12.2693979 C14.0995822,11.9326792 14.1510865,11.5760385 14.1978728,11.2205698 C13.898283,11.0693979 13.5794283,10.9233042 13.2456335,10.7920542 C13.1453771,11.0264292 13.0903343,11.2471323 13.0663514,11.449476 Z M10.8068471,12.0377573 C10.8068471,12.0377573 10.6507617,11.4049448 10.6098728,10.2178354 L10.5819583,10.2178354 C9.72643689,11.2318979 9.63836851,12.5217417 9.68043689,13.2924448 C9.76064201,13.2471323 9.84359928,13.2018198 9.93009501,13.1565073 C10.3861634,12.9186167 10.867001,12.7428354 11.3423343,12.6131479 C11.1040779,12.1158823 10.946813,11.383851 11.1544027,10.3592417 C11.077736,10.4772104 11.0010694,10.6104135 10.9385565,10.7541635 C10.7187788,11.2611948 10.8068471,12.0377573 10.8068471,12.0377573 Z M13.2224369,9.57799166 C13.4052574,9.36002291 13.6403685,9.09596041 13.9081121,8.83033541 C13.2118215,8.80846041 12.8324198,8.95924166 12.247001,9.16431978 C12.3629839,9.20064791 12.47936,9.24127291 12.5949497,9.28658541 C12.8060779,9.36939791 13.0152403,9.46744478 13.2224369,9.57799166 Z M14.3803001,9.28267916 C14.1561976,9.50416353 13.9556847,9.72564791 13.7925224,9.91666353 C13.9663001,10.0299448 14.1385053,10.1514292 14.3087446,10.2795542 C14.3417702,9.95689791 14.3657531,9.65299166 14.3763685,9.38697603 L14.3803001,9.28267916 Z M24.5541634,8.50455416 C24.345001,8.47330416 24.1177531,8.45767916 23.8905053,8.45338228 C24.1668984,8.54400728 24.4267788,8.64674166 24.6697531,8.75806978 C24.635548,8.67721041 24.5974112,8.59244478 24.5541634,8.50455416 Z M24.2577189,11.0510385 C24.311189,10.699476 24.3123685,10.2721323 24.2950694,9.88775728 C23.9282489,9.84010103 23.4914454,9.80416353 22.9736506,9.79205416 C23.2205565,10.3990854 23.3440095,10.9736948 23.4092745,11.4479135 C23.6620779,11.3385385 23.9569497,11.1990854 24.2577189,11.0510385 Z M26.6005736,31.6506479 C26.5325565,31.6596323 26.4657189,31.6674448 26.4000608,31.6740854 C26.3379412,31.7346323 26.2750352,31.7951792 26.2109497,31.8549448 C26.3461976,31.7943979 26.4767275,31.7264292 26.6005736,31.6506479 Z M28.2809497,29.7143198 C28.5345395,29.5479135 28.7208984,29.3815073 28.8447446,29.2561167 C28.9662318,28.849476 29.0287446,28.5029917 29.0503685,28.249476 L28.9508984,28.2264292 C28.8258728,28.4760385 28.6296847,28.840101 28.3532916,29.2725229 C28.3375651,29.4139292 28.3139753,29.5623667 28.2809497,29.7143198 Z M20.5081292,35.9635385 C20.4621292,36.1803354 20.3882147,36.4764292 20.280095,36.7897104 C20.4334283,36.8979135 20.5910865,37.005726 20.7526762,37.1115854 C20.8946078,36.7084604 20.9252745,36.2615854 20.926454,35.9600229 C20.7927788,35.9647104 20.6520266,35.9666635 20.5081292,35.9635385 Z M20.125189,37.1893198 C19.9867959,37.5053354 19.8114454,37.811976 19.5912745,38.0447885 C20.0677873,38.0318979 20.3764198,37.8002573 20.5757531,37.4842417 C20.4220266,37.386976 20.2718386,37.2881479 20.125189,37.1893198 Z M16.6901292,37.0248667 C16.5678557,36.8486948 16.4613087,36.671351 16.3685224,36.4990854 C16.0823001,36.4690073 15.7178386,36.4233042 15.3093429,36.355726 L15.050642,36.7033823 C15.0353087,37.6193979 15.0097531,38.558851 14.9692574,39.493226 C15.5570352,38.674476 16.1338044,37.8459604 16.6901292,37.0248667 Z M16.1078557,35.9451792 C16.0685395,35.8490854 16.0339412,35.7580698 16.0040608,35.6736948 C15.9277873,35.6822885 15.8558386,35.693226 15.789001,35.7061167 L15.6580779,35.8842417 C15.818095,35.9080698 15.9686762,35.9279917 16.1078557,35.9451792 Z M12.7223343,34.5236948 C12.5611377,34.6783823 12.4070181,34.8053354 12.2741292,34.9045542 L12.3224882,34.9291635 C12.4777873,34.8022104 12.6098899,34.6643198 12.7223343,34.5236948 Z M11.1394625,34.1440073 C11.4052403,34.0943979 11.6875309,33.9733042 11.9187104,33.7127573 C12.0421634,33.5736948 12.142813,33.4393198 12.2261634,33.3135385 C11.5864882,33.0240854 11.0120779,32.6729135 10.5123685,32.3104135 C10.2921976,32.5623667 10.0665224,32.8256479 9.83494971,33.1002573 C10.3055651,33.5045542 10.7494454,33.8479135 11.1394625,34.1440073 Z M8.9924027,34.1221323 L8.87799244,34.2639292 C8.6023856,34.6080698 8.34368475,34.8955698 8.09992407,35.1354135 C8.60317193,35.3580698 9.18505227,35.5197885 9.85264201,35.5733042 C10.6932232,35.6412729 11.3336847,35.4990854 11.8215993,35.2541635 C11.7673429,35.2236948 11.7142659,35.1928354 11.6615822,35.1608042 L11.6584369,35.1764292 C10.4954625,34.8873667 9.99614629,34.7006479 8.9924027,34.1221323 Z M3.00650526,24.8236948 C2.95264201,23.861976 3.10400954,22.9299448 3.25537706,22.2729135 C2.97505227,22.8295542 2.88462492,23.6440073 2.9664027,24.4943979 C2.97662492,24.6037729 2.9903856,24.7135385 3.00650526,24.8236948 Z M18.5289497,7.37681978 C17.3714796,7.27681978 16.387001,7.78971041 15.7618728,8.24205416 C15.8526933,8.27877291 15.943907,8.31861666 16.035907,8.36158541 C16.5139924,8.58580416 16.9134454,8.85572603 17.2468471,9.15181978 C18.0127275,8.67994478 18.8721805,8.32564791 19.8271719,8.16900728 C19.4524882,7.87056978 19.0219753,7.60025728 18.5289497,7.37681978 Z M15.3050181,7.76861666 C15.7292403,7.45416353 16.3138728,7.10338228 17.0113429,6.89517916 C16.4534454,6.78385103 15.8385395,6.72486666 15.1603343,6.73228853 C15.2102659,7.01041353 15.2645224,7.36510103 15.3050181,7.76861666 Z M34.5813771,15.1631479 C34.368283,15.1576792 34.0820608,15.2076792 33.7738215,15.4201792 C34.0108984,15.8154917 34.2007959,16.2440073 34.3281805,16.7076792 C34.5754796,16.4162729 34.8286762,16.1342417 35.0814796,15.8736948 C34.9301121,15.6264292 34.7622318,15.390101 34.5813771,15.1631479 Z M33.0944369,16.2236948 C32.7107104,16.9701792 32.5239583,18.0264292 32.44336,18.6291635 C32.4441463,18.7440073 32.4421805,18.8615854 32.4366762,18.9803354 C32.4327446,19.0639292 32.4268471,19.146351 32.4193771,19.2283823 C32.7111036,18.8045542 33.0885395,18.2752573 33.5104027,17.724476 C33.4655822,17.1764292 33.3181463,16.677601 33.0944369,16.2236948 Z M32.1547788,16.8729135 C32.2939583,16.4115854 32.4771719,15.9553354 32.7166078,15.5912729 C31.8264882,14.3365854 30.3481976,13.486976 29.0350352,12.9393198 C29.0881121,13.0760385 29.1407959,13.2205698 29.1930865,13.3729135 C30.2109839,14.0037729 31.5689668,15.1287729 32.1547788,16.8729135 Z M33.4097531,14.8846323 C33.637001,14.7287729 33.8595309,14.6342417 34.0671206,14.5803354 C32.457907,12.9201792 30.1736335,11.8861948 28.7484198,11.3600229 C28.7201121,11.4893198 28.6918044,11.6193979 28.6646762,11.7510385 C30.1987959,12.3068979 32.1913429,13.2877573 33.4097531,14.8846323 Z M35.9562659,21.3897104 C36.5000095,21.2428354 37.1204198,20.9061167 37.5285224,20.1580698 L37.5682318,20.1791635 C37.9091036,19.1975229 37.9798728,18.1576792 37.958642,17.3283823 C37.69483,17.6924448 37.3889497,18.0604135 37.036283,18.4072885 L36.915189,18.6658823 C36.9450694,19.8479135 36.578642,20.7330698 35.9562659,21.3897104 Z M36.8161121,21.596351 C36.2192916,21.9264292 35.5988813,22.002601 35.196283,22.0104135 C34.5007788,22.4537729 33.6456506,22.7385385 32.7272232,22.9108042 L32.7221121,22.965101 C32.7515993,23.0209604 32.7806933,23.0787729 32.8086078,23.1385385 C33.4274454,23.2701792 34.5129668,23.3670542 35.5552403,22.8061167 C35.9472232,22.5260385 36.3447104,22.168226 36.7245053,21.7108042 C36.7555651,21.6729135 36.7866249,21.6350229 36.8161121,21.596351 Z M30.8931206,25.024476 C31.3138044,24.8693979 31.7635822,24.5264292 32.0171719,23.7951792 C31.9389326,23.5748667 31.8414283,23.3822885 31.7372403,23.2166635 C31.6814112,23.2572885 31.625189,23.296351 31.5697531,23.3346323 C31.4616335,23.9592417 31.1934967,24.5381479 30.8931206,25.024476 Z M32.1414112,21.5705698 C32.1013087,21.3604135 32.0501976,21.1639292 31.9935822,20.9846323 C31.8937189,21.2322885 31.7808813,21.4709604 31.6570352,21.7006479 C31.7144369,21.7447885 31.7797018,21.7975229 31.8508642,21.8604135 C31.949548,21.7678354 32.0470523,21.671351 32.1414112,21.5705698 Z M32.3179412,20.3697885 C32.4020779,20.5760385 32.4850352,20.8135385 32.5561976,21.0764292 C32.7358728,20.8354135 32.898642,20.5748667 33.0378215,20.2936167 C32.7869839,20.3272104 32.5471548,20.3522104 32.3179412,20.3697885 Z M32.1897702,24.6299448 C31.7348813,25.3233042 31.0908813,25.561976 30.5852745,25.6330698 C30.5899924,25.6795542 30.5943172,25.7264292 30.5974625,25.7721323 C31.073189,25.7740854 31.5803685,25.7733042 32.106813,25.7701792 L32.1111377,25.7483042 C32.1944882,25.3330698 32.2145395,24.9611948 32.1897702,24.6299448 Z M34.3498044,23.461976 C33.8068471,23.5342417 33.3098899,23.4928354 32.9304882,23.4268198 C32.9733429,23.5412729 33.0122659,23.6611948 33.0456847,23.786976 C33.3621805,23.7529917 33.8225736,23.6686167 34.3498044,23.461976 Z M26.0851377,34.2096323 C26.1551206,34.3084604 26.172813,34.3865854 26.1570865,34.433851 C26.2023001,34.568226 26.1476506,34.5760385 26.0076847,34.4654917 C25.9656164,34.4467417 25.9180437,34.4123667 25.8692916,34.3611948 C25.708095,34.471351 25.541001,34.5811167 25.3672232,34.690101 C24.2258728,35.4061167 23.1427104,35.7342417 22.1833942,35.8416635 C22.4574283,36.2502573 22.945736,37.0971323 23.2842489,38.349476 C23.7418899,38.4873667 24.2026762,38.5717417 24.6544198,38.5811167 C26.05683,38.6108042 27.5182147,38.4799448 27.5701121,36.7779917 C27.5842659,36.3217417 27.4816506,35.8549448 27.3353942,35.4615854 C27.1498215,34.9631479 26.8246762,34.4084604 26.490095,33.9092417 C26.3595651,34.0096323 26.2247104,34.1100229 26.0851377,34.2096323 Z M21.6545907,35.9018198 C21.5787104,35.9111948 21.4874967,35.921351 21.3848813,35.930726 C21.3844882,36.290101 21.3455651,36.8537729 21.1497702,37.3615854 C21.6813258,37.6842417 22.245907,37.9752573 22.8218899,38.1924448 C22.4365907,37.0404917 21.9243001,36.2627573 21.6545907,35.9018198 Z M15.1693771,35.7385385 L15.0640095,35.599476 L15.0620437,35.7846323 L15.1253429,35.7959604 L15.1693771,35.7385385 Z M16.7903856,34.3240854 C17.1434454,34.5389292 17.5153771,34.7033823 17.7933429,34.6721323 C18.0964711,34.6381479 18.3315822,34.4686167 18.503001,34.2826792 L18.7864711,33.8416635 C18.1959412,33.9561167 17.6883685,34.0455698 17.3805224,34.086976 C17.231907,34.1068979 17.0801463,34.1233042 16.9248471,34.1361948 L16.7903856,34.3240854 Z M11.6120437,31.0904917 C11.8432232,31.3377573 12.1738728,31.6561167 12.5517018,31.9190073 C12.8650523,31.6576792 13.193736,31.2608042 13.4154796,30.6658823 L12.7758044,29.883851 C12.4207788,30.2381479 12.031548,30.640101 11.6120437,31.0904917 Z M13.5633087,32.3846323 C13.9399583,32.4572885 14.3205395,32.4006479 14.6673087,32.1225229 C14.6641634,31.5537729 14.6594454,31.0397104 14.6547275,30.5967417 L14.4443856,30.7197885 C14.2328642,31.4736948 13.9045736,32.0080698 13.5633087,32.3846323 Z M15.0537873,31.7850229 C15.3140608,31.5350229 15.498454,31.3041635 15.6281976,31.0998667 L15.069907,30.3533823 L15.0353087,30.3736948 L15.0537873,31.7850229 Z M15.7941121,32.8861948 C16.0296164,32.9346323 16.58083,33.0436167 17.1383343,33.1229135 C17.3891719,32.7830698 17.6337189,32.449476 17.8707959,32.124476 C17.53936,31.9885385 17.1725395,31.8080698 16.80336,31.5733042 C16.6083514,31.8346323 16.4109839,32.0936167 16.2132232,32.3498667 C16.0736506,32.5303354 15.9340779,32.7092417 15.7941121,32.8861948 Z M17.6022659,33.180726 C17.8586078,33.2068979 18.0956847,33.2209604 18.2808642,33.2123667 C18.3492745,33.2092417 18.4172916,33.2010385 18.4849155,33.1893198 C18.6539753,33.1416635 18.8191036,33.0904917 18.9806933,33.0365854 C19.159189,32.9600229 19.3227446,32.8678354 19.4599583,32.780726 L19.5212916,32.6826792 C19.3388642,32.6022104 19.2161976,32.540101 19.1690181,32.5154917 C19.0683685,32.4979135 18.7153087,32.4303354 18.2423343,32.2654917 C18.0351377,32.5639292 17.8212574,32.8690073 17.6022659,33.180726 Z M12.2037531,14.2490854 L12.3924711,15.6233042 L12.11136,15.8756479 C11.9053429,15.8158823 11.6859583,15.7553354 11.4524198,15.6940073 C11.1709155,15.6197885 10.9094625,15.5611948 10.6672745,15.5158823 C10.9255822,15.1729135 11.2562318,14.846351 11.678095,14.5611948 C11.8538386,14.4424448 12.029189,14.3389292 12.2037531,14.2490854 Z M18.6237018,11.2451792 C19.1481805,11.1877573 20.006454,11.1049448 20.9685224,11.0592417 C21.3227617,11.0424448 21.6180266,11.0389292 21.8629668,11.0443979 C21.7261463,10.6678354 21.5370352,10.2522104 21.2818728,9.83228853 C19.9958386,9.91549166 19.0329839,10.2108042 18.3284369,10.552601 C18.4491377,10.7873667 18.5458557,11.0209604 18.6237018,11.2451792 Z M21.9522147,11.3053354 C21.6998044,11.2983042 21.3809497,11.3010385 20.9807104,11.3201792 C20.4369668,11.3459604 19.926642,11.383851 19.4918044,11.4217417 C20.5325053,11.4822885 21.381736,11.6717417 22.0654454,11.7104135 C22.0351719,11.5842417 21.9978215,11.4486948 21.9522147,11.3053354 Z M4.51310355,22.111976 C4.6098215,22.3291635 4.53433432,22.5791635 4.34522321,22.7100229 C4.37549672,23.1584604 4.441548,23.6330698 4.54966766,24.1361948 C4.67390697,24.7131479 4.81898389,25.2592417 4.98214629,25.7772104 C5.09734287,25.2076792 5.35447107,24.5815073 5.88366766,24.0428354 C5.63322321,23.4904917 5.36901808,22.8190073 5.13115483,22.0674448 C4.44744543,21.9756479 4.51271039,22.1115854 4.51310355,22.111976 Z M4.37785569,21.2240854 C4.51900099,21.1959604 4.68216338,21.177601 4.87088133,21.1725229 C4.8461121,21.077601 4.82134287,20.9822885 4.79775313,20.8858042 C4.67744543,20.961976 4.53708646,21.0549448 4.38532577,21.1631479 L4.37785569,21.2240854 Z M6.06255654,21.2690073 C6.37236851,21.3190073 6.71835142,21.3893198 7.10600954,21.4842417 C6.94599244,20.6295542 6.94717193,19.9049448 7.07691552,19.2955698 C7.25501808,18.4596323 7.66980441,17.8397104 8.24106936,17.399476 C8.19939415,17.2748667 8.1518215,17.1221323 8.11014629,16.9533823 C7.18385569,17.7154917 6.09518902,19.0760385 6.06255654,21.2690073 Z M7.81566766,21.674476 C7.95288133,21.7147104 8.08537706,21.755726 8.21276167,21.7971323 C8.16597535,21.1670542 8.26505227,20.3697885 8.73566766,19.4779917 C8.85165056,19.2580698 8.98414629,19.0631479 9.12843689,18.8897104 C9.10759928,18.6592417 9.0844027,18.1854135 9.16264201,17.5998667 C9.09698389,17.6315073 9.03289842,17.6647104 8.97077877,17.7002573 C8.34958219,18.0533823 7.8946933,18.611976 7.72012919,19.4311167 C7.59195825,20.0322885 7.61043689,20.7729135 7.81566766,21.674476 Z M8.31537706,22.8533823 L8.14002663,22.7943979 L8.17147962,22.8830698 L8.31537706,22.8533823 Z M7.37532577,22.565101 C7.27546253,22.5377573 7.17206082,22.5104135 7.06512065,22.4830698 C6.69830013,22.3889292 6.38494971,22.3131479 6.11602663,22.2529917 C6.13371894,22.4018198 6.15573603,22.5529917 6.18286424,22.7080698 C6.29373603,23.0037729 6.40657364,23.2799448 6.51744543,23.5330698 C6.80484714,23.3502573 7.14218048,23.1881479 7.53652236,23.0565073 C7.47794116,22.8893198 7.42407791,22.7252573 7.37532577,22.565101 Z M12.8709497,35.7318979 L12.8556164,35.8854135 L12.9621634,35.765101 L12.8709497,35.7318979 Z M38.7823172,15.365101 C38.7374967,15.4190073 38.6918899,15.4783823 38.6458899,15.5436167 C38.5145736,15.7299448 38.3852232,15.9272104 38.2586249,16.1299448 C38.2676677,16.1959604 38.2763172,16.2678354 38.2849668,16.3447885 C38.4957018,15.9791635 38.6596506,15.6420542 38.7823172,15.365101 Z M37.9232574,16.6936167 C37.7589155,16.9818979 37.6020437,17.2733042 37.4569668,17.5561167 C37.6334967,17.3377573 37.793907,17.1174448 37.9389839,16.9010385 L37.9232574,16.6936167 Z M36.8794112,18.1272104 C37.1558044,17.5533823 37.4994283,16.8858042 37.8768642,16.2533823 C37.8383343,15.9502573 37.7998044,15.7549448 37.7919412,15.7147104 L37.7919412,15.7139292 L37.7903685,15.7072885 L37.7903685,15.7065073 C37.5788471,14.5975229 36.8581805,14.7791635 35.9995138,15.5022104 C36.4567617,16.2815073 36.7744369,17.1545542 36.8794112,18.1272104 Z M7.47518902,29.2002573 C7.76219757,28.7803354 8.2104027,28.2701792 8.87877877,27.8451792 C8.32756509,27.4018198 7.66390697,26.7873667 7.05922321,26.0111948 C6.45807791,26.6904917 6.32047107,27.4604135 6.35113774,28.1029917 C6.53435142,28.3381479 6.94441979,28.8240854 7.47518902,29.2002573 Z M9.07024885,28.1104135 C8.43647107,28.5080698 8.01539415,28.9858042 7.74765056,29.3772104 C8.23202663,29.6725229 8.50920612,29.805726 8.6483856,29.8631479 L8.78913774,29.761976 L8.79110355,29.7643198 C8.80722321,29.6596323 8.83041979,29.4787729 8.86501808,29.1662729 C8.90512065,28.8002573 8.99476167,28.4029917 9.07024885,28.1104135 Z M15.3679241,9.14049166 C15.3667446,9.23463228 15.3643856,9.32955416 15.360454,9.42525728 C15.3439412,9.83111666 15.2983343,10.3178354 15.2389668,10.8256479 C15.5959583,10.4424448 15.9871548,10.0736948 16.4133429,9.73658541 C16.1833429,9.55572603 15.9191377,9.39010103 15.61483,9.24752291 C15.5322659,9.20846041 15.4497018,9.17330416 15.3679241,9.14049166 Z M15.0781634,12.0377573 C15.0266591,12.3908823 14.9739753,12.730726 14.9244369,13.0365854 C15.096642,12.830726 15.2947959,12.6299448 15.4886249,12.4498667 L15.0781634,12.0377573 Z M14.32683,7.87877291 C14.2886933,7.49674166 14.2375822,7.16158541 14.1907959,6.90142916 C13.6395822,7.24244478 13.1555993,7.60455416 12.7388471,7.95728853 C13.2157531,7.86080416 13.7508471,7.81822603 14.32683,7.87877291 Z M32.8514625,12.3350229 C33.3873429,12.0248667 34.3332916,11.4193979 35.060642,10.6303354 C34.8526591,10.5631479 34.5880608,10.5330698 34.2499412,10.5697885 C33.8933429,10.6084604 33.5288813,10.6971323 33.1777873,10.8108042 C32.9265565,11.127601 32.6497702,11.5268198 32.3666933,12.0240854 C32.5286762,12.1236948 32.6902659,12.2272104 32.8514625,12.3350229 Z M32.1425907,11.8885385 C32.3427104,11.5377573 32.5404711,11.2334604 32.7295822,10.971351 C32.2613258,11.1541635 31.8386762,11.3654917 31.5225736,11.5385385 C31.7278044,11.6486948 31.935001,11.7654917 32.1425907,11.8885385 Z M35.8902147,19.3264292 C35.3924711,19.6440073 34.8314283,19.9049448 34.2031548,20.0748667 C33.9715822,20.7412729 33.6275651,21.3205698 33.2257531,21.8217417 C34.6061463,21.4342417 35.6700437,20.6826792 35.8902147,19.3264292 Z M31.1659753,20.3959604 C30.9686078,20.3885385 30.782642,20.3756479 30.6068984,20.3572885 C30.7433258,20.5002573 30.8734625,20.6584604 30.9929839,20.8326792 C31.0558899,20.6904917 31.1136847,20.5447885 31.1659753,20.3959604 Z M30.2892232,20.058851 C30.5730865,20.1022104 30.8919412,20.1315073 31.2477531,20.1408823 C31.3598044,19.7592417 31.4317531,19.3565073 31.4521976,18.9342417 C31.5434112,17.0479135 30.5951036,15.7330698 29.6149497,14.8865854 C29.741548,15.4975229 29.7903001,16.0377573 29.78283,16.5143198 C29.8614625,17.1029917 29.9051036,17.7311167 29.8889839,18.3795542 C29.8775822,18.8604135 29.8583172,19.308851 29.8343343,19.7236948 C29.9864882,19.821351 30.1394283,19.9322885 30.2892232,20.058851 Z M32.2978899,20.1111948 C32.5707446,20.090101 32.8601121,20.0572885 33.1659924,20.0123667 C33.3720095,19.5166635 33.5037189,18.9627573 33.5253429,18.3440073 C32.9776677,19.090101 32.5278899,19.7611948 32.2978899,20.1111948 Z M34.2975138,19.7760385 C34.9065224,19.5920542 35.447907,19.3174448 35.9263856,18.9897104 C35.9318899,18.8920542 35.9338557,18.7924448 35.9311036,18.6889292 C35.907907,17.7697885 35.6617873,16.943226 35.2690181,16.2037729 C34.9902659,16.5002573 34.7079753,16.8287729 34.4323685,17.1670542 C34.462642,17.3373667 34.4846591,17.5115854 34.4980266,17.6904917 C34.5550352,18.4611948 34.47483,19.1537729 34.2975138,19.7760385 Z M29.5630523,17.9334604 C29.3696164,18.5365854 29.0822147,18.9561167 28.8329497,19.2311167 C29.0330694,19.3033823 29.2681805,19.402601 29.5158728,19.5358042 C29.5351377,19.1725229 29.5508642,18.7846323 29.5610865,18.3721323 C29.5650181,18.224476 29.5654112,18.0783823 29.5630523,17.9334604 Z M28.1453087,17.8990854 C28.1818728,17.968226 28.2180437,18.0377573 28.2534283,18.1080698 C28.2805565,18.1623667 28.3061121,18.2158823 28.3312745,18.2705698 C28.4547275,18.0092417 28.6489497,17.3967417 28.4303514,16.3893198 C28.1284027,14.999476 27.4171719,16.1330698 27.4171719,16.1330698 C27.7871377,16.5408823 28.0230352,17.3604135 28.1453087,17.8990854 Z M28.8101463,19.9197885 C28.9355651,20.8264292 28.8431719,21.6260385 28.7433087,22.1393198 C28.9186591,22.1502573 29.0967617,22.1596323 29.2764369,22.1666635 C29.3413087,21.6897104 29.4136506,21.0502573 29.4706591,20.2623667 C29.2394796,20.1139292 29.0118386,20.002601 28.8101463,19.9197885 Z M10.4128984,14.7979135 C10.6625565,14.5217417 10.9586078,14.2592417 11.3104882,14.0217417 C11.7795309,13.7045542 12.24936,13.483851 12.7042489,13.3342417 C12.5053087,13.3608042 12.2988984,13.3947885 12.089736,13.4381479 L12.0594625,13.4858042 C12.0586762,13.4858042 12.0421634,13.4752573 12.0126762,13.4541635 C11.4720779,13.571351 10.9110352,13.7510385 10.3893087,14.0233042 C10.18683,14.1287729 10.0067617,14.2330698 9.84556509,14.3350229 C10.0358557,14.4822885 10.2540608,14.6561167 10.4128984,14.7979135 Z M9.317548,19.7795542 C8.9098386,20.552601 8.82412919,21.2291635 8.86265911,21.7533823 C9.01363347,21.2389292 9.24913774,20.6037729 9.61556509,19.9041635 C9.93874458,19.2877573 10.3747617,18.8221323 10.8139241,18.4756479 C10.2489497,18.6983042 9.68043689,19.0912729 9.317548,19.7795542 Z M6.20527449,24.702601 C5.26600954,25.8565073 5.62142834,27.330726 5.62300099,27.336976 L5.56363347,27.3506479 C5.64698389,27.5440073 5.73230013,27.7322885 5.81997535,27.9162729 C5.82036851,27.1803354 6.02717193,26.3268198 6.74076167,25.5779917 C6.55047107,25.3037729 6.37000954,25.0115854 6.20527449,24.702601 Z M7.27428304,12.6201792 C7.1858215,12.4940073 7.02973603,12.2877573 6.78951381,12.021351 C6.04800954,12.9010385 5.59312065,13.9135385 5.34621466,14.977601 C6.33541124,14.9299448 7.1524027,15.1459604 7.64306936,15.324476 C7.69260783,15.2037729 7.76259073,15.0615854 7.86245398,14.9033823 C7.64149672,14.449476 7.28961637,13.5799448 7.27428304,12.6201792 Z M23.4297189,5.71588228 L23.5512061,5.57447603 C23.3872574,5.53306978 23.2174112,5.49439791 23.0408813,5.45885103 C23.1765224,5.54205416 23.3062659,5.62799166 23.4297189,5.71588228 Z M29.78283,20.4858042 C29.72936,21.1725229 29.6652745,21.7397104 29.6063001,22.177601 C29.7973771,22.1822885 29.9896335,22.1842417 30.1826762,22.1830698 C30.3446591,21.971351 30.4979924,21.7479135 30.6387446,21.5135385 C30.4114967,21.0772104 30.1044369,20.7424448 29.78283,20.4858042 Z M29.4958215,25.7635385 L29.5941121,25.658851 L29.5933258,25.6522104 C29.5367104,25.1998667 29.4242659,24.815101 29.2953087,24.4983042 L29.2402659,24.5174448 C29.0696335,24.6561167 28.9029326,24.7842417 28.7413429,24.9022104 C28.7334796,25.0592417 28.7389839,25.2393198 28.7680779,25.4424448 C28.7818386,25.5385385 28.794813,25.6412729 28.8073942,25.7475229 C29.0311036,25.7545542 29.2611036,25.7600229 29.4958215,25.7635385 Z M31.9212403,26.4233042 C31.4600608,26.4256479 31.0146078,26.4256479 30.5935309,26.4240854 C30.5612916,26.8240854 30.475189,27.1803354 30.3702147,27.4842417 C30.6194796,27.5639292 30.8813258,27.6436167 31.1541805,27.7217417 C31.4510181,27.3795542 31.7258386,26.9522104 31.9212403,26.4233042 Z M30.3792574,24.6170542 C30.5247275,24.3760385 30.6584027,24.1123667 30.7610181,23.833851 C30.5640437,23.9424448 30.3765053,24.0381479 30.2023343,24.1209604 C30.2660266,24.2740854 30.3257873,24.4397104 30.3792574,24.6170542 Z M29.9015651,28.4416635 C29.816642,28.5693979 29.7588471,28.6373667 29.758454,28.6381479 L29.3798386,28.3252573 L29.2402659,28.2936167 L29.5626591,28.8834604 C29.710095,28.8217417 29.9577873,28.7049448 30.2444027,28.5162729 L29.9015651,28.4416635 Z M9.49683005,30.5733042 L9.56248817,30.640101 C9.92262492,30.9264292 10.4919241,30.8283823 10.4919241,30.8283823 C10.4919241,30.8283823 10.2025565,30.5592417 9.9949668,30.333851 C9.78737706,30.1084604 9.49447107,29.5170542 9.49447107,29.5170542 C9.49447107,29.5170542 9.24088133,30.2420542 9.49683005,30.5733042 Z M14.4742659,33.9967417 C14.225001,33.9506479 13.9682659,33.8943979 13.7028813,33.8268198 C13.5609497,34.218226 13.3046078,34.7283823 12.8536506,35.1678354 C13.0101292,35.2311167 13.1697531,35.2897104 13.3309497,35.3440073 C13.6973771,34.9229135 14.0811036,34.4709604 14.4742659,33.9967417 Z M4.38100099,32.8752573 C4.37274458,32.7854135 4.43958219,32.7061167 4.52961637,32.6983042 C4.61965056,32.6904917 4.69946253,32.7565073 4.70771894,32.8459604 C4.70889842,32.8596323 5.07100099,36.8877573 7.33679586,35.330726 C5.61159928,34.3287729 4.91177022,32.7225229 4.90862492,32.7162729 C4.85004372,32.5846323 4.90941124,32.4303354 5.04190697,32.3717417 C5.17400954,32.3131479 5.32970184,32.3721323 5.38828304,32.5037729 C5.39103518,32.5092417 6.07435142,34.0787729 7.77595825,34.9779917 C8.0358386,34.7420542 8.31616338,34.4404917 8.62086424,34.0608042 L8.70775313,33.9518198 C8.27763347,33.6842417 7.83729159,33.361976 7.4158215,32.9768198 C6.39477877,32.043226 5.73426595,30.9111948 5.33874458,30.0510385 C4.42306936,30.6424448 3.47004372,31.7365854 3.73228304,33.6854135 L3.7326762,33.6854135 C3.86556509,34.6721323 4.25558219,35.415101 4.77416338,35.930726 C5.22158219,36.3752573 5.76650526,36.6514292 6.3244027,36.7690073 C6.88112065,36.8861948 7.45041979,36.8455698 7.94855654,36.6572885 C8.33306936,36.5115854 8.67590697,36.277601 8.93618048,35.9608042 C8.47303518,35.8549448 8.05510355,35.6998667 7.67963347,35.515101 C4.8272403,37.8397104 4.38218048,32.8908823 4.38100099,32.8752573 Z M9.07732577,33.4893198 L9.2432403,33.280726 C8.26505227,32.4131479 7.19368475,31.286976 6.24655654,29.7850229 L6.07081295,29.6654917 C6.00161637,29.6947885 5.92927449,29.7272104 5.85457364,29.7631479 C6.22139415,30.571351 6.84337706,31.6541635 7.81684714,32.5440073 C8.22888133,32.9205698 8.65900099,33.2322885 9.07732577,33.4893198 Z M9.56995825,32.868226 L10.1074112,32.1846323 L9.20235142,32.5315073 C9.32580441,32.6483042 9.44847107,32.7600229 9.56995825,32.868226 Z M11.2656677,30.6893198 C11.6269839,30.218226 11.956454,29.7834604 12.2532916,29.3881479 C11.8990523,29.1729135 11.2751036,28.9096323 10.8143172,29.3514292 C10.3083172,29.8365854 10.9200779,30.4221323 11.2656677,30.6893198 Z M9.4984027,33.5029917 L9.36787278,33.6604135 C9.65409501,33.8217417 9.93127449,33.9580698 10.1895822,34.0717417 C9.9678386,33.8959604 9.73665911,33.7072885 9.4984027,33.5029917 Z M14.6673087,34.2772104 C14.3264369,34.6877573 13.9922489,35.0815073 13.670642,35.4522104 C14.0008984,35.5514292 14.3327275,35.633851 14.6523685,35.7022104 C14.6598386,35.2139292 14.6645565,34.736976 14.6673087,34.2772104 Z M8.31852236,14.3240854 C8.44315483,14.193226 8.58705227,14.058851 8.75335996,13.9221323 C8.66961637,13.3299448 8.54930868,11.777601 9.30064201,10.3654917 C9.15635142,10.402601 9.01284714,10.446351 8.87012919,10.4986948 C7.48501808,11.6943979 7.9438386,13.4299448 8.31852236,14.3240854 Z M11.859736,12.4889292 C12.0708642,12.4451792 12.2780608,12.4092417 12.4797531,12.380726 C12.3645565,11.9295542 12.3236677,11.2959604 12.6244369,10.5705698 C12.3217018,10.4748667 12.0107104,10.3936167 11.6953942,10.3334604 C11.452813,11.3818979 11.6305224,12.0690073 11.859736,12.4889292 Z M7.40599244,15.7928354 C6.93930868,15.6283823 6.16988988,15.4361948 5.24084714,15.5061167 C5.1712574,15.921351 5.13036851,16.3424448 5.11424885,16.7643198 C5.10048817,17.1272104 5.10441979,17.4908823 5.12368475,17.8522104 C5.90175313,16.7748667 6.83944543,16.1209604 7.40599244,15.7928354 Z M1.65245398,18.6483042 C1.68587278,18.8229135 1.73973603,18.9893198 1.80932577,19.1420542 C1.8895309,19.3193979 1.99057364,19.4783823 2.10223176,19.6115854 C2.35031723,19.9061167 2.61570184,20.0658823 2.83744543,20.1053354 L2.83744543,20.1061167 C2.92472748,20.121351 3.00139415,20.1166635 3.06115483,20.0928354 C3.10833432,20.0740854 3.1472574,20.0404917 3.17202663,19.993226 C3.22077877,19.9018198 3.22942834,19.7592417 3.18106936,19.5670542 C3.09300099,19.2158823 2.53431723,18.8940073 1.93749672,18.7193979 C1.84274458,18.6912729 1.74681295,18.6678354 1.65245398,18.6483042 Z M1.32966766,19.3568979 C1.22351381,19.1229135 1.14606082,18.8635385 1.1106762,18.590101 C0.923137741,18.5912729 0.762334322,18.6190073 0.652642014,18.6779917 L0.652642014,18.6795542 C0.577547997,18.7197885 0.529975348,18.780726 0.526043724,18.8643198 C0.504419792,19.3240854 1.00530868,19.4670542 1.40397535,19.5080698 C1.37802663,19.458851 1.3532574,19.4084604 1.32966766,19.3568979 Z M17.7139241,9.63033541 C17.8157531,9.75025728 17.9093258,9.87213228 17.994642,9.99556978 C18.703907,9.64244478 19.6415993,9.33424166 20.8556847,9.21236666 C20.7338044,9.05533541 20.6017018,8.90064791 20.4585907,8.74908541 C20.3717018,8.75728853 20.2836335,8.76627291 20.1947788,8.77681978 C19.2787104,8.88619478 18.452283,9.19713228 17.7139241,9.63033541 Z M17.6679241,11.4815073 C17.616813,11.343226 17.5562659,11.2014292 17.4851036,11.058851 C17.2094967,11.2623667 17.0113429,11.4545542 16.878454,11.602601 C17.089189,11.5623667 17.3585053,11.518226 17.6679241,11.4815073 Z M22.6469326,9.11119478 C23.0381292,9.09791353 23.4021976,9.09166353 23.7379583,9.08971041 C23.3483343,8.95924166 22.9201805,8.85455416 22.4527104,8.78814791 C22.521907,8.89596041 22.5863856,9.00377291 22.6469326,9.11119478 Z M37.3826591,29.4990854 C37.2623514,29.7217417 37.0689155,29.9553354 36.7854454,29.9553354 C36.5063001,29.9553354 36.2739412,29.6916635 36.1143172,29.4365854 C36.5503343,29.4705698 36.9749497,29.4920542 37.3826591,29.4990854 Z M4.61532577,20.0662729 C4.57876167,20.1897104 4.54494971,20.3162729 4.51428304,20.446351 L4.67351381,20.3475229 C4.65346253,20.2541635 4.63419757,20.1604135 4.61532577,20.0662729 Z M2.65030013,25.6889292 C2.5492574,25.3123667 2.48006082,24.9248667 2.44349672,24.5436167 C2.4081121,24.1736948 2.40339415,23.8076792 2.43130868,23.4596323 C2.27207791,23.899476 2.21742834,24.377601 2.33301808,24.8846323 C2.39356509,25.1510385 2.5032574,25.4205698 2.65030013,25.6889292 Z M27.7981463,24.3736948 C27.9396847,24.2783823 28.0910523,24.1717417 28.2479241,24.0553354 C28.2738728,24.002601 28.2927446,23.9440073 28.301001,23.8795542 C28.363907,23.3908823 27.8728471,23.2158823 27.8728471,23.2158823 C27.8728471,23.2158823 27.9215993,23.9135385 27.7470352,24.2178354 C27.6892403,24.3190073 27.7238386,24.3690073 27.7981463,24.3736948 Z M11.6309155,26.7397104 C12.1844882,26.7772104 12.7132916,26.6393198 12.7132916,26.6393198 C12.7132916,26.6393198 12.5870865,27.0154917 12.2851377,27.040101 C11.983189,27.0654917 11.6309155,26.7397104 11.6309155,26.7397104 Z M24.3229839,29.7295542 C24.3858899,29.7424448 25.0656677,30.0053354 25.6951206,29.3291635 C26.3245736,28.6522104 26.0729497,27.7756479 26.0729497,27.7756479 C26.0729497,27.7756479 25.8712574,28.4772104 25.2547788,29.0158823 C24.6375138,29.5545542 24.3229839,29.7295542 24.3229839,29.7295542 Z M24.1594283,28.5272104 C24.1594283,28.5272104 24.5494454,28.6647104 24.9650181,28.3518198 C25.3805907,28.0385385 25.1411548,27.5123667 25.1411548,27.5123667 L24.1594283,28.5272104 Z M26.1103001,30.093226 C26.1103001,30.093226 26.7145907,29.9053354 26.916283,29.2787729 C27.1175822,28.6522104 27.0924198,28.3143198 27.0924198,28.3143198 C27.0924198,28.3143198 27.608642,29.0908823 27.2811377,29.5666635 C26.9540266,30.0428354 26.1103001,30.093226 26.1103001,30.093226 Z M26.6748813,18.8440073 C26.6748813,18.8440073 26.8191719,19.2572885 27.0648984,19.3197885 C27.3102318,19.3822885 27.4674967,19.3260385 27.4674967,19.3260385 C27.4674967,19.3260385 27.5744369,19.9022104 27.1403856,19.7830698 C26.7063343,19.6639292 26.6748813,18.8440073 26.6748813,18.8440073 Z M26.3977018,17.4166635 C26.8698899,17.8486948 27.3102318,18.7065073 27.3102318,18.7065073 C27.3102318,18.7065073 26.7629497,18.5936167 26.4987446,18.318226 C26.2341463,18.0424448 26.3977018,17.4166635 26.3977018,17.4166635 Z M26.7904711,15.5990854 L25.5693087,14.1084604 C25.5693087,14.1084604 26.3874796,13.9705698 26.7145907,14.358851 C27.042095,14.7471323 26.7904711,15.5990854 26.7904711,15.5990854 Z M24.7133942,15.4240854 C24.7133942,15.4240854 24.8010694,14.6725229 24.0587788,13.8955698 C23.316095,13.1186167 22.6111548,13.8455698 22.6111548,13.8455698 C22.6111548,13.8455698 23.5928813,14.196351 23.9329668,14.5217417 C24.2726591,14.8475229 24.7133942,15.4240854 24.7133942,15.4240854 Z M10.8567788,21.3358042 C10.9137873,21.1104135 11.278642,20.7287729 11.278642,20.7287729 C11.278642,20.7287729 10.8508813,20.6725229 10.7816847,20.8787729 C10.7124882,21.0858042 10.8567788,21.3358042 10.8567788,21.3358042 Z M9.32816338,25.6377573 C9.32816338,25.6377573 9.71778731,25.8506479 10.0956164,25.9131479 C10.4730523,25.9756479 10.7502318,25.9506479 10.7502318,25.9506479 C10.7502318,25.9506479 9.88173603,26.4518198 9.52317193,26.1760385 C9.16460783,25.9006479 9.32816338,25.6377573 9.32816338,25.6377573 Z M11.4075993,24.7815073 C11.4075993,24.7815073 11.2314625,25.2076792 11.2440437,25.746351 C11.2566249,26.2850229 11.6721976,26.4854135 11.6721976,26.4854135 C11.6721976,26.4854135 11.3981634,25.8252573 11.4075993,24.7815073 Z M15.8007959,29.2787729 C15.8007959,29.2787729 16.449907,29.7545542 17.1477702,29.9428354 C17.2810523,29.977601 17.4045053,30.0068979 17.5161634,30.0303354 L17.522454,30.0315073 L17.5287446,30.0326792 L17.5350352,30.0342417 L17.5409326,30.0354135 L17.5417189,30.0358042 L17.5472232,30.0365854 L17.5535138,30.0377573 L17.5594112,30.0389292 L17.5653087,30.0404917 L17.5692403,30.0412729 L17.5715993,30.0412729 L17.5774967,30.0424448 L17.5833942,30.0440073 L17.5896847,30.0447885 L17.5955822,30.046351 L17.5963685,30.046351 L17.6014796,30.0471323 L17.6073771,30.0483042 L17.6136677,30.049476 L17.6195651,30.0506479 L17.6231036,30.0514292 L17.6250694,30.0518198 L17.63136,30.0529917 L17.6368642,30.0541635 L17.6431548,30.0549448 L17.6486591,30.0561167 L17.6494454,30.0561167 L17.6545565,30.0572885 L17.6600608,30.0580698 L17.6659583,30.0592417 L17.6714625,30.0604135 L17.6753942,30.0608042 L17.67736,30.0611948 L17.6832574,30.0623667 L17.6883685,30.0631479 L17.6942659,30.0643198 L17.7001634,30.065101 L17.7005565,30.0654917 L17.7056677,30.0662729 L17.7107788,30.0670542 L17.7166762,30.0678354 L17.7221805,30.0690073 L17.7257189,30.0693979 L17.7276847,30.0701792 L17.733189,30.0709604 L17.7386933,30.0717417 L17.7441976,30.0725229 L17.7493087,30.0736948 L17.750095,30.0736948 L17.754813,30.074476 L17.7603172,30.0752573 L17.7654283,30.0764292 L17.7709326,30.0772104 L17.7740779,30.077601 L17.7760437,30.0779917 L17.7811548,30.0787729 L17.7866591,30.0795542 L17.7917702,30.0803354 L17.7968813,30.0811167 L17.7976677,30.0811167 L17.8019924,30.0818979 L17.8074967,30.0826792 L17.8126078,30.0834604 L17.8173258,30.0842417 L17.8208642,30.0846323 L17.82283,30.0850229 L17.827548,30.0858042 L17.8330523,30.0865854 L17.8377702,30.0873667 L17.8428813,30.0881479 L17.8436677,30.0881479 L17.8475993,30.0885385 L17.8527104,30.0893198 L17.8578215,30.090101 L17.8625395,30.0908823 L17.8656847,30.0912729 L17.8672574,30.0916635 L17.8723685,30.0924448 C18.1460095,30.130726 18.3060266,30.130726 18.3060266,30.130726 C18.3060266,30.130726 18.0465395,30.3072885 17.6600608,30.3959604 L17.6537702,30.3975229 L17.6474796,30.3986948 L17.643548,30.3998667 L17.641189,30.3998667 L17.6348984,30.4014292 L17.6282147,30.4029917 L17.6160266,30.405726 L17.6128813,30.4065073 L17.6093429,30.4068979 L17.6030523,30.4084604 L17.5967617,30.4096323 L17.5900779,30.4108042 L17.5833942,30.411976 L17.5814283,30.4123667 L17.5771036,30.4131479 L17.5704198,30.4147104 L17.5641292,30.4154917 L17.5574454,30.4170542 L17.5495822,30.4186167 L17.5444711,30.4193979 L17.5377873,30.4201792 L17.5311036,30.421351 L17.5244198,30.4225229 L17.5181292,30.4236948 L17.517736,30.4236948 L17.5110523,30.424476 L17.5047617,30.4256479 L17.4976847,30.4264292 L17.491001,30.427601 L17.4847104,30.4283823 L17.4843172,30.4283823 L17.4776335,30.4291635 L17.4709497,30.4303354 L17.4638728,30.4311167 L17.4567959,30.4322885 L17.4520779,30.4326792 L17.4501121,30.4330698 L17.4434283,30.433851 L17.4363514,30.4346323 L17.4296677,30.4354135 L17.4225907,30.4361948 L17.4182659,30.4365854 L17.415907,30.436976 L17.40883,30.4373667 L17.4017531,30.4381479 L17.3946762,30.4389292 L17.3875993,30.4393198 L17.384454,30.4397104 L17.3805224,30.440101 L17.3734454,30.4408823 L17.3667617,30.4412729 L17.3592916,30.4416635 L17.3526078,30.4420542 L17.3502489,30.4420542 L17.3455309,30.4424448 L17.3380608,30.443226 L17.3309839,30.4436167 L17.323907,30.4436167 L17.31683,30.4443979 L17.3152574,30.4443979 L17.30936,30.4443979 L17.302283,30.4447885 L17.2952061,30.4451792 L17.287736,30.4451792 L17.2806591,30.4455698 L17.2802659,30.4455698 L17.273189,30.4459604 L17.2661121,30.4459604 L17.258642,30.4459604 L17.2511719,30.4459604 L17.2448813,30.446351 L17.2220779,30.446351 C17.0742489,30.4459604 16.9181634,30.4268198 16.7577531,30.3811167 C15.927001,30.143226 15.8007959,29.2787729 15.8007959,29.2787729 Z M20.987001,31.8178354 C20.987001,31.8178354 21.2008813,32.143226 21.4713771,32.2686167 C21.7418728,32.3936167 21.3892061,32.5002573 21.0750694,32.3123667 C20.7605395,32.124476 20.987001,31.8178354 20.987001,31.8178354 Z M21.490642,31.1705698 C21.490642,31.1705698 22.5981805,31.4584604 23.3664198,31.0951792 C24.1342659,30.7318979 24.4236335,30.3686167 24.4236335,30.3686167 C24.4236335,30.3686167 23.7694112,32.2225229 23.0137531,32.1975229 C22.2584882,32.1725229 21.490642,31.1705698 21.490642,31.1705698 Z" transform="translate(10 6)"/>
  </g>
</svg>
