<?xml version="1.0" encoding="utf-8"?>
<!-- Generator: Adobe Illustrator 21.0.0, SVG Export Plug-In . SVG Version: 6.00 Build 0)  -->
<svg version="1.1" id="Layer_1" xmlns="http://www.w3.org/2000/svg" xmlns:xlink="http://www.w3.org/1999/xlink" x="0px" y="0px"
	 viewBox="0 0 60 60" style="enable-background:new 0 0 60 60;" xml:space="preserve">
<style type="text/css">
	.st0{fill:#78358C;}
</style>
<g id="activ">
	<path id="Oval" class="st0" d="M29.7,59.4c16.4,0,29.7-13.3,29.7-29.7S46.1,0,29.7,0S0,13.3,0,29.7S13.3,59.4,29.7,59.4z"/>
</g>
<g>
	<defs>
		<path id="_x31_" d="M29.1,44.8c0,0.4,0.3,0.7,0.7,0.7c0.4,0,0.7-0.3,0.7-0.7c0-0.4-0.3-0.7-0.7-0.7C29.4,44.1,29.1,44.4,29.1,44.8
			z M27.9,44.5c0,0.3,0.2,0.5,0.5,0.5c0.3,0,0.5-0.2,0.5-0.5c0-0.3-0.2-0.5-0.5-0.5C28.1,44,27.9,44.3,27.9,44.5z M35.3,44.5
			c0,0.3,0.2,0.5,0.5,0.5c0.3,0,0.5-0.2,0.5-0.5c0-0.3-0.2-0.5-0.5-0.5C35.5,44,35.3,44.2,35.3,44.5z M24.8,44
			c0,0.3,0.2,0.5,0.6,0.5c0.3,0,0.5-0.2,0.5-0.5c0-0.3-0.2-0.5-0.5-0.5C25,43.5,24.8,43.7,24.8,44z M28.5,43.3
			c0,0.3,0.3,0.6,0.6,0.6c0.3,0,0.6-0.3,0.6-0.6c0-0.3-0.3-0.6-0.6-0.6C28.8,42.8,28.5,43,28.5,43.3z M24.4,42.1
			c-0.4,0-0.7,0.4-0.6,0.8c0,0.4,0.4,0.7,0.8,0.6c0.4,0,0.7-0.4,0.6-0.8C25.2,42.3,24.9,42.1,24.4,42.1
			C24.5,42.1,24.4,42.1,24.4,42.1z M34.1,42.4c0,0.3,0.2,0.5,0.6,0.5c0.3,0,0.5-0.2,0.5-0.5c0-0.3-0.2-0.5-0.5-0.5
			C34.3,41.8,34.1,42.1,34.1,42.4z M28.7,41.9c0,0.2,0.2,0.4,0.4,0.4c0.2,0,0.4-0.2,0.4-0.4c0-0.2-0.2-0.4-0.4-0.4
			C28.9,41.5,28.7,41.7,28.7,41.9z M19.4,41.9c0,0.3,0.2,0.5,0.5,0.5c0.3,0,0.5-0.2,0.5-0.5c0-0.3-0.2-0.5-0.5-0.5
			C19.7,41.4,19.4,41.6,19.4,41.9z M35.6,42.1c0,0.4,0.3,0.7,0.7,0.7c0.4,0,0.7-0.3,0.7-0.7s-0.3-0.7-0.7-0.7
			C35.9,41.3,35.6,41.7,35.6,42.1z M25.6,42.3c0,0.8,0.6,1.4,1.4,1.4c0.8,0,1.4-0.6,1.4-1.4c0-0.8-0.6-1.4-1.4-1.4
			C26.2,40.9,25.6,41.5,25.6,42.3z M21.9,41.4c0,0.3,0.2,0.5,0.5,0.5c0.3,0,0.5-0.2,0.5-0.5c0-0.3-0.2-0.5-0.5-0.5
			C22.1,40.9,21.9,41.1,21.9,41.4z M30,42.6c0,1,0.8,1.9,1.9,1.9c1,0,1.9-0.8,1.9-1.9c0-1-0.8-1.9-1.9-1.9
			C30.8,40.7,30,41.6,30,42.6z M23.2,40.6c0,0.7,0.6,1.2,1.2,1.2c0.7,0,1.2-0.6,1.2-1.2c0-0.7-0.6-1.2-1.2-1.2
			C23.7,39.4,23.2,39.9,23.2,40.6z M40.5,39.7c0,0.4,0.3,0.7,0.7,0.7c0.4,0,0.7-0.3,0.7-0.7c0-0.4-0.3-0.7-0.7-0.7
			C40.8,39,40.5,39.3,40.5,39.7z M36.5,40.1c0,0.6,0.5,1.1,1.1,1.1c0.6,0,1.1-0.5,1.1-1.1c0-0.6-0.5-1.1-1.1-1.1
			C37,39,36.5,39.5,36.5,40.1z M33.3,40.1c0,0.7,0.6,1.3,1.3,1.3s1.3-0.6,1.3-1.3s-0.6-1.3-1.3-1.3S33.3,39.4,33.3,40.1z M16.7,39.1
			c0,0.3,0.2,0.5,0.5,0.5c0.3,0,0.5-0.2,0.5-0.5c0-0.3-0.2-0.5-0.5-0.5C16.9,38.6,16.7,38.8,16.7,39.1z M23.1,38.9
			c0,0.2,0.2,0.4,0.4,0.4c0.2,0,0.4-0.2,0.4-0.4c0-0.2-0.2-0.4-0.4-0.4C23.3,38.5,23.1,38.7,23.1,38.9z M38,38.3
			c0,0.3,0.2,0.6,0.6,0.6c0.3,0,0.6-0.2,0.6-0.6c0-0.3-0.2-0.6-0.6-0.6C38.2,37.8,38,38,38,38.3z M35.5,38.1c0,0.5,0.4,0.9,0.9,0.9
			c0.5,0,0.9-0.4,0.9-0.9c0-0.5-0.4-0.9-0.9-0.9C35.9,37.2,35.5,37.6,35.5,38.1z M18.2,38.7c0,1.3,1,2.3,2.3,2.3
			c1.3,0,2.3-1,2.3-2.3c0-1.3-1-2.3-2.3-2.3C19.2,36.4,18.2,37.4,18.2,38.7z M16,37.2c0,0.5,0.4,1,1,1c0.5,0,1-0.4,1-1
			c0-0.5-0.4-1-1-1C16.4,36.3,16,36.7,16,37.2z M36.8,36.6c0,0.3,0.2,0.5,0.5,0.5c0.3,0,0.5-0.2,0.5-0.5c0-0.3-0.2-0.5-0.5-0.5
			C37,36.1,36.8,36.3,36.8,36.6z M13.4,35.9c0,0.6,0.5,1,1,1c0.6,0,1-0.4,1-1c0-0.6-0.4-1-1-1C13.8,34.9,13.4,35.4,13.4,35.9z
			 M16.3,35.1c0,0.3,0.2,0.5,0.5,0.5c0.3,0,0.5-0.2,0.5-0.5c0-0.3-0.2-0.5-0.5-0.5C16.5,34.6,16.3,34.9,16.3,35.1z M12,34.6
			c0,0.3,0.2,0.5,0.5,0.5c0.3,0,0.5-0.2,0.5-0.5c0-0.3-0.2-0.5-0.5-0.5C12.3,34.1,12,34.3,12,34.6z M17.6,35.2
			c0,0.7,0.6,1.2,1.2,1.2c0.7,0,1.2-0.6,1.2-1.2c0-0.7-0.6-1.2-1.2-1.2C18.2,34,17.6,34.5,17.6,35.2z M38.2,35.6
			c0,1.3,1.1,2.3,2.4,2.3c1.3,0,2.4-1.1,2.4-2.3c0-1.3-1.1-2.4-2.4-2.4C39.3,33.3,38.2,34.3,38.2,35.6z M18.1,33.4
			c0,0.2,0.2,0.4,0.4,0.4c0.2,0,0.4-0.2,0.4-0.4c0-0.2-0.2-0.4-0.4-0.4C18.3,33,18.1,33.2,18.1,33.4z M44.5,33.2
			c0,0.3,0.2,0.5,0.5,0.5c0.3,0,0.5-0.2,0.5-0.5c0-0.3-0.2-0.5-0.5-0.5C44.8,32.7,44.5,32.9,44.5,33.2z M42.1,33.2
			c0,0.3,0.2,0.5,0.5,0.5c0.3,0,0.5-0.2,0.5-0.5c0-0.3-0.2-0.5-0.5-0.5C42.4,32.7,42.1,32.9,42.1,33.2z M40.3,32
			c0,0.5,0.4,0.9,0.9,0.9s0.9-0.4,0.9-0.9s-0.4-0.9-0.9-0.9S40.3,31.5,40.3,32z M43,31.7c0,0.5,0.4,0.8,0.8,0.8
			c0.5,0,0.8-0.4,0.8-0.8s-0.4-0.8-0.8-0.8C43.4,30.9,43,31.2,43,31.7z M12.6,30.9c0,0.2,0.2,0.4,0.4,0.4c0.2,0,0.4-0.2,0.4-0.4
			c0-0.2-0.2-0.4-0.4-0.4C12.8,30.4,12.6,30.6,12.6,30.9z M13.6,32.3c0,1.2,1,2.2,2.2,2.2c1.2,0,2.2-1,2.2-2.2c0-1.2-1-2.2-2.2-2.2
			C14.5,30.1,13.6,31.1,13.6,32.3z M13.1,29.6c0,0.4,0.3,0.6,0.7,0.6c0.4,0,0.7-0.3,0.7-0.6c0-0.4-0.3-0.6-0.7-0.6
			C13.4,29,13.1,29.3,13.1,29.6z M15.8,29.2c0,0.3,0.2,0.5,0.5,0.5c0.3,0,0.5-0.2,0.5-0.5c0-0.3-0.2-0.5-0.5-0.5
			C16.1,28.7,15.8,28.9,15.8,29.2z M41.3,29.6c0,0.7,0.5,1.2,1.2,1.2c0.7,0,1.2-0.5,1.2-1.2c0-0.7-0.5-1.2-1.2-1.2
			C41.8,28.4,41.3,29,41.3,29.6z M44.1,29c0,0.4,0.3,0.6,0.7,0.6c0.4,0,0.7-0.3,0.7-0.6c0-0.4-0.3-0.6-0.7-0.6
			C44.4,28.4,44.1,28.7,44.1,29z M11.3,28.7c0,0.4,0.4,0.8,0.8,0.8c0.4,0,0.8-0.4,0.8-0.8c0-0.4-0.4-0.8-0.8-0.8
			C11.7,27.9,11.3,28.3,11.3,28.7z M46.5,27c0,0.3,0.2,0.5,0.5,0.5c0.3,0,0.5-0.2,0.5-0.5c0-0.3-0.2-0.5-0.5-0.5
			C46.7,26.6,46.5,26.8,46.5,27z M10.5,26.3c0,0.3,0.2,0.5,0.5,0.5c0.3,0,0.5-0.2,0.5-0.5c0-0.3-0.2-0.5-0.5-0.5
			C10.7,25.8,10.5,26,10.5,26.3z M12.8,26.7c0,1.1,0.9,2,2,2c1.1,0,2-0.9,2-2c0-1.1-0.9-2-2-2C13.7,24.7,12.8,25.6,12.8,26.7z
			 M41.4,25.8c0,1.2,1,2.2,2.2,2.2c1.2,0,2.2-1,2.2-2.2c0-1.2-1-2.2-2.2-2.2C42.4,23.6,41.4,24.6,41.4,25.8z M13.8,23.9
			c0,0.2,0.2,0.4,0.4,0.4c0.2,0,0.4-0.2,0.4-0.4s-0.2-0.4-0.4-0.4C13.9,23.5,13.8,23.7,13.8,23.9z M40,23c0,0.6,0.5,1,1,1
			c0.6,0,1-0.5,1-1s-0.5-1-1-1C40.5,21.9,40,22.4,40,23z M28.4,22.5c0,0.4,0.3,0.7,0.7,0.7c0.4,0,0.7-0.3,0.7-0.7
			c0-0.4-0.3-0.7-0.7-0.7C28.7,21.8,28.4,22.2,28.4,22.5z M15,23.2c0,0.8,0.6,1.4,1.4,1.4c0.8,0,1.4-0.6,1.4-1.4
			c0-0.8-0.6-1.4-1.4-1.4C15.6,21.8,15,22.5,15,23.2z M42.5,22.3c0,0.4,0.4,0.8,0.8,0.8c0.4,0,0.8-0.4,0.8-0.8
			c0-0.4-0.4-0.8-0.8-0.8C42.9,21.5,42.5,21.8,42.5,22.3z M29.9,21.5c0,0.3,0.3,0.6,0.6,0.6c0.3,0,0.6-0.2,0.6-0.6
			c0-0.3-0.3-0.6-0.6-0.6C30.1,20.9,29.9,21.1,29.9,21.5z M12.9,21.8c0,0.6,0.5,1,1,1c0.6,0,1-0.5,1-1c0-0.6-0.5-1-1-1
			C13.3,20.8,12.9,21.2,12.9,21.8z M41.4,21.3c0,0.3,0.2,0.5,0.5,0.5c0.3,0,0.5-0.2,0.5-0.5c0-0.3-0.2-0.5-0.5-0.5
			C41.6,20.8,41.4,21,41.4,21.3z M15.3,21.1c0,0.2,0.2,0.4,0.4,0.4c0.2,0,0.4-0.2,0.4-0.4c0-0.2-0.2-0.4-0.4-0.4
			C15.5,20.7,15.3,20.9,15.3,21.1z M29.4,20.3c0,0.2,0.2,0.4,0.4,0.4c0.2,0,0.4-0.2,0.4-0.4c0-0.2-0.2-0.4-0.4-0.4
			C29.5,19.9,29.4,20.1,29.4,20.3z M26.5,20.6c0,0.6,0.5,1.2,1.2,1.2c0.6,0,1.2-0.5,1.2-1.2c0-0.6-0.5-1.2-1.2-1.2
			C27.1,19.5,26.5,20,26.5,20.6z M41.6,19.9c0,0.3,0.3,0.6,0.6,0.6c0.3,0,0.6-0.3,0.6-0.6c0-0.3-0.3-0.6-0.6-0.6
			C41.9,19.3,41.6,19.6,41.6,19.9z M21.6,19.8c0,0.4,0.3,0.8,0.8,0.8c0.4,0,0.8-0.3,0.8-0.8c0-0.4-0.3-0.8-0.8-0.8
			C22,19.1,21.6,19.4,21.6,19.8z M35,19.6c0,0.5,0.4,1,1,1c0.5,0,1-0.4,1-1c0-0.5-0.4-1-1-1C35.5,18.6,35,19,35,19.6z M28.4,18.9
			c0,0.3,0.2,0.6,0.6,0.6c0.3,0,0.6-0.2,0.6-0.6c0-0.3-0.2-0.6-0.6-0.6C28.7,18.4,28.4,18.6,28.4,18.9z M37.6,20.1
			c0,1,0.8,1.8,1.8,1.8c1,0,1.8-0.8,1.8-1.8c0-1-0.8-1.8-1.8-1.8C38.4,18.3,37.6,19.1,37.6,20.1z M27.1,18.6c0,0.2,0.2,0.4,0.4,0.4
			c0.2,0,0.4-0.2,0.4-0.4c0-0.2-0.2-0.4-0.4-0.4C27.3,18.2,27.1,18.4,27.1,18.6z M23.5,19c0,0.8,0.7,1.5,1.5,1.5
			c0.8,0,1.5-0.7,1.5-1.5c0-0.8-0.7-1.5-1.5-1.5C24.2,17.6,23.5,18.2,23.5,19z M41.3,18.1c0,0.3,0.2,0.5,0.5,0.5
			c0.3,0,0.5-0.2,0.5-0.5c0-0.3-0.2-0.5-0.5-0.5C41.5,17.6,41.3,17.8,41.3,18.1z M36.6,18.1c0,0.3,0.3,0.6,0.6,0.6
			c0.3,0,0.6-0.3,0.6-0.6c0-0.3-0.3-0.6-0.6-0.6C36.9,17.5,36.6,17.7,36.6,18.1z M16.3,19.5c0,1.3,1,2.3,2.3,2.3
			c1.3,0,2.3-1,2.3-2.3c0-1.3-1-2.3-2.3-2.3C17.4,17.2,16.3,18.2,16.3,19.5z M38.3,17.6c0,0.2,0.2,0.4,0.4,0.4
			c0.2,0,0.5-0.2,0.5-0.4c0-0.2-0.2-0.4-0.5-0.4C38.5,17.1,38.3,17.3,38.3,17.6z M26.1,17c0,0.4,0.3,0.7,0.7,0.7
			c0.4,0,0.7-0.3,0.7-0.7c0-0.4-0.3-0.7-0.7-0.7C26.4,16.3,26.1,16.6,26.1,17z M28,17.1c0,0.5,0.4,0.9,0.9,0.9
			c0.5,0,0.9-0.4,0.9-0.9c0-0.5-0.4-0.9-0.9-0.9C28.4,16.3,28,16.7,28,17.1z M30,18.5c0,1.3,1,2.3,2.3,2.3c1.3,0,2.3-1,2.3-2.3
			c0-1.3-1-2.3-2.3-2.3C31,16.2,30,17.2,30,18.5z M34.8,17c0,0.5,0.4,0.9,0.9,0.9c0.5,0,0.9-0.4,0.9-0.9c0-0.5-0.4-0.9-0.9-0.9
			C35.2,16.1,34.8,16.5,34.8,17z M38,16.1c0,0.2,0.2,0.4,0.5,0.4c0.2,0,0.5-0.2,0.5-0.4c0-0.2-0.2-0.4-0.5-0.4
			C38.2,15.7,38,15.9,38,16.1z M20.7,17c0,0.8,0.7,1.5,1.5,1.5c0.8,0,1.5-0.7,1.5-1.5c0-0.8-0.7-1.5-1.5-1.5
			C21.4,15.6,20.7,16.2,20.7,17z M33.6,15.8c0,0.3,0.3,0.6,0.6,0.6c0.3,0,0.6-0.3,0.6-0.6c0-0.3-0.3-0.6-0.6-0.6
			C33.9,15.2,33.6,15.5,33.6,15.8z M24,15.7c0,0.6,0.5,1,1,1c0.6,0,1-0.5,1-1c0-0.6-0.5-1-1-1C24.5,14.7,24,15.2,24,15.7z M32,14.5
			c0,0.3,0.2,0.5,0.5,0.5s0.5-0.2,0.5-0.5c0-0.3-0.2-0.5-0.5-0.5S32,14.2,32,14.5z M22.7,14.5c0,0.3,0.3,0.6,0.6,0.6
			c0.3,0,0.6-0.3,0.6-0.6c0-0.3-0.3-0.6-0.6-0.6C23,13.9,22.7,14.1,22.7,14.5z"/>
	</defs>
	<use xlink:href="#_x31_"  style="overflow:visible;fill-rule:evenodd;clip-rule:evenodd;fill:#FFFFFF;"/>
	<clipPath id="_x31__1_">
		<use xlink:href="#_x31_"  style="overflow:visible;"/>
	</clipPath>
</g>
</svg>
