<?xml version="1.0" encoding="UTF-8"?>
<svg width="60px" height="60px" viewBox="0 0 60 60" version="1.1" xmlns="http://www.w3.org/2000/svg" xmlns:xlink="http://www.w3.org/1999/xlink">
    <!-- Generator: Sketch 41.2 (35397) - http://www.bohemiancoding.com/sketch -->
    <title>regru@1x</title>
    <desc>Created with Sketch.</desc>
    <defs>
        <polygon id="path-1" points="46.6919077 0.0605289617 46.6919077 22.687314 1.01548554e-13 22.687314 1.01548554e-13 0.0604995041 46.6919077 0.0604995041 46.6919704 22.6873194 -1.02283188e-05 22.6873194 -1.02283188e-05 0.0605289617 46.6919077 0.0605289617"></polygon>
        <polygon id="path-3" points="0 0.0787769428 0 17.0272954 9.67213564 17.0272954 9.67213564 0.0787769428 0 0.0787769428"></polygon>
        <polygon id="path-5" points="6.36354474 7.494148 6.36354474 0.00908138123 0.00932612696 0.00908138123 0.00932612696 7.494148 6.36354474 7.494148"></polygon>
    </defs>
    <g id="Symbols" stroke="none" stroke-width="1" fill="none" fill-rule="evenodd">
        <g id="regru">
            <g>
                <path d="M0,30 C0,13.4314575 13.4315082,-7.10542736e-15 29.9945354,-7.10542736e-15 L30,-7.10542736e-15 L30.0054646,-7.10542736e-15 C46.5709891,-7.10542736e-15 60,13.4278145 60,30 L60,30 C60,46.5685425 46.5721855,60 30,60 L30,60 C13.4314575,60 0,46.5721855 0,30 L0,30 Z" id="base" fill="#066BC7" transform="translate(30.000000, 30.000000) rotate(-270.000000) translate(-30.000000, -30.000000) "></path>
                <g id="Page-1" transform="translate(7.000000, 18.000000)">
                    <g id="Group-3" transform="translate(0.000000, 0.043096)">
                        <mask id="mask-2" fill="white">
                            <use xlink:href="#path-1"></use>
                        </mask>
                        <g id="Clip-2"></g>
                        <path d="M32.1302737,15.6505276 C32.1230834,15.1546182 31.6714474,14.7324684 31.1632267,14.7464537 C30.669074,14.7601283 30.2489087,15.1938807 30.2582874,15.6805702 C30.2678745,16.174097 30.7297228,16.6099213 31.2252302,16.5930353 C31.7104211,16.5765637 32.1372556,16.1320374 32.1302737,15.6505276 M46.6605725,9.13325999 C46.2158142,9.13325999 45.7985667,9.15087114 45.3837161,9.12735507 C45.0815139,9.11015829 44.9916869,9.2103347 44.9942921,9.51086391 C45.0066928,10.9226571 45.0081517,12.3347611 44.990749,13.7464508 C44.9798072,14.63944 44.4261519,15.1387681 43.5000585,15.1405292 C42.592514,15.1422904 42.0288548,14.6219325 42.0119731,13.7366092 C41.9949873,12.8440344 42.0017608,11.9510451 41.9990514,11.058263 C41.9974883,10.5079662 42.0040534,9.95766933 41.9906106,9.40768325 C41.9884222,9.3168304 41.9050561,9.15211429 41.8539943,9.15004238 C41.3584869,9.13046292 40.861729,9.13833614 40.3741414,9.13833614 C40.3569471,9.21510007 40.3445464,9.24472825 40.3445464,9.27446003 C40.3456927,10.8628828 40.3210997,12.4518235 40.3588229,14.039314 C40.3862295,15.194813 41.1320437,16.0985762 42.2271619,16.4264545 C42.9511967,16.6431753 43.6884659,16.6609937 44.4256309,16.5193792 C45.4304011,16.3261745 46.1813215,15.7983578 46.4914434,14.7953506 C46.6121159,14.405108 46.6712017,13.9825439 46.6782878,13.5733435 C46.7014219,12.2241216 46.6885001,10.8742783 46.6872496,9.52453846 C46.6871454,9.40343586 46.6712017,9.28233325 46.6605725,9.13325999 M37.6952752,13.7270785 C37.9662151,13.5700284 38.2218365,13.4628075 38.427855,13.2952944 C39.1830479,12.6815973 39.4391903,11.6119785 39.0907199,10.6334198 C38.7674678,9.72551284 37.9334939,9.14268714 36.9247638,9.13605705 C35.8387116,9.1288054 34.7522426,9.14859205 33.6667114,9.12414362 C33.329287,9.11658119 33.2696802,9.23592267 33.2729107,9.53313685 C33.2862492,10.7787636 33.2785379,12.0247012 33.2787463,13.2704316 C33.2789547,14.2359373 33.2836441,15.2014431 33.2767663,16.1668453 C33.2752032,16.3877099 33.3374152,16.4877828 33.5794896,16.474419 C33.9126415,16.4561863 34.2482943,16.4559791 34.5815504,16.4741082 C34.8361297,16.4878864 34.9347102,16.4091541 34.9258525,16.144158 C34.908554,15.6256648 34.9209547,15.1061357 34.921059,14.5871245 L34.921059,13.8928306 C35.2145077,13.8928306 35.4548106,13.9073339 35.6925082,13.8886868 C35.9190557,13.870972 36.0505657,13.9583026 36.1732182,14.1452917 C36.6348581,14.8493236 37.1122333,15.5432032 37.589817,16.2366684 C37.6507785,16.3251385 37.7459201,16.4511101 37.8288694,16.4539072 C38.3959675,16.4730723 38.9640034,16.4639559 39.6244715,16.4639559 C38.9462881,15.5017652 38.3215632,14.6156132 37.6952752,13.7270785 M1.34305954,19.4099917 C1.37442604,19.4092665 1.40589675,19.4085414 1.43736747,19.4079198 C1.46664982,19.1215831 1.49812053,18.8354536 1.5249019,18.5489097 C1.65078475,17.2067323 1.77166563,15.8639334 1.90140416,14.5220668 C2.01717886,13.3250261 2.14337434,12.1289178 2.26279631,10.9320843 C2.38732446,9.68428201 2.51320731,8.43658333 2.62856518,7.1879523 C2.64690573,6.98863544 2.72579093,6.88037862 2.90575755,6.78797185 C5.04701647,5.68779251 7.18306501,4.57787524 9.32130191,3.47210176 C9.75407631,3.24833648 9.79096582,3.05482094 9.40685639,2.73916685 C9.24752289,2.60811912 9.02847839,2.52037412 8.82339773,2.48080081 C8.61331509,2.44019156 8.38635082,2.47365276 8.16793157,2.49002077 C7.11741419,2.56896019 6.06710522,2.65080028 5.01700467,2.73616259 C4.16427341,2.80557127 3.30997905,2.86327371 2.46026982,2.96044586 C1.86024213,3.02912937 1.56741862,3.41222383 1.59899354,4.01214271 C1.61379103,4.29164214 1.65620354,4.56958763 1.67454409,4.84898346 C1.70799475,5.3599142 1.44153577,5.71141218 0.937900169,5.80578726 C0.75511994,5.84007722 0.564315721,5.83313635 0.377054563,5.8424599 C-0.00278234442,5.86121061 -0.0262290671,5.89342867 0.0144119189,6.27372606 C0.128936133,7.34583114 0.243460347,8.41803982 0.35006478,9.49087007 C0.482304296,10.8223771 0.60391463,12.1548166 0.73511207,13.4863236 C0.896633937,15.1264403 1.06232411,16.7661426 1.2282227,18.4058449 C1.26209019,18.7409749 1.30460691,19.0752761 1.34305954,19.4099917 M1.73581819,22.682559 C2.02238925,22.682559 2.25143768,22.6948868 2.47861037,22.6798656 C2.86324083,22.6543812 3.24641238,22.6063131 3.63083442,22.5770993 C4.70208913,22.4957772 5.77396908,22.4213959 6.84522379,22.340281 C8.2813095,22.2315062 9.71697838,22.1183804 11.1529599,22.0082589 C12.0683199,21.9380215 12.984201,21.8744141 13.8992485,21.7998257 C15.2616594,21.6886682 16.622924,21.563629 17.9857517,21.4570297 C19.3066879,21.3536418 20.6292915,21.2711802 21.9504362,21.1704858 C24.0103089,21.0134357 26.0694522,20.8472693 28.1292208,20.6884581 C28.5582437,20.6554113 28.5643919,20.6548933 28.6053455,20.2127497 C28.7297695,18.8698471 28.8521093,17.5267374 28.9818478,16.1843529 C29.0984562,14.9767455 29.224339,13.7700704 29.3450115,12.5627738 C29.4708943,11.3046121 29.5965688,10.0464503 29.720159,8.78797771 C29.8257214,7.71411152 29.9197167,6.63910577 30.0372629,5.56658631 C30.0710262,5.25859825 29.9781772,5.10662433 29.680977,4.99049429 C28.1280745,4.38363453 26.5841338,3.75398387 25.0372754,3.13189565 C22.5524438,2.13272148 20.0663618,1.13696594 17.5853859,0.128364616 C17.3379969,0.0277738306 17.1484432,0.0386513099 16.9141844,0.163690525 C15.9857984,0.659392798 15.0448032,1.1314754 14.1100605,1.61536784 C10.602014,3.43128532 7.09657265,5.25238255 3.58269049,7.05721536 C3.31050009,7.19706867 3.20525035,7.3717299 3.18044893,7.65029697 C3.09437341,8.62056813 2.99871078,9.58990693 2.90752908,10.5596601 C2.80259197,11.6754823 2.70203158,12.7916153 2.59292617,13.9070231 C2.48204922,15.042114 2.36095992,16.1762725 2.24831145,17.3111561 C2.11919816,18.6108595 1.99341952,19.9107701 1.86826612,21.2107843 C1.82189372,21.6930192 1.78125273,22.1757721 1.73581819,22.682559" id="Fill-1" fill="#221F20" mask="url(#mask-2)"></path>
                    </g>
                    <path d="M18.5928968,15.1668838 C18.4467976,15.1596322 18.3340449,15.1492727 18.2212923,15.1491691 C17.2603935,15.1479259 16.2992863,15.1372556 15.3388043,15.1551776 C15.0388946,15.1608753 14.9543822,15.0522041 14.9681376,14.7765377 C14.9846025,14.4451372 14.9881455,14.1113539 14.9683461,13.7802642 C14.950735,13.4863651 15.0702612,13.4090832 15.3519344,13.4141593 C16.2081046,13.4296986 17.0647957,13.4140557 17.92107,13.424208 C18.1384472,13.4267979 18.2244185,13.3602899 18.2098294,13.1406684 C18.1954488,12.9236368 18.1932604,12.7037045 18.2106631,12.4870873 C18.231192,12.2325543 18.1426155,12.1429446 17.8775112,12.1475027 C17.0317619,12.1622132 16.1852831,12.1402511 15.3397422,12.1596234 C15.0370189,12.1665642 14.9556327,12.0495018 14.9692839,11.77829 C14.983352,11.498687 14.9722017,11.2178408 14.9732438,10.9375127 C14.9747027,10.5136018 14.9798089,10.5076968 15.4148759,10.5073861 C16.3756705,10.5064537 17.3365693,10.5090436 18.2974681,10.504589 C18.4186616,10.5039674 18.5970651,10.5626022 18.6005039,10.3430843 C18.6062353,9.9841275 18.602067,9.62506709 18.602067,9.2550256 L13.5575828,9.2550256 C13.5487252,9.3511618 13.5362202,9.42274597 13.5362202,9.49433014 C13.535074,11.7058771 13.5384086,13.917424 13.5303846,16.128971 C13.529551,16.3690007 13.617398,16.425978 13.8413403,16.4248384 C15.3244236,16.4171724 16.807507,16.421109 18.2905904,16.4192443 C18.3895876,16.4191407 18.4885849,16.4024619 18.5928968,16.3930347 L18.5928968,15.1668838 Z M26.380856,10.6859839 C26.2136027,10.4831448 26.0885535,10.3178071 25.9494363,10.165108 C24.947167,9.0649287 23.1792841,8.8769037 21.770605,9.44532969 C19.0375508,10.5482025 18.955331,14.2404334 20.8926555,15.7376925 C22.4622313,16.9506868 24.938622,16.8126982 26.3053054,15.3924102 C26.3939861,15.3002106 26.4470278,15.1373592 26.4493204,15.0061043 C26.4620337,14.3001041 26.4445268,13.5935859 26.4570318,12.8875857 C26.4616169,12.6337779 26.3626196,12.5741071 26.1253388,12.5770078 C25.2060188,12.5879889 24.2865947,12.5804264 23.3672747,12.5820839 C23.2771351,12.5821875 23.1870997,12.5980376 23.0960222,12.6067396 L23.0960222,13.859618 C23.6493649,13.859618 24.1803029,13.8554742 24.7110325,13.8633474 C24.8052362,13.8646942 24.9372673,13.8864491 24.9849944,13.9490205 C25.1143161,14.1187092 24.9879122,14.7077506 24.8200337,14.8323754 C24.0722395,15.3874377 22.8747894,15.4158227 22.1065705,14.8890419 C21.2314346,14.2890194 21.0026988,13.417578 21.1046139,12.4288669 C21.2477952,11.0390358 22.6865903,10.0731156 24.0086729,10.5198175 C24.442802,10.6664044 24.8124265,11.0014308 25.2632288,11.2825877 C25.5661605,11.1208759 25.9500615,10.9159649 26.380856,10.6859839 L26.380856,10.6859839 Z M10.6612352,13.7095088 C10.7657555,13.662891 10.8388051,13.6270471 10.9142514,13.5972118 C11.4104883,13.4014171 11.7744856,13.0537522 11.9164164,12.5513162 C12.0269808,12.1600377 12.0788762,11.7374736 12.0705396,11.3306558 C12.0480307,10.229337 11.2065539,9.34515329 10.0965339,9.28993713 C8.95045812,9.23295986 7.80052664,9.25409324 6.6526793,9.22498304 C6.38424038,9.21814576 6.3205695,9.31314242 6.32213262,9.56404961 C6.33182393,11.100882 6.32692617,12.6378181 6.32692617,14.1747541 C6.32692617,14.8289568 6.33390808,15.4832631 6.32338311,16.1373622 C6.31994425,16.3544974 6.39476535,16.4344727 6.61266356,16.4235953 C6.88360347,16.4099207 7.15725277,16.4027727 7.42683798,16.4255636 C7.71580581,16.4499084 7.77999773,16.3270447 7.77239057,16.0651564 C7.75571734,15.4945549 7.76634652,14.9230211 7.76655494,14.3519016 C7.76676335,13.8535059 7.76718019,13.8534023 8.25174579,13.8526771 C8.4397364,13.8523663 8.62908171,13.8662481 8.81550921,13.8490513 C9.05195638,13.8271927 9.1951377,13.9088256 9.31966585,14.1189164 C9.73805959,14.8251238 10.1778159,15.5188998 10.6156965,16.2134009 C10.6662372,16.2934799 10.7546053,16.4040158 10.8285927,16.4065021 C11.3337914,16.4234917 11.8398238,16.4154113 12.4121323,16.4154113 C11.8074152,15.4808804 11.2405256,14.6047771 10.6612352,13.7095088 L10.6612352,13.7095088 Z M1.73574525,22.725696 C1.78128399,22.2188055 1.82192498,21.7360526 1.86829739,21.2539213 C1.99345078,19.9539071 2.11922942,18.6538929 2.24834271,17.3542931 C2.36099119,16.2193058 2.48208048,15.0852509 2.59295743,13.9500565 C2.70195864,12.8347523 2.80251902,11.7185157 2.90756034,10.6027971 C2.99874204,9.6330439 3.09430046,8.66360151 3.18048019,7.69343395 C3.20517741,7.41486688 3.31053135,7.24010205 3.58272175,7.10035233 C7.09660392,5.29551952 10.6019411,3.47442229 14.1100918,1.65850481 C15.0448345,1.17461238 15.9858296,0.702426178 16.9141114,0.2068275 C17.1483702,0.0816846901 17.337924,0.0709108058 17.5854171,0.171501591 C20.0662888,1.17999932 22.5524751,2.17585845 25.0372024,3.17503262 C26.5841651,3.79701725 28.1280015,4.42666791 29.680904,5.03352767 C29.9781043,5.14965771 30.0710575,5.30173523 30.0372942,5.60961969 C29.919748,6.68213915 29.8256485,7.75724849 29.7201903,8.83111469 C29.5966,10.0894837 29.4708214,11.347749 29.3450427,12.6059108 C29.2242661,13.8131038 29.0984874,15.0198825 28.9817748,16.2274899 C28.8521405,17.5698744 28.7296965,18.9128805 28.6053768,20.255783 C28.5644232,20.6980303 28.5582749,20.6985482 28.129252,20.7315951 C26.0694835,20.8904063 24.0103402,21.0565727 21.9504675,21.2136228 C20.6293228,21.3143172 19.3067192,21.3967788 17.9856788,21.5000631 C16.6229552,21.6066624 15.2615864,21.7317016 13.8991755,21.8428591 C12.9842323,21.9175511 12.0683512,21.9811585 11.1529911,22.0512923 C9.71700964,22.1614138 8.28123655,22.2745396 6.84515084,22.3833144 C5.77389614,22.4644293 4.70212039,22.5389142 3.63086568,22.6202363 C3.24633943,22.6494501 2.86327209,22.6974146 2.47853742,22.7228989 C2.25136473,22.7379202 2.02242051,22.725696 1.73574525,22.725696 L1.73574525,22.725696 Z" id="Fill-4" fill="#FEFEFE"></path>
                    <g id="Group-8" transform="translate(0.000000, 2.425781)">
                        <mask id="mask-4" fill="white">
                            <use xlink:href="#path-3"></use>
                        </mask>
                        <g id="Clip-7"></g>
                        <path d="M1.34304912,17.0272954 C1.30459649,16.6925798 1.26218397,16.3582786 1.22821228,16.0231486 C1.0624179,14.3834463 0.896623516,12.743744 0.735101649,11.1036273 C0.60390421,9.77212025 0.482293875,8.43968083 0.350054359,7.10817376 C0.243449927,6.03534351 0.128925712,4.96313483 0.0144014981,3.89102975 C-0.0262394879,3.51073236 -0.00279276519,3.4785143 0.377044142,3.4597636 C0.5643053,3.45044004 0.755109519,3.45738091 0.937889748,3.42309095 C1.44152535,3.32871587 1.70798433,2.97721789 1.67453367,2.46628715 C1.65619312,2.18689132 1.61378061,1.90894583 1.59898312,1.6294464 C1.5674082,1.02952752 1.86023171,0.646433058 2.46036361,0.577749545 C3.30996863,0.480577397 4.16426299,0.422874959 5.01709845,0.353466281 C6.0670948,0.268103967 7.11740377,0.186263884 8.16792115,0.107324463 C8.3863404,0.0909564463 8.61330467,0.0574952479 8.82338731,0.0981045041 C9.02857218,0.13767781 9.24751247,0.22542281 9.40695018,0.356470537 C9.79095539,0.672124628 9.75406588,0.865640165 9.32129149,1.08940545 C7.18305459,2.19517893 5.04700605,3.3050962 2.90585134,4.40527554 C2.72578051,4.49768231 2.64689531,4.60593913 2.62855476,4.80525599 C2.51319689,6.05388702 2.38731404,7.3015857 2.26278589,8.54938798 C2.14336392,9.74622149 2.01716844,10.9423298 1.90139374,12.1393705 C1.77165521,13.4812371 1.65077432,14.824036 1.52499568,16.1662134 C1.49811011,16.4527573 1.4666394,16.7388868 1.43735704,17.0252235 C1.40588633,17.025845 1.37451983,17.0265702 1.34304912,17.0272954" id="Fill-6" fill="#FEFEFE" mask="url(#mask-4)"></path>
                    </g>
                    <path d="M34.92381,12.4653945 C35.5607272,12.4653945 36.1665905,12.5072469 36.7637004,12.4529631 C37.2963057,12.4044806 37.5746444,11.9959018 37.5452578,11.4666347 C37.5185807,10.9859537 37.1915771,10.66253 36.6653284,10.6397391 C36.1652358,10.6180877 35.6635802,10.6222315 35.1630708,10.6350773 C35.0818931,10.6371492 34.936315,10.7409514 34.934335,10.8014509 C34.9164113,11.347604 34.92381,11.8945858 34.92381,12.4653945 M37.6952127,13.770174 C38.3216049,14.6586051 38.9463298,15.5448607 39.6245132,16.5070514 C38.9639409,16.5070514 38.3959049,16.5161678 37.8289111,16.4970027 C37.7459618,16.4942056 37.6508202,16.3682341 37.5898587,16.2797639 C37.1121708,15.5862987 36.6347955,14.8924191 36.1732598,14.1883872 C36.0506074,14.0013982 35.9189932,13.9140675 35.6925499,13.9317823 C35.4548523,13.9503258 35.2144452,13.9359261 34.9209964,13.9359261 C34.9209964,14.1828967 34.9211006,14.4065584 34.9209964,14.6302201 C34.9209964,15.1492312 34.9084915,15.6687604 34.9258942,16.1872535 C34.9347518,16.4522497 34.8360672,16.5309819 34.5814879,16.5172037 C34.248336,16.4990746 33.9126832,16.4992818 33.5794271,16.5175145 C33.3373527,16.5308783 33.2751407,16.4308055 33.276808,16.2099409 C33.2835815,15.2445387 33.2789964,14.2790329 33.278788,13.3135271 C33.2785796,12.0676931 33.2862909,10.8218592 33.2728481,9.57623238 C33.2696177,9.27901821 33.3292245,9.15967672 33.6667531,9.16723916 C34.7522842,9.19168759 35.8386491,9.17190094 36.9247012,9.17915259 C37.9335356,9.18578267 38.7674052,9.76850478 39.0907616,10.6765153 C39.4391278,11.6550741 39.1829854,12.7245893 38.4278967,13.3383899 C38.2217739,13.5059031 37.9662568,13.613124 37.6952127,13.770174" id="Fill-9" fill="#FEFEFE"></path>
                    <g id="Group-13" transform="translate(40.328363, 9.159459)">
                        <mask id="mask-6" fill="white">
                            <use xlink:href="#path-5"></use>
                        </mask>
                        <g id="Clip-12"></g>
                        <path d="M6.33223034,0.0168445537 C6.34285952,0.166021413 6.35880329,0.287124017 6.3589075,0.40822662 C6.36015799,1.75786282 6.37297553,3.10770621 6.34994564,4.45703162 C6.34285952,4.86623203 6.28377378,5.28869261 6.16310131,5.67903873 C5.85287512,6.68204592 5.10205896,7.20986265 4.09728873,7.40296381 C3.36012377,7.54468183 2.6228546,7.52675988 1.89881981,7.31003906 C0.803701549,6.98226435 0.0577831454,6.07850121 0.0303765318,4.92300212 C-0.00724243211,3.33540811 0.0172463671,1.74646736 0.0162042906,0.15814819 C0.0162042906,0.128416413 0.0286050016,0.0986846364 0.0457992649,0.0219207107 C0.533386889,0.0219207107 1.03004058,0.0141510826 1.52565219,0.0337305455 C1.57671394,0.0356988512 1.66008007,0.200518562 1.66226843,0.291371413 C1.67571122,0.841253893 1.66904193,1.39165435 1.67070925,1.94184761 C1.67341865,2.83462968 1.66664515,3.72761893 1.683631,4.62019381 C1.70051264,5.50551703 2.26417185,6.02597852 3.17171633,6.0242174 C4.09780977,6.02235269 4.65146505,5.5230246 4.66240685,4.63003534 C4.67980953,3.21834571 4.67835062,1.8062417 4.66594991,0.394448479 C4.66334472,0.0939192645 4.75317172,-0.0062571405 5.05537393,0.0109396364 C5.4702246,0.0345593058 5.88747206,0.0168445537 6.33223034,0.0168445537" id="Fill-11" fill="#FEFEFE" mask="url(#mask-6)"></path>
                    </g>
                    <path d="M32.1302737,15.6936232 C32.1372556,16.1751329 31.7104211,16.6196592 31.2252302,16.6361309 C30.7297228,16.6530168 30.2678745,16.2171925 30.2582874,15.7236657 C30.2489087,15.2369762 30.669074,14.8032238 31.1632267,14.7895492 C31.6714474,14.7755639 32.1230834,15.1977137 32.1302737,15.6936232" id="Fill-14" fill="#FEFEFE"></path>
                    <path d="M7.76948317,11.5326558 L7.76854531,11.5326558 C7.76854531,11.7818019 7.77375569,12.0311552 7.76687798,12.280094 C7.76125077,12.4829331 7.8297152,12.5882893 8.05449111,12.5835239 C8.52425923,12.5736824 8.99829986,12.6161564 9.46275338,12.5657056 C9.7474487,12.5348342 10.0571539,12.4242983 10.2848476,12.2552312 C10.6276908,12.0006982 10.67448,11.6001998 10.5402605,11.2068494 C10.3835322,10.7473018 10.0040079,10.5468454 9.54976677,10.5195999 C9.03998292,10.4890394 8.52686442,10.5119339 8.01520483,10.5087224 C7.84513793,10.5075829 7.7670864,10.5857971 7.76875372,10.7540355 C7.77146312,11.0135411 7.76948317,11.2731502 7.76948317,11.5326558 M10.6612456,13.7094984 C11.240536,14.6047668 11.8074256,15.48087 12.4121427,16.4154009 C11.8398342,16.4154009 11.3338018,16.4234813 10.8286031,16.4064917 C10.7546157,16.4040054 10.6661434,16.2934695 10.6157069,16.2133906 C10.1778263,15.5188894 9.73807001,14.8251134 9.31967627,14.118906 C9.19514812,13.9088153 9.0519668,13.8271824 8.81551963,13.8490409 C8.62909213,13.8662377 8.43974682,13.852356 8.25175621,13.8526668 C7.76719061,13.8534955 7.76666957,13.8534955 7.76656536,14.3518913 C7.76635694,14.9230107 7.75572776,15.4945446 7.77240099,16.0651461 C7.78000815,16.3270343 7.71571202,16.449898 7.4268484,16.4255532 C7.15726319,16.4027623 6.88361389,16.4099104 6.61267398,16.4235849 C6.39477577,16.4344624 6.31995468,16.354487 6.32339353,16.1373518 C6.3339185,15.4833563 6.32693659,14.8289464 6.32693659,14.1747438 C6.32693659,12.6378077 6.33183435,11.1008717 6.32214304,9.56403925 C6.32057992,9.31313206 6.3842508,9.2181354 6.65268972,9.22497268 C7.80053706,9.25408288 8.95046854,9.2329495 10.0965443,9.28992677 C11.2065643,9.34514293 12.0479369,10.2293266 12.07055,11.3306455 C12.0788866,11.7374632 12.0269912,12.1600274 11.9164269,12.5513059 C11.774496,13.0537418 11.4104987,13.4014068 10.9142618,13.597305 C10.8388155,13.6270368 10.7657659,13.6628807 10.6612456,13.7094984" id="Fill-16" fill="#066BC7"></path>
                    <path d="M18.5928968,16.3930347 C18.4885849,16.4024619 18.3895876,16.4191407 18.2905904,16.4192443 C16.807507,16.421109 15.3244236,16.4171724 13.8413403,16.4248384 C13.617398,16.425978 13.529551,16.3690007 13.5303846,16.128971 C13.5384086,13.917424 13.535074,11.7058771 13.5362202,9.49433014 C13.5362202,9.42274597 13.5487252,9.3511618 13.5575828,9.2550256 L18.602067,9.2550256 C18.602067,9.62506709 18.6062353,9.9841275 18.6005039,10.3430843 C18.5970651,10.5626022 18.4186616,10.5039674 18.2974681,10.504589 C17.3365693,10.5090436 16.3756705,10.5064537 15.4148759,10.5073861 C14.9798089,10.5076968 14.9747027,10.5136018 14.9732438,10.9375127 C14.9722017,11.2178408 14.983352,11.498687 14.9692839,11.77829 C14.9556327,12.0495018 15.0370189,12.1665642 15.3397422,12.1596234 C16.1852831,12.1402511 17.0317619,12.1622132 17.8775112,12.1475027 C18.1426155,12.1429446 18.231192,12.2325543 18.2106631,12.4870873 C18.1932604,12.7037045 18.1954488,12.9236368 18.2098294,13.1406684 C18.2244185,13.3602899 18.1384472,13.4267979 17.92107,13.424208 C17.0647957,13.4140557 16.2081046,13.4296986 15.3519344,13.4141593 C15.0702612,13.4090832 14.950735,13.4863651 14.9683461,13.7802642 C14.9881455,14.1113539 14.9846025,14.4451372 14.9681376,14.7765377 C14.9543822,15.0522041 15.0388946,15.1608753 15.3388043,15.1551776 C16.2992863,15.1372556 17.2603935,15.1479259 18.2212923,15.1491691 C18.3340449,15.1492727 18.4467976,15.1596322 18.5928968,15.1668838 L18.5928968,16.3930347 Z" id="Fill-18" fill="#066BC7"></path>
                    <path d="M7.76948317,11.5326558 C7.76948317,11.2731502 7.77146312,11.0135411 7.76875372,10.7540355 C7.7670864,10.5857971 7.84513793,10.5075829 8.01520483,10.5087224 C8.52686442,10.5119339 9.03998292,10.4890394 9.54976677,10.5195999 C10.0040079,10.5468454 10.3835322,10.7473018 10.5402605,11.2068494 C10.67448,11.6001998 10.6276908,12.0006982 10.2848476,12.2552312 C10.0571539,12.4242983 9.7474487,12.5348342 9.46275338,12.5657056 C8.99829986,12.6161564 8.52425923,12.5736824 8.05449111,12.5835239 C7.8297152,12.5882893 7.76125077,12.4829331 7.76687798,12.280094 C7.77375569,12.0311552 7.76854531,11.7818019 7.76854531,11.5326558 L7.76948317,11.5326558 Z" id="Fill-20" fill="#FEFEFE"></path>
                </g>
            </g>
        </g>
    </g>
</svg>