<?xml version="1.0" encoding="utf-8"?>
<!-- Generator: Adobe Illustrator 21.0.0, SVG Export Plug-In . SVG Version: 6.00 Build 0)  -->
<svg version="1.1" id="Layer_1" xmlns="http://www.w3.org/2000/svg" xmlns:xlink="http://www.w3.org/1999/xlink" x="0px" y="0px"
	 viewBox="0 0 60 60" style="enable-background:new 0 0 60 60;" xml:space="preserve">
<style type="text/css">
	.st0{fill:#FFB600;}
	.st1{fill:#FFFFFF;}
</style>
<path id="base" class="st0" d="M30,0c16.6,0,30,13.4,30,30v0v0c0,16.6-13.4,30-30,30l0,0C13.4,60,0,46.6,0,30l0,0
	C0,13.4,13.4,0,30,0L30,0z"/>
<path id="Combined-Shape" class="st1" d="M27.6,12h4.8c2.1,0,3.9,1.6,3.9,3.6v7.1c0,0.5,0.4,1,1,1h7.1c2,0,3.6,1.7,3.6,3.9v4.8
	c0,2.1-1.6,3.9-3.6,3.9h-7.1c-0.5,0-1,0.4-1,1v7.1c0,2-1.7,3.6-3.9,3.6h-4.8c-2.1,0-3.9-1.6-3.9-3.6v-7.1c0-0.5-0.4-1-1-1h-7.1
	c-2,0-3.6-1.7-3.6-3.9v-4.8c0-1,0.3-1.9,0.9-2.6c0.2-0.2,0.3-0.3,0.5-0.5l11.1-11.1C25.2,12.5,26.3,12,27.6,12z"/>
<polygon class="st0" points="27.1,18.8 29.8,15.6 32.5,18.8 "/>
<polygon class="st0" points="41.5,27.3 44.7,30 41.5,32.7 "/>
<polygon class="st0" points="27.1,41.7 29.8,44.8 32.5,41.7 "/>
<polygon class="st0" points="18.6,27.3 15.4,30 18.6,32.7 "/>
<circle class="st0" cx="-14.5" cy="27.3" r="4.8"/>
</svg>
