<svg width="60" height="60" xmlns="http://www.w3.org/2000/svg"><g fill="none" fill-rule="evenodd"><path d="M30 0c16.569 0 30 13.432 30 29.995v.01C60 46.571 46.572 60 30 60 13.431 60 0 46.572 0 30 0 13.431 13.428 0 30 0z" fill="#00BDF2"/><g fill="#FFF"><path d="M40.007 16.269v-2.112c0-1.326-1.049-2.4-2.342-2.4-1.297 0-2.344 1.074-2.344 2.4v2.112c0 1.708-.66 3.228-1.72 4.338-1.064 1.107-2.497 1.775-4.098 1.775-1.602 0-3.033-.668-4.099-1.775a6.244 6.244 0 0 1-1.718-4.338v-2.112c0-1.326-1.049-2.4-2.342-2.4-1.294 0-2.344 1.074-2.344 2.4v2.112c0 2.993 1.168 5.731 3.062 7.705a10.388 10.388 0 0 0 5.098 2.938v5.055a10.379 10.379 0 0 0-5.098 2.94c-1.894 1.973-3.063 4.71-3.062 7.704v2.112c0 1.325 1.05 2.4 2.344 2.4 1.293 0 2.342-1.075 2.342-2.4v-2.112c0-1.708.659-3.23 1.718-4.338 1.066-1.108 2.497-1.775 4.1-1.777 1.6.002 3.033.67 4.097 1.777a6.243 6.243 0 0 1 1.72 4.338v2.112c0 1.325 1.047 2.4 2.344 2.4 1.293 0 2.342-1.075 2.342-2.4v-2.112c.001-2.994-1.168-5.73-3.062-7.704a10.379 10.379 0 0 0-5.098-2.94v-5.055a10.388 10.388 0 0 0 5.098-2.938c1.894-1.974 3.063-4.712 3.062-7.705z"/><path d="M29.503 46.617c2.241 0 4.058-1.86 4.058-4.157 0-2.298-1.817-4.16-4.058-4.16-2.24 0-4.056 1.862-4.056 4.16 0 2.297 1.816 4.157 4.056 4.157"/></g></g></svg>