<?xml version="1.0" encoding="UTF-8"?>
<svg width="60px" height="60px" viewBox="0 0 60 60" version="1.1" xmlns="http://www.w3.org/2000/svg" xmlns:xlink="http://www.w3.org/1999/xlink">
    <!-- Generator: Sketch 41.2 (35397) - http://www.bohemiancoding.com/sketch -->
    <title>ru_center@1x</title>
    <desc>Created with Sketch.</desc>
    <defs></defs>
    <g id="Symbols" stroke="none" stroke-width="1" fill="none" fill-rule="evenodd">
        <g id="ru_center">
            <g id="ru-center">
                <g id="Group">
                    <g id="ru_centr">
                        <path d="M30,0 C13.427762,0 0,13.427762 0,30 C0,46.572238 13.427762,60 30,60 C46.572238,60 60,46.572238 60,30 C60,13.427762 46.572238,0 30,0 L30,0 Z" id="Path" fill="#216BB3"></path>
                        <path d="M27.7903683,39.1784703 L22.1813031,39.1784703 L18.5269122,32.0396601 L15.7223796,32.0396601 L14.1076487,39.1784703 L9.09348442,39.1784703 L13.5977337,19.8016997 L21.1614731,19.8016997 C23.5410765,19.8016997 25.325779,20.2266289 26.6855524,20.9915014 C27.9603399,21.7563739 28.6402266,23.0311615 28.6402266,24.6458924 C28.6402266,26.1756374 28.1303116,27.5354108 27.1954674,28.5552408 C26.2606232,29.5750708 24.9858357,30.4249292 23.3711048,30.9348442 L27.7903683,39.1784703 L27.7903683,39.1784703 Z M47.6770538,31.9546742 C47.082153,34.674221 45.9773371,36.5439093 44.4475921,37.8186969 C42.917847,39.0084986 40.7082153,39.6033994 37.9036827,39.6033994 C35.3541076,39.6033994 33.3994334,39.1784703 32.1246459,38.2436261 C30.8498584,37.3087819 30.1699717,35.9490085 30.1699717,34.0793201 C30.1699717,33.7393768 30.1699717,33.3144476 30.2549575,32.8895184 C30.3399433,32.4645892 30.3399433,32.1246459 30.4249292,31.7847025 L33.2294618,19.8016997 L38.2436261,19.8016997 L35.4390935,31.7847025 C35.3541076,32.0396601 35.3541076,32.2946176 35.2691218,32.5495751 C35.2691218,32.8045326 35.184136,33.0594901 35.184136,33.3144476 C35.184136,34.1643059 35.4390935,34.7592068 35.9490085,35.184136 C36.4589235,35.6090652 37.223796,35.7790368 38.4135977,35.7790368 C39.5184136,35.7790368 40.368272,35.4390935 41.0481586,34.8441926 C41.7280453,34.2492918 42.2379603,33.3144476 42.4929178,32.0396601 L45.3824363,19.8016997 L50.3966006,19.8016997 L47.6770538,31.9546742 L47.6770538,31.9546742 Z M22.4362606,23.7110482 C21.9263456,23.3711048 21.1614731,23.2011331 20.2266289,23.2011331 L17.7620397,23.2011331 L16.572238,28.3852691 L19.0368272,28.3852691 C20.3966006,28.3852691 21.4164306,28.1303116 22.0963173,27.5354108 C22.8611898,27.0254958 23.2011331,26.2606232 23.2011331,25.325779 C23.2011331,24.5609065 22.9461756,24.0509915 22.4362606,23.7110482 L22.4362606,23.7110482 Z" id="Shape" fill="#FFFFFF"></path>
                    </g>
                </g>
            </g>
        </g>
    </g>
</svg>