<?xml version="1.0" encoding="UTF-8"?>
<svg width="60px" height="60px" viewBox="0 0 60 60" version="1.1" xmlns="http://www.w3.org/2000/svg" xmlns:xlink="http://www.w3.org/1999/xlink">
    <!-- Generator: Sketch 41.2 (35397) - http://www.bohemiancoding.com/sketch -->
    <title>skype</title>
    <desc>Created with Sketch.</desc>
    <defs></defs>
    <g id="Symbols" stroke="none" stroke-width="1" fill="none" fill-rule="evenodd">
        <g id="skype">
            <path d="M0,30 C0,13.4314575 13.4315082,-7.10542736e-15 29.9945354,-7.10542736e-15 L30,-7.10542736e-15 L30.0054646,-7.10542736e-15 C46.5709891,-7.10542736e-15 60,13.4278145 60,30 L60,30 C60,46.5685425 46.5721855,60 30,60 L30,60 C13.4314575,60 0,46.5721855 0,30 L0,30 Z" id="base" fill="#00AFF0" transform="translate(30.000000, 30.000000) rotate(-270.000000) translate(-30.000000, -30.000000) "></path>
            <g transform="translate(12.000000, 12.000000)" id="Shape" fill="#FFFFFF">
                <path d="M34.7257898,20.9546283 C34.7143875,21.0179112 34.706406,21.0817643 34.6944334,21.145047 L34.6328609,20.7824531 C34.6664977,20.8388946 34.6944334,20.8976167 34.7257898,20.9546283 C34.9116479,19.9432418 35.0091377,18.9079103 35.0091377,17.8731491 C35.0091377,15.5784306 34.559886,13.3521261 33.6722147,11.2563782 C32.8158998,9.23189484 31.5907197,7.41379365 30.0286008,5.85281495 C28.4687623,4.29183624 26.6495209,3.0666561 24.6261779,2.21034127 C22.5310001,1.32381028 20.3046955,0.874558555 18.0099771,0.874558555 C16.9284662,0.874558555 15.845245,0.976039275 14.7910998,1.1784306 C14.7888194,1.17900071 14.7859688,1.17900071 14.7831182,1.17957083 C14.8424103,1.21092723 14.9022726,1.23886293 14.9604244,1.27135957 L14.6029614,1.21548816 C14.6628236,1.20408583 14.723256,1.19154327 14.7831182,1.17957083 C13.3367329,0.410483807 11.7101908,0 10.0636947,0 C7.37559585,0 4.84826985,1.04673371 2.94750179,2.94807189 C1.04730382,4.84883997 0,7.37616597 0,10.0642648 C0,11.7751841 0.44012986,13.4570275 1.26622852,14.9433209 C1.27706073,14.8817483 1.28447225,14.8196057 1.29644469,14.7580331 L1.35801726,15.1143559 C1.32609074,15.0584844 1.29815504,15.0003326 1.26622852,14.9433209 C1.0986143,15.9062476 1.01024626,16.8902685 1.01024626,17.8731491 C1.01024626,20.1684378 1.45949798,22.3941721 2.34716922,24.4904902 C3.20234382,26.5155436 4.42809406,28.3325046 5.98850266,29.8934833 C7.55062159,31.454462 9.36758254,32.6813524 11.3932061,33.5353868 C13.4883839,34.4236282 15.7152586,34.87345 18.0099771,34.87345 C19.008821,34.87345 20.0099454,34.7822314 20.9871249,34.608916 C20.9301133,34.5769895 20.8719613,34.5479136 20.8138095,34.5142766 L21.1769736,34.5781297 C21.1142609,34.5901022 21.0509779,34.5975137 20.9871249,34.608916 C22.4928023,35.4606699 24.1974503,35.9133424 25.9380156,35.9133424 C28.6255444,35.9133424 31.1517301,34.8683189 33.0524982,32.9664106 C34.9538363,31.0667827 36,28.5388867 36,25.8507879 C36,24.1341674 35.5575897,22.4466228 34.7257898,20.9546283 L34.7257898,20.9546283 Z M18.0778209,28.2840446 C12.0385779,28.2840446 9.33679626,25.3148784 9.33679626,23.0897142 C9.33679626,21.9483411 10.1794283,21.1484678 11.3407554,21.1484678 C13.925093,21.1484678 13.2557764,24.8593555 18.0778209,24.8593555 C20.5464248,24.8593555 21.9095731,23.5190118 21.9095731,22.1473118 C21.9095731,21.3223534 21.50251,20.4078866 19.8771082,20.0070948 L14.5054716,18.666181 C10.1794283,17.5812495 9.39437802,15.242632 9.39437802,13.0442632 C9.39437802,8.47991132 13.6919154,6.76614142 17.7277694,6.76614142 C21.4454984,6.76614142 25.8279832,8.82084092 25.8279832,11.55911 C25.8279832,12.7324095 24.8120357,13.4148389 23.6512787,13.4148389 C21.4454984,13.4148389 21.8514213,10.3618655 17.4085042,10.3618655 C15.2038641,10.3618655 13.9826748,11.3601394 13.9826748,12.7888511 C13.9826748,14.2147122 15.7238103,14.6702351 17.235759,15.0145855 L21.2117507,15.8971257 C25.56687,16.8674638 26.6711854,19.4101829 26.6711854,21.8052419 C26.6711854,25.5144192 23.824024,28.2840446 18.0778209,28.2840446 Z M20.8138095,34.5142766 C20.8719613,34.5479136 20.9301133,34.5769895 20.9871249,34.608916 C21.0509779,34.5975137 21.1142609,34.5901022 21.1769736,34.5781297 L20.8138095,34.5142766 Z M34.6944334,21.145047 C34.706406,21.0817642 34.7143875,21.0179112 34.7257898,20.9546283 C34.6944334,20.8976167 34.6664977,20.8388946 34.6328609,20.7824531 L34.6944334,21.145047 Z M1.29644469,14.7580331 C1.28447225,14.8196057 1.27706073,14.8817483 1.26622852,14.9433209 C1.29815504,15.0003326 1.32609074,15.0584844 1.35801726,15.1143559 L1.29644469,14.7580331 Z M14.9604244,1.27135957 C14.9022726,1.23886293 14.8424103,1.21092723 14.7831182,1.17957083 C14.723256,1.19154327 14.6628236,1.20408583 14.6029614,1.21548816 L14.9604244,1.27135957 Z"></path>
            </g>
        </g>
    </g>
</svg>