<svg xmlns="http://www.w3.org/2000/svg" width="60" height="60" viewBox="0 0 60 60">
  <g fill="none" fill-rule="evenodd">
    <circle cx="30" cy="30" r="30" fill="#000000"/>
    <g fill-rule="nonzero" transform="translate(15 14)">
      <path fill="#FFFFFF" d="M12.5386364,0.739368421 C13.7470909,0.0623157895 15.705,0.0614736842 16.9159091,0.739368421 L27.2659091,6.53305263 C28.4743636,7.21010526 29.4545455,8.90526316 29.4545455,10.3174737 L29.4545455,21.6909474 C29.4545455,23.104 28.4768182,24.7966316 27.2659091,25.4745263 L16.9159091,31.2682105 C15.7074545,31.9452632 13.7495455,31.9469474 12.5386364,31.2682105 L2.18863636,25.4745263 C0.980181818,24.7974737 0,23.1023158 0,21.6909474 L0,10.3174737 C0,8.90442105 0.977727273,7.21178947 2.18863636,6.53305263 L12.5386364,0.739368421 Z M18.9924545,19.7448421 C18.9924545,20.4303158 19.4964545,20.9726316 20.133,20.9726316 C20.7695455,20.9726316 21.2727273,20.4303158 21.2727273,19.7456842 L21.2727273,12.1751579 C21.2727273,11.4896842 20.7695455,10.9473684 20.133,10.9473684 C19.4964545,10.9473684 18.9924545,11.4896842 18.9924545,12.1751579 L18.9924545,19.7448421 Z M17.2129091,16.0134737 L17.2129091,12.1751579 C17.2129091,11.4896842 16.7089091,10.9473684 16.0723636,10.9473684 C15.4358182,10.9473684 14.9326364,11.4896842 14.9326364,12.176 L14.9326364,16.1086316 C14.9326364,17.8787368 14.0882727,18.7882105 12.6973636,18.7882105 C11.3048182,18.7882105 10.4620909,17.8475789 10.4620909,16.0294737 L10.4620909,12.1751579 C10.4620909,11.4896842 9.95809091,10.9473684 9.32154545,10.9473684 C8.685,10.9473684 8.18181818,11.4896842 8.18181818,12.1751579 L8.18181818,16.0926316 C8.18181818,19.3785263 9.88363636,21.0526316 12.6679091,21.0526316 C15.4505455,21.0526316 17.2129091,19.3945263 17.2129091,16.0134737 Z"/>
      <ellipse cx="29.044" cy="7.246" fill="#2F8BE6" rx="6.953" ry="7.246"/>
      <path fill="#FFFFFF" d="M29.0454545,10.1052632 C27.8713636,10.1052632 27,9.45010526 27,8.45136842 L27,8.43452632 C27,7.73894737 27.2953636,7.32968421 27.8558182,7.05178947 C27.4467273,6.78147368 27.1816364,6.41263158 27.1816364,5.79873684 L27.1816364,5.78189474 C27.1816364,4.90694737 27.9245455,4.21052632 29.0454545,4.21052632 C30.1663636,4.21052632 30.9092727,4.89852632 30.9092727,5.78273684 L30.9092727,5.79957895 C30.9092727,6.41263158 30.6441818,6.78147368 30.2350909,7.05178947 C30.7726364,7.35494737 31.0909091,7.72294737 31.0909091,8.40252632 L31.0909091,8.41936842 C31.0909091,9.48210526 30.2195455,10.1052632 29.0454545,10.1052632 Z M29.0454545,6.63410526 C29.5077273,6.63410526 29.8030909,6.33936842 29.8030909,5.93768421 L29.8030909,5.92084211 C29.8030909,5.56968421 29.5224545,5.25052632 29.0454545,5.25052632 C28.5684545,5.25052632 28.2878182,5.56210526 28.2878182,5.91326316 L28.2878182,5.93010526 C28.2878182,6.33094737 28.5831818,6.63410526 29.0454545,6.63410526 Z M29.0454545,9.06526316 C29.6214545,9.06526316 29.9618182,8.75368421 29.9618182,8.35284211 L29.9618182,8.33684211 C29.9618182,7.89473684 29.5756364,7.63284211 29.0454545,7.63284211 C28.5152727,7.63284211 28.1290909,7.89473684 28.1290909,8.33684211 L28.1290909,8.35368421 C28.1290909,8.74610526 28.4694545,9.06526316 29.0454545,9.06526316 Z"/>
    </g>
  </g>
</svg>
