<svg width="60" height="60" xmlns="http://www.w3.org/2000/svg"><g fill="none" fill-rule="evenodd"><path d="M30 0c16.569 0 30 13.432 30 29.995v.01C60 46.571 46.572 60 30 60 13.431 60 0 46.572 0 30 0 13.431 13.428 0 30 0z" fill="#FFDA32"/><path d="M7.556 10.103c14.49-1.228 30.39-1.275 44.893 0C46.955 3.905 38.931 0 30.003 0 21.068 0 13.05 3.905 7.556 10.103zm45.188 39.452c-14.075 1.092-30.805 1.169-45.49 0C12.758 55.95 20.908 60 30.004 60c9.095 0 17.24-4.049 22.741-10.445zM.984 22.375c19.516-.345 38.543-.401 58.037 0a30.243 30.243 0 0 1 .24 14.273c-19.74.572-39.19.425-58.518 0A30.244 30.244 0 0 1 0 29.998c0-2.634.342-5.187.984-7.623z" fill="#000"/></g></svg>