<?xml version="1.0" encoding="UTF-8"?>
<svg width="60px" height="60px" viewBox="0 0 60 60" version="1.1" xmlns="http://www.w3.org/2000/svg" xmlns:xlink="http://www.w3.org/1999/xlink">
    <!-- Generator: Sketch 41.2 (35397) - http://www.bohemiancoding.com/sketch -->
    <title>ok</title>
    <desc>Created with Sketch.</desc>
    <defs></defs>
    <g id="Symbols" stroke="none" stroke-width="1" fill="none" fill-rule="evenodd">
        <g id="ok">
            <rect id="base" fill="#EB722E" transform="translate(30.000000, 30.000000) rotate(-270.000000) translate(-30.000000, -30.000000) " x="0" y="7.10542736e-15" width="60" height="60" rx="30"></rect>
            <g id="shape" transform="translate(20.000000, 13.000000)" fill="#FFFFFF">
                <path d="M9.86055921,5.14044956 C11.8166776,5.14044956 13.407818,6.73158991 13.407818,8.68770833 C13.407818,10.6421864 11.8162675,12.2333268 9.86055921,12.2333268 C7.90567105,12.2333268 6.31412061,10.6421864 6.31412061,8.68770833 C6.31371053,6.73117982 7.90608114,5.14044956 9.86055921,5.14044956 L9.86055921,5.14044956 Z M9.86055921,17.2519803 C14.5855899,17.2519803 18.4281118,13.4106886 18.4281118,8.68770833 C18.4281118,3.96226754 14.586,0.119335526 9.86055921,0.119335526 C5.1359386,0.119335526 1.29300658,3.96267763 1.29300658,8.68770833 C1.29300658,13.4106886 5.1359386,17.2519803 9.86055921,17.2519803 L9.86055921,17.2519803 Z" id="Shape"></path>
                <path d="M13.3266206,24.2402851 C15.0707237,23.8429101 16.7529035,23.1535526 18.3013947,22.1804145 C19.4742456,21.4414364 19.8277412,19.8917149 19.0891732,18.7196842 C18.3510154,17.5456031 16.802114,17.1912873 15.6280329,17.9306754 C12.1180921,20.1373575 7.60056579,20.1357171 4.09349561,17.9306754 C2.91900439,17.1912873 1.36969298,17.5456031 0.632765351,18.7196842 C-0.106212719,19.8925351 0.247282895,21.4422566 1.4193136,22.1804145 C2.96739474,23.1523224 4.64957456,23.8433202 6.39326754,24.2402851 L1.60385307,29.0305197 C0.624563596,30.0106294 0.624563596,31.5997193 1.60508333,32.5798289 C2.09554825,33.0690636 2.73692544,33.3142961 3.37871272,33.3142961 C4.02173026,33.3142961 4.66392763,33.0690636 5.15439254,32.5798289 L9.85973904,27.8736623 L14.5679561,32.580239 C15.5468355,33.5607588 17.1359254,33.5607588 18.1152149,32.580239 C19.097375,31.5997193 19.097375,30.0098092 18.1152149,29.0313399 L13.3266206,24.2402851" id="Shape"></path>
            </g>
        </g>
    </g>
</svg>